# https://github.com/mikedh/trimesh
v 0.11240274 0.04809763 -0.00922363 0.43529412 0.89019608 0.96078431
v 0.11240274 0.04806154 -0.01117340 0.43529412 0.89019608 0.96078431
v 0.11121406 0.04762846 -0.01117340 0.43529412 0.89019608 0.96078431
v 0.11120802 0.04763447 -0.00922363 0.43529412 0.89019608 0.96078431
v 0.11128044 0.04758936 -0.00803638 0.43529412 0.89019608 0.96078431
v 0.11240274 0.04779988 -0.00766414 0.43529412 0.89019608 0.96078431
v 0.11435170 0.04775477 -0.00776089 0.43529412 0.89019608 0.96078431
v 0.11435170 0.04803146 -0.00922363 0.43529412 0.89019608 0.96078431
v 0.11435170 0.04803447 -0.01117340 0.43529412 0.89019608 0.96078431
v 0.11417973 0.04771267 -0.01305594 0.43529412 0.89019608 0.96078431
v 0.11257169 0.04771868 -0.01306741 0.43529412 0.89019608 0.96078431
v 0.11128647 0.04758034 -0.01237868 0.43529412 0.89019608 0.96078431
v 0.11023958 0.04679538 -0.01117340 0.43529412 0.89019608 0.96078431
v 0.11023355 0.04677733 -0.00922363 0.43529412 0.89019608 0.96078431
v 0.10936165 0.04570967 -0.00807246 0.43529412 0.89019608 0.96078431
v 0.11055938 0.04642245 -0.00767234 0.43529412 0.89019608 0.96078431
v 0.11248722 0.04648260 -0.00665891 0.43529412 0.89019608 0.96078431
v 0.11435170 0.04686154 -0.00678518 0.43529412 0.89019608 0.96078431
v 0.11567011 0.04573974 -0.00620960 0.43529412 0.89019608 0.96078431
v 0.11696740 0.04536080 -0.00652937 0.43529412 0.89019608 0.96078431
v 0.11538048 0.04753222 -0.00816429 0.43529412 0.89019608 0.96078431
v 0.11543177 0.04756831 -0.00922363 0.43529412 0.89019608 0.96078431
v 0.11547702 0.04760139 -0.01117340 0.43529412 0.89019608 0.96078431
v 0.11544082 0.04757432 -0.01236064 0.43529412 0.89019608 0.96078431
v 0.11341644 0.04750815 -0.01410871 0.43529412 0.89019608 0.96078431
v 0.11333498 0.04750815 -0.01410871 0.43529412 0.89019608 0.96078431
v 0.11064084 0.04636831 -0.01304282 0.43529412 0.89019608 0.96078431
v 0.10934656 0.04573072 -0.01240656 0.43529412 0.89019608 0.96078431
v 0.11203769 0.04700290 -0.01367908 0.43529412 0.89019608 0.96078431
v 0.10928320 0.04582095 -0.01117340 0.43529412 0.89019608 0.96078431
v 0.10929527 0.04580290 -0.00922363 0.43529412 0.89019608 0.96078431
v 0.10859232 0.04456983 -0.00922363 0.43529412 0.89019608 0.96078431
v 0.10739157 0.04192924 -0.00805934 0.43529412 0.89019608 0.96078431
v 0.10903883 0.04456983 -0.00777400 0.43529412 0.89019608 0.96078431
v 0.11045077 0.04456983 -0.00691473 0.43529412 0.89019608 0.96078431
v 0.11435170 0.04588711 -0.00620960 0.43529412 0.89019608 0.96078431
v 0.12435293 0.02902104 0.00206341 0.43529412 0.89019608 0.96078431
v 0.12501666 0.02990825 0.00206341 0.43529412 0.89019608 0.96078431
v 0.12603338 0.03085261 0.00206341 0.43529412 0.89019608 0.96078431
v 0.12618121 0.03089772 0.00206341 0.43529412 0.89019608 0.96078431
v 0.12799742 0.03134584 0.00206341 0.43529412 0.89019608 0.96078431
v 0.12822067 0.03132779 0.00206341 0.43529412 0.89019608 0.96078431
v 0.12982570 0.03100599 0.00206341 0.43529412 0.89019608 0.96078431
v 0.13015454 0.03086764 0.00206341 0.43529412 0.89019608 0.96078431
v 0.13114411 0.03018193 0.00206341 0.43529412 0.89019608 0.96078431
v 0.11749537 0.04573974 -0.00782976 0.43529412 0.89019608 0.96078431
v 0.11760700 0.04584200 -0.00922363 0.43529412 0.89019608 0.96078431
v 0.11640625 0.04681643 -0.00922363 0.43529412 0.89019608 0.96078431
v 0.11645151 0.04682245 -0.01117340 0.43529412 0.89019608 0.96078431
v 0.11471373 0.04717132 -0.01365940 0.43529412 0.89019608 0.96078431
v 0.11761304 0.04584802 -0.01117340 0.43529412 0.89019608 0.96078431
v 0.11750140 0.04574877 -0.01256234 0.43529412 0.89019608 0.96078431
v 0.11624032 0.04646155 -0.01311169 0.43529412 0.89019608 0.96078431
v 0.11573649 0.04587208 -0.01424810 0.43529412 0.89019608 0.96078431
v 0.11417973 0.04652169 -0.01428254 0.43529412 0.89019608 0.96078431
v 0.11435170 0.04456983 -0.01457443 0.43529412 0.89019608 0.96078431
v 0.11257169 0.04641944 -0.01422022 0.43529412 0.89019608 0.96078431
v 0.11129250 0.04570365 -0.01414479 0.43529412 0.89019608 0.96078431
v 0.10904184 0.04456983 -0.01271977 0.43529412 0.89019608 0.96078431
v 0.10776869 0.04257284 -0.01132098 0.43529412 0.89019608 0.96078431
v 0.10859534 0.04456983 -0.01117340 0.43529412 0.89019608 0.96078431
v 0.10779886 0.04301796 -0.00922363 0.43529412 0.89019608 0.96078431
v 0.10841432 0.04259690 -0.00758542 0.43529412 0.89019608 0.96078431
v 0.10734028 0.04204352 -0.00922363 0.43529412 0.89019608 0.96078431
v 0.10716530 0.04067210 -0.00922363 0.43529412 0.89019608 0.96078431
v 0.10734028 0.04067210 -0.00801014 0.43529412 0.89019608 0.96078431
v 0.11927840 0.01737297 0.00206341 0.43529412 0.89019608 0.96078431
v 0.11961026 0.02057897 0.00206341 0.43529412 0.89019608 0.96078431
v 0.11971585 0.02107521 0.00206341 0.43529412 0.89019608 0.96078431
v 0.12023176 0.02274438 0.00206341 0.43529412 0.89019608 0.96078431
v 0.12035244 0.02297295 0.00206341 0.43529412 0.89019608 0.96078431
v 0.13199791 0.02897291 0.00206341 0.43529412 0.89019608 0.96078431
v 0.13201903 0.02897291 0.00052359 0.43529412 0.89019608 0.96078431
v 0.13115618 0.03017892 -0.00142618 0.43529412 0.89019608 0.96078431
v 0.12690528 0.03564656 -0.00922363 0.43529412 0.89019608 0.96078431
v 0.12689019 0.03562852 -0.00727385 0.43529412 0.89019608 0.96078431
v 0.12595795 0.03677137 -0.00727385 0.43529412 0.89019608 0.96078431
v 0.12511622 0.03779392 -0.00727385 0.43529412 0.89019608 0.96078431
v 0.12509208 0.03776686 -0.00626863 0.43529412 0.89019608 0.96078431
v 0.12326381 0.03985105 -0.00727385 0.43529412 0.89019608 0.96078431
v 0.12231648 0.04082548 -0.00727385 0.43529412 0.89019608 0.96078431
v 0.11945338 0.04383299 -0.00766250 0.43529412 0.89019608 0.96078431
v 0.11858148 0.04493073 -0.00922363 0.43529412 0.89019608 0.96078431
v 0.11858751 0.04494276 -0.01117340 0.43529412 0.89019608 0.96078431
v 0.11703679 0.04530666 -0.01386274 0.43529412 0.89019608 0.96078431
v 0.11947752 0.04384502 -0.01257546 0.43529412 0.89019608 0.96078431
v 0.11767639 0.04400742 -0.01424974 0.43529412 0.89019608 0.96078431
v 0.11635195 0.04462396 -0.01438749 0.43529412 0.89019608 0.96078431
v 0.11435170 0.04262097 -0.01462362 0.43529412 0.89019608 0.96078431
v 0.11240274 0.04262097 -0.01448752 0.43529412 0.89019608 0.96078431
v 0.11240274 0.04456983 -0.01442192 0.43529412 0.89019608 0.96078431
v 0.11630065 0.04262097 -0.01461706 0.43529412 0.89019608 0.96078431
v 0.11113260 0.04456983 -0.01419562 0.43529412 0.89019608 0.96078431
v 0.11015813 0.04456983 -0.01369383 0.43529412 0.89019608 0.96078431
v 0.10866775 0.04262097 -0.01288211 0.43529412 0.89019608 0.96078431
v 0.10771439 0.04067210 -0.01181293 0.43529412 0.89019608 0.96078431
v 0.10741570 0.04189315 -0.01077000 0.43529412 0.89019608 0.96078431
v 0.10735235 0.04067210 -0.01083723 0.43529412 0.89019608 0.96078431
v 0.10740665 0.03952324 -0.01047974 0.43529412 0.89019608 0.96078431
v 0.10735235 0.03943903 -0.00922363 0.43529412 0.89019608 0.96078431
v 0.10741570 0.03952624 -0.00812001 0.43529412 0.89019608 0.96078431
v 0.13239614 0.01737297 0.00206341 0.43529412 0.89019608 0.96078431
v 0.11920297 0.01737297 -0.00446808 0.43529412 0.89019608 0.96078431
v 0.13275215 0.02778194 0.00206341 0.43529412 0.89019608 0.96078431
v 0.13276120 0.02779698 0.00052359 0.43529412 0.89019608 0.96078431
v 0.13201903 0.02897291 -0.00142618 0.43529412 0.89019608 0.96078431
v 0.13112600 0.03018795 -0.00337595 0.43529412 0.89019608 0.96078431
v 0.12938220 0.03243455 -0.00727385 0.43529412 0.89019608 0.96078431
v 0.12765650 0.03466913 -0.00922363 0.43529412 0.89019608 0.96078431
v 0.12764443 0.03465409 -0.01117340 0.43529412 0.89019608 0.96078431
v 0.12689321 0.03562852 -0.01117340 0.43529412 0.89019608 0.96078431
v 0.12598208 0.03677137 -0.01117340 0.43529412 0.89019608 0.96078431
v 0.12514036 0.03782400 -0.01117340 0.43529412 0.89019608 0.96078431
v 0.12599415 0.03677137 -0.00922363 0.43529412 0.89019608 0.96078431
v 0.12513432 0.03781798 -0.00922363 0.43529412 0.89019608 0.96078431
v 0.12429259 0.03879241 -0.00922363 0.43529412 0.89019608 0.96078431
v 0.12331811 0.03992023 -0.00922363 0.43529412 0.89019608 0.96078431
v 0.12244621 0.04089466 -0.00922363 0.43529412 0.89019608 0.96078431
v 0.12147173 0.04195631 -0.00922363 0.43529412 0.89019608 0.96078431
v 0.12055156 0.04293375 -0.00922363 0.43529412 0.89019608 0.96078431
v 0.11957708 0.04395630 -0.00922363 0.43529412 0.89019608 0.96078431
v 0.11959216 0.04396532 -0.01117340 0.43529412 0.89019608 0.96078431
v 0.11897670 0.04333675 -0.01387586 0.43529412 0.89019608 0.96078431
v 0.12018349 0.04260593 -0.01320352 0.43529412 0.89019608 0.96078431
v 0.12139027 0.04187510 -0.01252955 0.43529412 0.89019608 0.96078431
v 0.11959216 0.04203751 -0.01424154 0.43529412 0.89019608 0.96078431
v 0.11829487 0.04266006 -0.01437601 0.43529412 0.89019608 0.96078431
v 0.11435170 0.04067210 -0.01465642 0.43529412 0.89019608 0.96078431
v 0.11222776 0.04050970 -0.01437601 0.43529412 0.89019608 0.96078431
v 0.11116277 0.04105405 -0.01420874 0.43529412 0.89019608 0.96078431
v 0.11103606 0.04262097 -0.01424318 0.43529412 0.89019608 0.96078431
v 0.11435170 0.03872023 -0.01460559 0.43529412 0.89019608 0.96078431
v 0.12020159 0.03287064 -0.01467118 0.43529412 0.89019608 0.96078431
v 0.11630065 0.04067210 -0.01464822 0.43529412 0.89019608 0.96078431
v 0.12022573 0.04068413 -0.01435469 0.43529412 0.89019608 0.96078431
v 0.12020159 0.03872023 -0.01455147 0.43529412 0.89019608 0.96078431
v 0.12215055 0.03481950 -0.01457607 0.43529412 0.89019608 0.96078431
v 0.12215055 0.03287064 -0.01461379 0.43529412 0.89019608 0.96078431
v 0.11006158 0.04262097 -0.01385618 0.43529412 0.89019608 0.96078431
v 0.10868886 0.04067210 -0.01274928 0.43529412 0.89019608 0.96078431
v 0.10905693 0.03915632 -0.01247543 0.43529412 0.89019608 0.96078431
v 0.12049423 0.01737297 -0.01287227 0.43529412 0.89019608 0.96078431
v 0.11957406 0.01737297 -0.01117340 0.43529412 0.89019608 0.96078431
v 0.11928443 0.01737297 -0.00925150 0.43529412 0.89019608 0.96078431
v 0.11918789 0.01737297 -0.00632438 0.43529412 0.89019608 0.96078431
v 0.11920599 0.01737297 -0.00727385 0.43529412 0.89019608 0.96078431
v 0.13798356 0.01737297 0.00052359 0.43529412 0.89019608 0.96078431
v 0.13797753 0.01737899 0.00206341 0.43529412 0.89019608 0.96078431
v 0.13286378 0.02757443 0.00206341 0.43529412 0.89019608 0.96078431
v 0.13328615 0.02682255 0.00052359 0.43529412 0.89019608 0.96078431
v 0.13276120 0.02779097 -0.00142618 0.43529412 0.89019608 0.96078431
v 0.13273707 0.02774585 -0.00337595 0.43529412 0.89019608 0.96078431
v 0.13196472 0.02897291 -0.00337595 0.43529412 0.89019608 0.96078431
v 0.13102041 0.03008569 -0.00922363 0.43529412 0.89019608 0.96078431
v 0.13033255 0.03106313 -0.00922363 0.43529412 0.89019608 0.96078431
v 0.12932488 0.03239244 -0.01117340 0.43529412 0.89019608 0.96078431
v 0.12935807 0.03241951 -0.00922363 0.43529412 0.89019608 0.96078431
v 0.12861891 0.03336387 -0.01117340 0.43529412 0.89019608 0.96078431
v 0.12863098 0.03339395 -0.00922363 0.43529412 0.89019608 0.96078431
v 0.12511622 0.03779693 -0.01223273 0.43529412 0.89019608 0.96078431
v 0.12430164 0.03879843 -0.01117340 0.43529412 0.89019608 0.96078431
v 0.12332716 0.03992925 -0.01117340 0.43529412 0.89019608 0.96078431
v 0.12246431 0.04090368 -0.01117340 0.43529412 0.89019608 0.96078431
v 0.12148983 0.04197736 -0.01117340 0.43529412 0.89019608 0.96078431
v 0.12056664 0.04295179 -0.01117340 0.43529412 0.89019608 0.96078431
v 0.12089247 0.04133977 -0.01382994 0.43529412 0.89019608 0.96078431
v 0.12146268 0.04004053 -0.01422514 0.43529412 0.89019608 0.96078431
v 0.12326078 0.03985406 -0.01240492 0.43529412 0.89019608 0.96078431
v 0.11630065 0.03872023 -0.01467446 0.43529412 0.89019608 0.96078431
v 0.11825263 0.03481950 -0.01468758 0.43529412 0.89019608 0.96078431
v 0.11630065 0.03677137 -0.01464822 0.43529412 0.89019608 0.96078431
v 0.12263326 0.01737297 -0.01427106 0.43529412 0.89019608 0.96078431
v 0.11146145 0.03975181 -0.01408740 0.43529412 0.89019608 0.96078431
v 0.11048697 0.04050970 -0.01379222 0.43529412 0.89019608 0.96078431
v 0.12215055 0.02702405 -0.01466626 0.43529412 0.89019608 0.96078431
v 0.12215055 0.02507218 -0.01460559 0.43529412 0.89019608 0.96078431
v 0.12409950 0.01737297 -0.01442028 0.43529412 0.89019608 0.96078431
v 0.12215055 0.03092478 -0.01464658 0.43529412 0.89019608 0.96078431
v 0.12215055 0.02897291 -0.01467446 0.43529412 0.89019608 0.96078431
v 0.12212641 0.03867813 -0.01432681 0.43529412 0.89019608 0.96078431
v 0.12215055 0.03677137 -0.01451703 0.43529412 0.89019608 0.96078431
v 0.12409950 0.03287064 -0.01453179 0.43529412 0.89019608 0.96078431
v 0.12409950 0.03092478 -0.01456787 0.43529412 0.89019608 0.96078431
v 0.12166180 0.01737297 -0.01385454 0.43529412 0.89019608 0.96078431
v 0.12159543 0.01737297 -0.01380042 0.43529412 0.89019608 0.96078431
v 0.13798356 0.01737297 -0.00143274 0.43529412 0.89019608 0.96078431
v 0.13476748 0.02398046 -0.00142618 0.43529412 0.89019608 0.96078431
v 0.13476446 0.02397144 0.00052359 0.43529412 0.89019608 0.96078431
v 0.13475239 0.02395039 0.00206341 0.43529412 0.89019608 0.96078431
v 0.13327710 0.02680450 0.00206341 0.43529412 0.89019608 0.96078431
v 0.13328313 0.02681653 -0.00142618 0.43529412 0.89019608 0.96078431
v 0.13420331 0.02507218 0.00052359 0.43529412 0.89019608 0.96078431
v 0.13420029 0.02507218 -0.00142618 0.43529412 0.89019608 0.96078431
v 0.13471016 0.02386918 -0.00922363 0.43529412 0.89019608 0.96078431
v 0.13405849 0.02507218 -0.00922363 0.43529412 0.89019608 0.96078431
v 0.13401022 0.02507218 -0.01117340 0.43529412 0.89019608 0.96078431
v 0.13319866 0.02660300 -0.00922363 0.43529412 0.89019608 0.96078431
v 0.13316849 0.02653985 -0.01117340 0.43529412 0.89019608 0.96078431
v 0.13262242 0.02757743 -0.00922363 0.43529412 0.89019608 0.96078431
v 0.13167509 0.02897291 -0.01117340 0.43529412 0.89019608 0.96078431
v 0.13098723 0.03004358 -0.01117340 0.43529412 0.89019608 0.96078431
v 0.13029936 0.03101802 -0.01117340 0.43529412 0.89019608 0.96078431
v 0.13095706 0.02999547 -0.01221470 0.43529412 0.89019608 0.96078431
v 0.12462747 0.03720445 -0.01353313 0.43529412 0.89019608 0.96078431
v 0.12394262 0.03854881 -0.01296902 0.43529412 0.89019608 0.96078431
v 0.12919817 0.03221500 -0.01251479 0.43529412 0.89019608 0.96078431
v 0.12743324 0.03437439 -0.01273125 0.43529412 0.89019608 0.96078431
v 0.12548429 0.03664205 -0.01298050 0.43529412 0.89019608 0.96078431
v 0.12275997 0.03929767 -0.01370367 0.43529412 0.89019608 0.96078431
v 0.12516148 0.03590521 -0.01414807 0.43529412 0.89019608 0.96078431
v 0.12332716 0.03799843 -0.01420219 0.43529412 0.89019608 0.96078431
v 0.12258197 0.01737297 -0.01425138 0.43529412 0.89019608 0.96078431
v 0.12409950 0.02507218 -0.01460722 0.43529412 0.89019608 0.96078431
v 0.12409950 0.02312332 -0.01458919 0.43529412 0.89019608 0.96078431
v 0.12409950 0.02117446 -0.01454983 0.43529412 0.89019608 0.96078431
v 0.12409950 0.01922259 -0.01448916 0.43529412 0.89019608 0.96078431
v 0.12594890 0.01737297 -0.01436617 0.43529412 0.89019608 0.96078431
v 0.12409950 0.02897291 -0.01459083 0.43529412 0.89019608 0.96078431
v 0.12409950 0.02702405 -0.01460722 0.43529412 0.89019608 0.96078431
v 0.12402408 0.03664205 -0.01427434 0.43529412 0.89019608 0.96078431
v 0.12409950 0.03481950 -0.01444488 0.43529412 0.89019608 0.96078431
v 0.12604846 0.03092478 -0.01446128 0.43529412 0.89019608 0.96078431
v 0.12604846 0.02897291 -0.01448916 0.43529412 0.89019608 0.96078431
v 0.13797753 0.01737297 -0.00728369 0.43529412 0.89019608 0.96078431
v 0.13798054 0.01737598 -0.00337595 0.43529412 0.89019608 0.96078431
v 0.13475541 0.02395941 -0.00337595 0.43529412 0.89019608 0.96078431
v 0.13796546 0.01737297 -0.00925314 0.43529412 0.89019608 0.96078431
v 0.13418219 0.02507218 0.00206341 0.43529412 0.89019608 0.96078431
v 0.13463474 0.02418196 0.00206341 0.43529412 0.89019608 0.96078431
v 0.13398910 0.02544211 0.00206341 0.43529412 0.89019608 0.96078431
v 0.13474033 0.02392933 -0.00532572 0.43529412 0.89019608 0.96078431
v 0.13468904 0.02382407 -0.01117340 0.43529412 0.89019608 0.96078431
v 0.13305686 0.02635338 -0.01244427 0.43529412 0.89019608 0.96078431
v 0.13258320 0.02751728 -0.01117340 0.43529412 0.89019608 0.96078431
v 0.13127987 0.02897291 -0.01264106 0.43529412 0.89019608 0.96078431
v 0.12980760 0.03072930 -0.01301494 0.43529412 0.89019608 0.96078431
v 0.12686304 0.03365860 -0.01403164 0.43529412 0.89019608 0.96078431
v 0.12911671 0.03016088 -0.01416775 0.43529412 0.89019608 0.96078431
v 0.12604846 0.02507218 -0.01450391 0.43529412 0.89019608 0.96078431
v 0.12994939 0.02312332 -0.01428582 0.43529412 0.89019608 0.96078431
v 0.12799742 0.02312332 -0.01438913 0.43529412 0.89019608 0.96078431
v 0.12604846 0.02312332 -0.01449080 0.43529412 0.89019608 0.96078431
v 0.12604846 0.02117446 -0.01445964 0.43529412 0.89019608 0.96078431
v 0.12604846 0.01922259 -0.01441700 0.43529412 0.89019608 0.96078431
v 0.12604846 0.01737297 -0.01436289 0.43529412 0.89019608 0.96078431
v 0.12799742 0.02702405 -0.01439405 0.43529412 0.89019608 0.96078431
v 0.12795820 0.03085561 -0.01426286 0.43529412 0.89019608 0.96078431
v 0.12799742 0.02897291 -0.01437929 0.43529412 0.89019608 0.96078431
v 0.13776332 0.01737297 -0.01108977 0.43529412 0.89019608 0.96078431
v 0.13502392 0.02259400 -0.01243935 0.43529412 0.89019608 0.96078431
v 0.13342493 0.02507218 -0.01281324 0.43529412 0.89019608 0.96078431
v 0.13071268 0.02768570 -0.01403984 0.43529412 0.89019608 0.96078431
v 0.13038383 0.02897291 -0.01361676 0.43529412 0.89019608 0.96078431
v 0.12857969 0.03146012 -0.01381354 0.43529412 0.89019608 0.96078431
v 0.13103851 0.02638646 -0.01413987 0.43529412 0.89019608 0.96078431
v 0.12940936 0.02897291 -0.01421038 0.43529412 0.89019608 0.96078431
v 0.12799742 0.02507218 -0.01439733 0.43529412 0.89019608 0.96078431
v 0.12994939 0.02507218 -0.01428582 0.43529412 0.89019608 0.96078431
v 0.13287886 0.02200152 -0.01410051 0.43529412 0.89019608 0.96078431
v 0.13201601 0.02127972 -0.01414479 0.43529412 0.89019608 0.96078431
v 0.12994939 0.02117446 -0.01425958 0.43529412 0.89019608 0.96078431
v 0.12799742 0.01922259 -0.01432025 0.43529412 0.89019608 0.96078431
v 0.12799742 0.01737297 -0.01428090 0.43529412 0.89019608 0.96078431
v 0.12789786 0.01737297 -0.01428582 0.43529412 0.89019608 0.96078431
v 0.12994939 0.01922259 -0.01422022 0.43529412 0.89019608 0.96078431
v 0.13287886 0.02217596 -0.01410051 0.43529412 0.89019608 0.96078431
v 0.13771505 0.01737297 -0.01130786 0.43529412 0.89019608 0.96078431
v 0.13683108 0.01840756 -0.01222290 0.43529412 0.89019608 0.96078431
v 0.13711769 0.01737297 -0.01240656 0.43529412 0.89019608 0.96078431
v 0.13532864 0.02117446 -0.01272961 0.43529412 0.89019608 0.96078431
v 0.13222418 0.02507218 -0.01378894 0.43529412 0.89019608 0.96078431
v 0.13254398 0.02347821 -0.01403984 0.43529412 0.89019608 0.96078431
v 0.13274611 0.02069927 -0.01409231 0.43529412 0.89019608 0.96078431
v 0.13384730 0.01737297 -0.01390045 0.43529412 0.89019608 0.96078431
v 0.13377792 0.01737297 -0.01391193 0.43529412 0.89019608 0.96078431
v 0.13151821 0.01922259 -0.01413495 0.43529412 0.89019608 0.96078431
v 0.12984682 0.01737297 -0.01418579 0.43529412 0.89019608 0.96078431
v 0.13707545 0.01737297 -0.01244591 0.43529412 0.89019608 0.96078431
v 0.13580230 0.01737297 -0.01322648 0.43529412 0.89019608 0.96078431
v 0.13569670 0.01737297 -0.01328223 0.43529412 0.89019608 0.96078431
v 0.13384730 0.01922259 -0.01387258 0.43529412 0.89019608 0.96078431
v 0.13249571 0.01922259 -0.01407592 0.43529412 0.89019608 0.96078431
v 0.13213066 0.01737297 -0.01405296 0.43529412 0.89019608 0.96078431
v 0.13115618 0.01737297 -0.01411363 0.43529412 0.89019608 0.96078431
v 0.13207936 0.01737297 -0.01405624 0.43529412 0.89019608 0.96078431
f 1 2 3
f 1 3 4
f 1 4 5
f 1 5 6
f 1 6 7
f 1 7 8
f 1 8 9
f 1 9 2
f 2 9 10
f 2 10 11
f 2 11 12
f 2 12 3
f 3 12 13
f 3 13 4
f 4 13 14
f 4 14 5
f 5 14 15
f 5 15 16
f 5 16 17
f 5 17 6
f 6 17 18
f 6 18 7
f 7 18 19
f 7 19 20
f 7 20 21
f 7 21 8
f 8 21 22
f 8 22 23
f 8 23 9
f 9 23 24
f 9 24 10
f 10 24 25
f 10 25 11
f 11 25 26
f 11 26 12
f 12 27 28
f 12 28 13
f 12 26 29
f 12 29 27
f 13 28 30
f 13 30 14
f 14 30 31
f 14 31 15
f 15 31 32
f 15 32 33
f 15 33 34
f 15 34 35
f 15 35 16
f 16 35 17
f 17 36 18
f 17 35 37
f 17 37 38
f 17 38 39
f 17 39 40
f 17 40 41
f 17 41 36
f 18 36 41
f 18 41 42
f 18 42 43
f 18 43 19
f 19 43 44
f 19 44 20
f 20 44 21
f 21 44 45
f 21 45 46
f 21 46 47
f 21 47 48
f 21 48 22
f 22 48 23
f 23 48 49
f 23 49 24
f 24 50 25
f 24 49 51
f 24 51 52
f 24 52 53
f 24 53 50
f 25 50 54
f 25 54 55
f 25 55 26
f 26 55 56
f 26 56 57
f 26 57 58
f 26 58 29
f 27 29 58
f 27 58 28
f 28 59 60
f 28 60 61
f 28 61 30
f 28 58 59
f 30 61 32
f 30 32 31
f 32 61 62
f 32 62 33
f 33 63 34
f 33 62 64
f 33 64 65
f 33 65 66
f 33 66 67
f 33 67 68
f 33 68 69
f 33 69 63
f 34 63 35
f 35 63 70
f 35 70 71
f 35 71 37
f 37 71 70
f 37 70 69
f 37 69 68
f 37 68 67
f 37 67 102
f 37 102 148
f 37 148 189
f 37 189 229
f 37 229 228
f 37 228 230
f 37 230 190
f 37 190 149
f 37 149 104
f 37 104 72
f 37 72 45
f 37 45 44
f 37 44 43
f 37 43 42
f 37 42 41
f 37 41 40
f 37 40 39
f 37 39 38
f 45 72 73
f 45 73 74
f 45 74 75
f 45 75 76
f 45 76 77
f 45 77 78
f 45 78 79
f 45 79 80
f 45 80 81
f 45 81 82
f 45 82 46
f 46 82 83
f 46 83 47
f 47 51 49
f 47 49 48
f 47 83 84
f 47 84 51
f 50 53 85
f 50 85 54
f 51 84 52
f 52 84 86
f 52 86 85
f 52 85 53
f 54 56 55
f 54 85 87
f 54 87 88
f 54 88 56
f 56 89 90
f 56 90 91
f 56 91 57
f 56 88 92
f 56 92 89
f 57 91 58
f 58 93 94
f 58 94 59
f 58 91 93
f 59 94 95
f 59 95 60
f 60 96 97
f 60 97 61
f 60 95 96
f 61 97 64
f 61 64 62
f 63 69 70
f 64 97 65
f 65 97 98
f 65 98 99
f 65 99 100
f 65 100 101
f 65 101 66
f 66 101 67
f 67 101 100
f 67 100 103
f 67 103 145
f 67 145 146
f 67 146 144
f 67 144 143
f 67 143 142
f 67 142 185
f 67 185 184
f 67 184 212
f 67 212 172
f 67 172 177
f 67 177 217
f 67 217 245
f 67 245 264
f 67 264 263
f 67 263 277
f 67 277 284
f 67 284 285
f 67 285 283
f 67 283 275
f 67 275 274
f 67 274 280
f 67 280 279
f 67 279 278
f 67 278 269
f 67 269 267
f 67 267 249
f 67 249 227
f 67 227 224
f 67 224 186
f 67 186 147
f 67 147 102
f 72 104 73
f 73 104 105
f 73 105 106
f 73 106 74
f 74 107 108
f 74 108 109
f 74 109 75
f 74 106 107
f 75 109 110
f 75 110 111
f 75 111 112
f 75 112 113
f 75 113 114
f 75 114 76
f 76 114 77
f 77 114 115
f 77 115 78
f 78 115 116
f 78 116 117
f 78 117 79
f 79 117 118
f 79 118 80
f 80 118 119
f 80 119 120
f 80 120 121
f 80 121 82
f 80 82 81
f 82 121 83
f 83 121 122
f 83 122 84
f 84 122 86
f 85 86 123
f 85 123 87
f 86 124 123
f 86 122 125
f 86 125 124
f 87 123 126
f 87 126 127
f 87 127 88
f 88 127 92
f 89 128 90
f 89 92 128
f 90 129 130
f 90 130 131
f 90 131 93
f 90 93 91
f 90 128 132
f 90 132 129
f 92 133 134
f 92 134 128
f 92 127 135
f 92 135 136
f 92 136 137
f 92 137 138
f 92 138 133
f 93 131 139
f 93 139 94
f 94 139 95
f 95 140 96
f 95 139 140
f 96 99 98
f 96 98 97
f 96 140 141
f 96 141 142
f 96 142 99
f 99 142 143
f 99 143 144
f 99 144 100
f 100 145 103
f 100 144 146
f 100 146 145
f 102 147 148
f 104 149 150
f 104 150 105
f 105 150 151
f 105 151 106
f 106 151 152
f 106 152 153
f 106 153 107
f 107 154 155
f 107 155 156
f 107 156 157
f 107 157 108
f 107 153 154
f 108 157 158
f 108 158 159
f 108 159 109
f 109 159 110
f 110 159 158
f 110 158 160
f 110 160 111
f 111 160 112
f 112 160 113
f 113 160 161
f 113 161 115
f 113 115 114
f 115 161 162
f 115 162 116
f 116 162 117
f 117 162 163
f 117 163 118
f 118 163 164
f 118 164 119
f 119 164 120
f 120 165 121
f 120 164 165
f 121 165 122
f 122 165 125
f 123 124 166
f 123 166 167
f 123 167 126
f 124 125 166
f 125 164 168
f 125 168 166
f 125 165 164
f 126 135 127
f 126 167 135
f 128 134 169
f 128 169 170
f 128 170 171
f 128 171 132
f 129 132 172
f 129 172 130
f 130 173 174
f 130 174 139
f 130 139 131
f 130 172 173
f 132 171 175
f 132 175 176
f 132 176 177
f 132 177 172
f 133 170 134
f 133 138 178
f 133 178 179
f 133 179 170
f 134 170 169
f 135 167 180
f 135 180 181
f 135 181 136
f 136 181 137
f 137 181 182
f 137 182 138
f 138 182 183
f 138 183 178
f 139 174 140
f 140 174 184
f 140 184 141
f 141 184 185
f 141 185 142
f 147 186 187
f 147 187 148
f 148 187 188
f 148 188 189
f 149 190 150
f 150 191 151
f 150 190 192
f 150 192 193
f 150 193 191
f 151 191 194
f 151 194 195
f 151 195 196
f 151 196 152
f 152 197 198
f 152 198 199
f 152 199 200
f 152 200 153
f 152 196 197
f 153 200 201
f 153 201 154
f 154 201 155
f 155 201 202
f 155 202 156
f 156 202 203
f 156 203 158
f 156 158 157
f 158 203 160
f 160 204 205
f 160 205 168
f 160 168 163
f 160 163 162
f 160 162 161
f 160 203 206
f 160 206 207
f 160 207 208
f 160 208 204
f 163 168 164
f 166 168 209
f 166 209 210
f 166 210 211
f 166 211 167
f 167 211 180
f 168 205 209
f 170 179 175
f 170 175 171
f 172 212 173
f 173 212 184
f 173 184 174
f 175 179 213
f 175 213 214
f 175 214 215
f 175 215 216
f 175 216 176
f 176 216 177
f 177 216 217
f 178 183 179
f 179 183 218
f 179 218 219
f 179 219 213
f 180 211 220
f 180 220 181
f 181 220 221
f 181 221 222
f 181 222 182
f 182 222 183
f 183 222 223
f 183 223 218
f 186 224 225
f 186 225 187
f 187 226 193
f 187 193 192
f 187 192 188
f 187 225 224
f 187 224 227
f 187 227 226
f 188 192 228
f 188 228 229
f 188 229 189
f 190 230 192
f 191 193 226
f 191 226 231
f 191 231 194
f 192 230 228
f 194 231 227
f 194 227 232
f 194 232 195
f 195 232 196
f 196 232 233
f 196 233 198
f 196 198 197
f 198 233 203
f 198 203 234
f 198 234 199
f 199 234 200
f 200 234 203
f 200 203 201
f 201 203 202
f 203 233 235
f 203 235 236
f 203 236 206
f 204 208 207
f 204 207 210
f 204 210 209
f 204 209 205
f 206 236 237
f 206 237 210
f 206 210 207
f 210 220 211
f 210 237 238
f 210 238 220
f 213 219 239
f 213 239 240
f 213 240 241
f 213 241 242
f 213 242 214
f 214 242 243
f 214 243 215
f 215 243 244
f 215 244 245
f 215 245 216
f 216 245 217
f 218 223 219
f 219 223 246
f 219 246 257
f 219 257 239
f 220 238 221
f 221 238 247
f 221 247 248
f 221 248 222
f 222 248 223
f 223 248 246
f 226 227 231
f 227 249 232
f 232 250 233
f 232 249 250
f 233 250 251
f 233 251 252
f 233 252 253
f 233 253 235
f 235 253 238
f 235 238 236
f 236 238 254
f 236 254 237
f 237 254 238
f 238 253 252
f 238 252 255
f 238 255 256
f 238 256 247
f 239 257 240
f 240 258 266
f 240 266 259
f 240 259 260
f 240 260 261
f 240 261 241
f 240 257 258
f 241 261 242
f 242 261 243
f 243 262 263
f 243 263 264
f 243 264 244
f 243 261 265
f 243 265 262
f 244 264 245
f 246 248 258
f 246 258 257
f 247 256 248
f 248 256 255
f 248 255 266
f 248 266 258
f 249 267 250
f 250 267 268
f 250 268 269
f 250 269 270
f 250 270 251
f 251 270 252
f 252 270 271
f 252 271 272
f 252 272 255
f 255 272 266
f 259 273 260
f 259 266 274
f 259 274 275
f 259 275 273
f 260 273 276
f 260 276 261
f 261 276 265
f 262 265 263
f 263 265 277
f 265 276 277
f 266 272 278
f 266 278 279
f 266 279 280
f 266 280 281
f 266 281 274
f 267 269 268
f 269 278 270
f 270 278 272
f 270 272 271
f 273 282 276
f 273 275 282
f 274 281 280
f 275 283 282
f 276 284 277
f 276 282 284
f 282 283 285
f 282 285 284

