# https://github.com/mikedh/trimesh
v 0.11240307 0.04776046 0.01027428 0.54117647 0.42352941 0.64313725
v 0.11405762 0.04770692 0.01222456 0.54117647 0.42352941 0.64313725
v 0.11412440 0.04774261 0.01027428 0.54117647 0.42352941 0.64313725
v 0.11396654 0.04769502 0.00832401 0.54117647 0.42352941 0.64313725
v 0.11232110 0.04766527 0.00841932 0.54117647 0.42352941 0.64313725
v 0.11140124 0.04751060 0.00913296 0.54117647 0.42352941 0.64313725
v 0.11139820 0.04751060 0.01027428 0.54117647 0.42352941 0.64313725
v 0.11141642 0.04750168 0.01136429 0.54117647 0.42352941 0.64313725
v 0.11228467 0.04766825 0.01209870 0.54117647 0.42352941 0.64313725
v 0.11285542 0.04761173 0.01334633 0.54117647 0.42352941 0.64313725
v 0.11378135 0.04761173 0.01334633 0.54117647 0.42352941 0.64313725
v 0.11503212 0.04736782 0.01222456 0.54117647 0.42352941 0.64313725
v 0.11509891 0.04740351 0.01027428 0.54117647 0.42352941 0.64313725
v 0.11366902 0.04759686 0.00722667 0.54117647 0.42352941 0.64313725
v 0.11291613 0.04759686 0.00722667 0.54117647 0.42352941 0.64313725
v 0.11494105 0.04733213 0.00832401 0.54117647 0.42352941 0.64313725
v 0.11161678 0.04742136 0.00783400 0.54117647 0.42352941 0.64313725
v 0.11063013 0.04682646 0.00841932 0.54117647 0.42352941 0.64313725
v 0.10932168 0.04574077 0.00832401 0.54117647 0.42352941 0.64313725
v 0.11042370 0.04675508 0.01027428 0.54117647 0.42352941 0.64313725
v 0.11155607 0.04743921 0.01266447 0.54117647 0.42352941 0.64313725
v 0.11063924 0.04680564 0.01209870 0.54117647 0.42352941 0.64313725
v 0.11439763 0.04664799 0.01369582 0.54117647 0.42352941 0.64313725
v 0.11045102 0.04603227 0.01345753 0.54117647 0.42352941 0.64313725
v 0.11228467 0.04668369 0.01367260 0.54117647 0.42352941 0.64313725
v 0.11630111 0.04599658 0.01349908 0.54117647 0.42352941 0.64313725
v 0.11734849 0.04560692 0.01325957 0.54117647 0.42352941 0.64313725
v 0.11630111 0.04652604 0.01222456 0.54117647 0.42352941 0.64313725
v 0.11630111 0.04659445 0.01027428 0.54117647 0.42352941 0.64313725
v 0.11630111 0.04645763 0.00832401 0.54117647 0.42352941 0.64313725
v 0.11730902 0.04557420 0.00731221 0.54117647 0.42352941 0.64313725
v 0.11630111 0.04593709 0.00701283 0.54117647 0.42352941 0.64313725
v 0.11433084 0.04662122 0.00679776 0.54117647 0.42352941 0.64313725
v 0.11232110 0.04666882 0.00686619 0.54117647 0.42352941 0.64313725
v 0.11045102 0.04604714 0.00707515 0.54117647 0.42352941 0.64313725
v 0.10940061 0.04563964 0.00728044 0.54117647 0.42352941 0.64313725
v 0.10929436 0.04578241 0.01027428 0.54117647 0.42352941 0.64313725
v 0.10865683 0.04457179 0.00832401 0.54117647 0.42352941 0.64313725
v 0.10773696 0.04318270 0.01027428 0.54117647 0.42352941 0.64313725
v 0.10852932 0.04457179 0.01027428 0.54117647 0.42352941 0.64313725
v 0.10935811 0.04569913 0.01222456 0.54117647 0.42352941 0.64313725
v 0.10943401 0.04560097 0.01324247 0.54117647 0.42352941 0.64313725
v 0.11435209 0.04457179 0.01426770 0.54117647 0.42352941 0.64313725
v 0.11630111 0.04457179 0.01404775 0.54117647 0.42352941 0.64313725
v 0.11045102 0.04457179 0.01386934 0.54117647 0.42352941 0.64313725
v 0.11240307 0.04457179 0.01420905 0.54117647 0.42352941 0.64313725
v 0.11810138 0.04443199 0.01349908 0.54117647 0.42352941 0.64313725
v 0.11743349 0.04567831 0.01222456 0.54117647 0.42352941 0.64313725
v 0.11932483 0.04368837 0.01328157 0.54117647 0.42352941 0.64313725
v 0.11944323 0.04380437 0.01222456 0.54117647 0.42352941 0.64313725
v 0.11840800 0.04478001 0.01222456 0.54117647 0.42352941 0.64313725
v 0.11747599 0.04571103 0.01027428 0.54117647 0.42352941 0.64313725
v 0.11740009 0.04564856 0.00832401 0.54117647 0.42352941 0.64313725
v 0.11837461 0.04480083 0.00832401 0.54117647 0.42352941 0.64313725
v 0.11947055 0.04382519 0.00832401 0.54117647 0.42352941 0.64313725
v 0.11935823 0.04371811 0.00717291 0.54117647 0.42352941 0.64313725
v 0.13114342 0.03018117 0.00206504 0.54117647 0.42352941 0.64313725
v 0.13015374 0.03086828 0.00206504 0.54117647 0.42352941 0.64313725
v 0.11435209 0.04457179 0.00610123 0.54117647 0.42352941 0.64313725
v 0.12982283 0.03100510 0.00206504 0.54117647 0.42352941 0.64313725
v 0.12821990 0.03132635 0.00206504 0.54117647 0.42352941 0.64313725
v 0.11045102 0.04457179 0.00669145 0.54117647 0.42352941 0.64313725
v 0.11240307 0.04457179 0.00633097 0.54117647 0.42352941 0.64313725
v 0.10913952 0.04457179 0.00713625 0.54117647 0.42352941 0.64313725
v 0.10746069 0.04182930 0.00728166 0.54117647 0.42352941 0.64313725
v 0.10783411 0.04304290 0.00832401 0.54117647 0.42352941 0.64313725
v 0.10734230 0.04206726 0.00832401 0.54117647 0.42352941 0.64313725
v 0.10725426 0.04220707 0.01027428 0.54117647 0.42352941 0.64313725
v 0.10734230 0.04201670 0.01179565 0.54117647 0.42352941 0.64313725
v 0.10872058 0.04457179 0.01222456 0.54117647 0.42352941 0.64313725
v 0.10784321 0.04264729 0.01235653 0.54117647 0.42352941 0.64313725
v 0.10918810 0.04457179 0.01339277 0.54117647 0.42352941 0.64313725
v 0.11240307 0.04262052 0.01429703 0.54117647 0.42352941 0.64313725
v 0.11435209 0.04262052 0.01435202 0.54117647 0.42352941 0.64313725
v 0.11630111 0.04262052 0.01433247 0.54117647 0.42352941 0.64313725
v 0.11825014 0.04262052 0.01408685 0.54117647 0.42352941 0.64313725
v 0.11045102 0.04262052 0.01407585 0.54117647 0.42352941 0.64313725
v 0.10878737 0.04262052 0.01355163 0.54117647 0.42352941 0.64313725
v 0.12006558 0.04248369 0.01351497 0.54117647 0.42352941 0.64313725
v 0.11951913 0.04387278 0.01027428 0.54117647 0.42352941 0.64313725
v 0.11845050 0.04484842 0.01027428 0.54117647 0.42352941 0.64313725
v 0.12126778 0.04174007 0.01328035 0.54117647 0.42352941 0.64313725
v 0.12042078 0.04283171 0.01222456 0.54117647 0.42352941 0.64313725
v 0.12044809 0.04287930 0.00832401 0.54117647 0.42352941 0.64313725
v 0.12132546 0.04179956 0.00708248 0.54117647 0.42352941 0.64313725
v 0.12322894 0.03980665 0.00702871 0.54117647 0.42352941 0.64313725
v 0.12511421 0.03779291 0.00713258 0.54117647 0.42352941 0.64313725
v 0.12600068 0.03676968 0.00832401 0.54117647 0.42352941 0.64313725
v 0.12691144 0.03565127 0.00832401 0.54117647 0.42352941 0.64313725
v 0.13114039 0.03018414 0.00247563 0.54117647 0.42352941 0.64313725
v 0.13199650 0.02897352 0.00206504 0.54117647 0.42352941 0.64313725
v 0.12799828 0.03134717 0.00206504 0.54117647 0.42352941 0.64313725
v 0.12617979 0.03089802 0.00206504 0.54117647 0.42352941 0.64313725
v 0.12603407 0.03085043 0.00206504 0.54117647 0.42352941 0.64313725
v 0.10847164 0.04253426 0.00704704 0.54117647 0.42352941 0.64313725
v 0.12435524 0.02902111 0.00206504 0.54117647 0.42352941 0.64313725
v 0.12035398 0.02297098 0.00206504 0.54117647 0.42352941 0.64313725
v 0.12023255 0.02274492 0.00206504 0.54117647 0.42352941 0.64313725
v 0.12501706 0.02991049 0.00206504 0.54117647 0.42352941 0.64313725
v 0.10746069 0.04066925 0.00728411 0.54117647 0.42352941 0.64313725
v 0.10717532 0.04066925 0.00832401 0.54117647 0.42352941 0.64313725
v 0.11971342 0.02107622 0.00206504 0.54117647 0.42352941 0.64313725
v 0.11961020 0.02057948 0.00206504 0.54117647 0.42352941 0.64313725
v 0.11927929 0.01737595 0.00206504 0.54117647 0.42352941 0.64313725
v 0.10697192 0.04066925 0.01027428 0.54117647 0.42352941 0.64313725
v 0.10725729 0.04066925 0.01194350 0.54117647 0.42352941 0.64313725
v 0.10776428 0.04066925 0.01291864 0.54117647 0.42352941 0.64313725
v 0.11240307 0.04066925 0.01435935 0.54117647 0.42352941 0.64313725
v 0.11435209 0.04066925 0.01442289 0.54117647 0.42352941 0.64313725
v 0.11630111 0.04066925 0.01439968 0.54117647 0.42352941 0.64313725
v 0.11825014 0.04066925 0.01435080 0.54117647 0.42352941 0.64313725
v 0.12020219 0.03872095 0.01434835 0.54117647 0.42352941 0.64313725
v 0.12020219 0.04066925 0.01408196 0.54117647 0.42352941 0.64313725
v 0.11045102 0.04066925 0.01407830 0.54117647 0.42352941 0.64313725
v 0.10874183 0.04066925 0.01353085 0.54117647 0.42352941 0.64313725
v 0.12201157 0.04050863 0.01348442 0.54117647 0.42352941 0.64313725
v 0.12049363 0.04290310 0.01027428 0.54117647 0.42352941 0.64313725
v 0.12317430 0.03975013 0.01324735 0.54117647 0.42352941 0.64313725
v 0.12137707 0.04185607 0.01222456 0.54117647 0.42352941 0.64313725
v 0.12142261 0.04190367 0.00832401 0.54117647 0.42352941 0.64313725
v 0.12240015 0.04086854 0.00832401 0.54117647 0.42352941 0.64313725
v 0.12330484 0.03989291 0.00832401 0.54117647 0.42352941 0.64313725
v 0.12427935 0.03879531 0.00832401 0.54117647 0.42352941 0.64313725
v 0.12513850 0.03781968 0.00832401 0.54117647 0.42352941 0.64313725
v 0.12597943 0.03676968 0.01027428 0.54117647 0.42352941 0.64313725
v 0.12689930 0.03563640 0.01027428 0.54117647 0.42352941 0.64313725
v 0.12765826 0.03467564 0.00832401 0.54117647 0.42352941 0.64313725
v 0.12863277 0.03339363 0.00832401 0.54117647 0.42352941 0.64313725
v 0.13111003 0.03019009 0.00442590 0.54117647 0.42352941 0.64313725
v 0.13199043 0.02897352 0.00247563 0.54117647 0.42352941 0.64313725
v 0.13259760 0.02802763 0.00206504 0.54117647 0.42352941 0.64313725
v 0.10750320 0.03966387 0.00733054 0.54117647 0.42352941 0.64313725
v 0.10736051 0.03947053 0.00832401 0.54117647 0.42352941 0.64313725
v 0.11915179 0.01737595 0.00442590 0.54117647 0.42352941 0.64313725
v 0.10724212 0.03930991 0.01027428 0.54117647 0.42352941 0.64313725
v 0.13239420 0.01737595 0.00206504 0.54117647 0.42352941 0.64313725
v 0.10735140 0.03944970 0.01162823 0.54117647 0.42352941 0.64313725
v 0.10906970 0.03910169 0.01338788 0.54117647 0.42352941 0.64313725
v 0.10952204 0.03780183 0.01315326 0.54117647 0.42352941 0.64313725
v 0.11240307 0.03872095 0.01428970 0.54117647 0.42352941 0.64313725
v 0.11435209 0.03676968 0.01440457 0.54117647 0.42352941 0.64313725
v 0.11435209 0.03872095 0.01447177 0.54117647 0.42352941 0.64313725
v 0.11630111 0.03676968 0.01451454 0.54117647 0.42352941 0.64313725
v 0.11630111 0.03872095 0.01446444 0.54117647 0.42352941 0.64313725
v 0.11825014 0.03872095 0.01441556 0.54117647 0.42352941 0.64313725
v 0.12020219 0.03676968 0.01442900 0.54117647 0.42352941 0.64313725
v 0.12215121 0.03482139 0.01443145 0.54117647 0.42352941 0.64313725
v 0.12215121 0.03676968 0.01433980 0.54117647 0.42352941 0.64313725
v 0.12409720 0.03482139 0.01429948 0.54117647 0.42352941 0.64313725
v 0.12215121 0.03872095 0.01403308 0.54117647 0.42352941 0.64313725
v 0.11028404 0.03856033 0.01368238 0.54117647 0.42352941 0.64313725
v 0.12215121 0.01737595 0.01387789 0.54117647 0.42352941 0.64313725
v 0.12360539 0.03872095 0.01347953 0.54117647 0.42352941 0.64313725
v 0.12144689 0.04192746 0.01027428 0.54117647 0.42352941 0.64313725
v 0.12549673 0.03637705 0.01348808 0.54117647 0.42352941 0.64313725
v 0.12727878 0.03421161 0.01340743 0.54117647 0.42352941 0.64313725
v 0.12907904 0.03204320 0.01329379 0.54117647 0.42352941 0.64313725
v 0.12501706 0.03767988 0.01280989 0.54117647 0.42352941 0.64313725
v 0.12325626 0.03984531 0.01222456 0.54117647 0.42352941 0.64313725
v 0.12235158 0.04082095 0.01222456 0.54117647 0.42352941 0.64313725
v 0.12242141 0.04089234 0.01027428 0.54117647 0.42352941 0.64313725
v 0.12332002 0.03991670 0.01027428 0.54117647 0.42352941 0.64313725
v 0.12512635 0.03780778 0.01027428 0.54117647 0.42352941 0.64313725
v 0.12429757 0.03878342 0.01027428 0.54117647 0.42352941 0.64313725
v 0.12509903 0.03777506 0.01150970 0.54117647 0.42352941 0.64313725
v 0.12678393 0.03549065 0.01222456 0.54117647 0.42352941 0.64313725
v 0.12764308 0.03466076 0.01027428 0.54117647 0.42352941 0.64313725
v 0.12861759 0.03336686 0.01027428 0.54117647 0.42352941 0.64313725
v 0.12936441 0.03242096 0.00832401 0.54117647 0.42352941 0.64313725
v 0.12933405 0.03239419 0.01027428 0.54117647 0.42352941 0.64313725
v 0.13107360 0.03015737 0.00637618 0.54117647 0.42352941 0.64313725
v 0.13193579 0.02897352 0.00442590 0.54117647 0.42352941 0.64313725
v 0.13272207 0.02773613 0.00442590 0.54117647 0.42352941 0.64313725
v 0.13274939 0.02777777 0.00247563 0.54117647 0.42352941 0.64313725
v 0.13275243 0.02778075 0.00206504 0.54117647 0.42352941 0.64313725
v 0.11912143 0.01737595 0.00637618 0.54117647 0.42352941 0.64313725
v 0.11922161 0.01737595 0.00832401 0.54117647 0.42352941 0.64313725
v 0.11932787 0.01737595 0.01017897 0.54117647 0.42352941 0.64313725
v 0.13797714 0.01737892 0.00206504 0.54117647 0.42352941 0.64313725
v 0.13798322 0.01737595 0.00246830 0.54117647 0.42352941 0.64313725
v 0.11936733 0.01737595 0.01034882 0.54117647 0.42352941 0.64313725
v 0.12005343 0.01737595 0.01222456 0.54117647 0.42352941 0.64313725
v 0.12093990 0.01737595 0.01335489 0.54117647 0.42352941 0.64313725
v 0.12409720 0.01737595 0.01423593 0.54117647 0.42352941 0.64313725
v 0.11630111 0.03482139 0.01449133 0.54117647 0.42352941 0.64313725
v 0.12020219 0.02702225 0.01444856 0.54117647 0.42352941 0.64313725
v 0.11825014 0.03287011 0.01453776 0.54117647 0.42352941 0.64313725
v 0.12020219 0.03092479 0.01454876 0.54117647 0.42352941 0.64313725
v 0.11825014 0.03482139 0.01452554 0.54117647 0.42352941 0.64313725
v 0.11825014 0.03676968 0.01447788 0.54117647 0.42352941 0.64313725
v 0.12020219 0.03482139 0.01448033 0.54117647 0.42352941 0.64313725
v 0.12215121 0.03287011 0.01447422 0.54117647 0.42352941 0.64313725
v 0.12409720 0.03287011 0.01440334 0.54117647 0.42352941 0.64313725
v 0.12604925 0.03092479 0.01433613 0.54117647 0.42352941 0.64313725
v 0.12799828 0.02897352 0.01424693 0.54117647 0.42352941 0.64313725
v 0.12604925 0.03287011 0.01419438 0.54117647 0.42352941 0.64313725
v 0.12610694 0.03484518 0.01372148 0.54117647 0.42352941 0.64313725
v 0.12426113 0.03692436 0.01380335 0.54117647 0.42352941 0.64313725
v 0.12795577 0.03276303 0.01359073 0.54117647 0.42352941 0.64313725
v 0.12945245 0.03092479 0.01349908 0.54117647 0.42352941 0.64313725
v 0.13119503 0.02848868 0.01341110 0.54117647 0.42352941 0.64313725
v 0.13287083 0.02604661 0.01319603 0.54117647 0.42352941 0.64313725
v 0.13080645 0.02978853 0.01272190 0.54117647 0.42352941 0.64313725
v 0.12922173 0.03224547 0.01222456 0.54117647 0.42352941 0.64313725
v 0.12751861 0.03451799 0.01222456 0.54117647 0.42352941 0.64313725
v 0.12436739 0.03854248 0.01218546 0.54117647 0.42352941 0.64313725
v 0.12849312 0.03321813 0.01222456 0.54117647 0.42352941 0.64313725
v 0.13095217 0.02998782 0.01142172 0.54117647 0.42352941 0.64313725
v 0.13030856 0.03101700 0.01027428 0.54117647 0.42352941 0.64313725
v 0.13103413 0.03010383 0.00832401 0.54117647 0.42352941 0.64313725
v 0.13185989 0.02897352 0.00637618 0.54117647 0.42352941 0.64313725
v 0.13268261 0.02767069 0.00637618 0.54117647 0.42352941 0.64313725
v 0.13320781 0.02662664 0.00832401 0.54117647 0.42352941 0.64313725
v 0.13324120 0.02669803 0.00637618 0.54117647 0.42352941 0.64313725
v 0.13326245 0.02676049 0.00442590 0.54117647 0.42352941 0.64313725
v 0.13327460 0.02680214 0.00247563 0.54117647 0.42352941 0.64313725
v 0.13327763 0.02680511 0.00206504 0.54117647 0.42352941 0.64313725
v 0.13475306 0.02394959 0.00206504 0.54117647 0.42352941 0.64313725
v 0.13796804 0.01737595 0.00442590 0.54117647 0.42352941 0.64313725
v 0.12604925 0.01737595 0.01420905 0.54117647 0.42352941 0.64313725
v 0.12409720 0.01922311 0.01431169 0.54117647 0.42352941 0.64313725
v 0.12215121 0.02507395 0.01450843 0.54117647 0.42352941 0.64313725
v 0.12020219 0.02897352 0.01453654 0.54117647 0.42352941 0.64313725
v 0.12215121 0.02702225 0.01454143 0.54117647 0.42352941 0.64313725
v 0.12215121 0.02897352 0.01452187 0.54117647 0.42352941 0.64313725
v 0.12215121 0.03092479 0.01449988 0.54117647 0.42352941 0.64313725
v 0.12020219 0.03287011 0.01451821 0.54117647 0.42352941 0.64313725
v 0.12409720 0.03092479 0.01443511 0.54117647 0.42352941 0.64313725
v 0.12604925 0.02897352 0.01436668 0.54117647 0.42352941 0.64313725
v 0.12799828 0.02702225 0.01429092 0.54117647 0.42352941 0.64313725
v 0.12994730 0.02507395 0.01419561 0.54117647 0.42352941 0.64313725
v 0.12994730 0.02702225 0.01411496 0.54117647 0.42352941 0.64313725
v 0.12799828 0.03092479 0.01403919 0.54117647 0.42352941 0.64313725
v 0.13007177 0.02907168 0.01371537 0.54117647 0.42352941 0.64313725
v 0.13161398 0.02702225 0.01359439 0.54117647 0.42352941 0.64313725
v 0.13318959 0.02474676 0.01342210 0.54117647 0.42352941 0.64313725
v 0.13483199 0.02216489 0.01320703 0.54117647 0.42352941 0.64313725
v 0.13450412 0.02347962 0.01222456 0.54117647 0.42352941 0.64313725
v 0.13350836 0.02526729 0.01241763 0.54117647 0.42352941 0.64313725
v 0.13305905 0.02636191 0.01189707 0.54117647 0.42352941 0.64313725
v 0.13027213 0.03075227 0.01213291 0.54117647 0.42352941 0.64313725
v 0.13137111 0.02907168 0.01213291 0.54117647 0.42352941 0.64313725
v 0.13098859 0.03004137 0.01027428 0.54117647 0.42352941 0.64313725
v 0.13259153 0.02752791 0.01027428 0.54117647 0.42352941 0.64313725
v 0.13168077 0.02897352 0.01027428 0.54117647 0.42352941 0.64313725
v 0.13177185 0.02897352 0.00832401 0.54117647 0.42352941 0.64313725
v 0.13263707 0.02760228 0.00832401 0.54117647 0.42352941 0.64313725
v 0.13317138 0.02655228 0.01027428 0.54117647 0.42352941 0.64313725
v 0.13401535 0.02507395 0.01027428 0.54117647 0.42352941 0.64313725
v 0.13406999 0.02507395 0.00832401 0.54117647 0.42352941 0.64313725
v 0.13469234 0.02382764 0.01027428 0.54117647 0.42352941 0.64313725
v 0.13411553 0.02507395 0.00637618 0.54117647 0.42352941 0.64313725
v 0.13415196 0.02507395 0.00442590 0.54117647 0.42352941 0.64313725
v 0.13417928 0.02507395 0.00247563 0.54117647 0.42352941 0.64313725
v 0.13418232 0.02507395 0.00206504 0.54117647 0.42352941 0.64313725
v 0.13473788 0.02391687 0.00442590 0.54117647 0.42352941 0.64313725
v 0.13793464 0.01737595 0.00637618 0.54117647 0.42352941 0.64313725
v 0.13471056 0.02386036 0.00832401 0.54117647 0.42352941 0.64313725
v 0.12799828 0.01737595 0.01414795 0.54117647 0.42352941 0.64313725
v 0.12604925 0.01922311 0.01426770 0.54117647 0.42352941 0.64313725
v 0.12409720 0.02117438 0.01438501 0.54117647 0.42352941 0.64313725
v 0.12409720 0.02312268 0.01443267 0.54117647 0.42352941 0.64313725
v 0.12409720 0.02507395 0.01446200 0.54117647 0.42352941 0.64313725
v 0.12409720 0.02702225 0.01446566 0.54117647 0.42352941 0.64313725
v 0.12409720 0.02897352 0.01445100 0.54117647 0.42352941 0.64313725
v 0.12604925 0.02702225 0.01438257 0.54117647 0.42352941 0.64313725
v 0.12799828 0.02507395 0.01428970 0.54117647 0.42352941 0.64313725
v 0.12994730 0.02312268 0.01418339 0.54117647 0.42352941 0.64313725
v 0.13189935 0.02117438 0.01406608 0.54117647 0.42352941 0.64313725
v 0.13189935 0.02312268 0.01404897 0.54117647 0.42352941 0.64313725
v 0.13384230 0.02293826 0.01350641 0.54117647 0.42352941 0.64313725
v 0.13209365 0.02526729 0.01371171 0.54117647 0.42352941 0.64313725
v 0.13498682 0.02250398 0.01222456 0.54117647 0.42352941 0.64313725
v 0.13496557 0.02117438 0.01330112 0.54117647 0.42352941 0.64313725
v 0.13647136 0.01737595 0.01283188 0.54117647 0.42352941 0.64313725
v 0.13723336 0.01737595 0.01186041 0.54117647 0.42352941 0.64313725
v 0.13776463 0.01737595 0.01027428 0.54117647 0.42352941 0.64313725
v 0.13789821 0.01737595 0.00827513 0.54117647 0.42352941 0.64313725
v 0.13005051 0.01737595 0.01405019 0.54117647 0.42352941 0.64313725
v 0.12994730 0.01922311 0.01410762 0.54117647 0.42352941 0.64313725
v 0.12799828 0.01922311 0.01419438 0.54117647 0.42352941 0.64313725
v 0.12604925 0.02117438 0.01432147 0.54117647 0.42352941 0.64313725
v 0.12604925 0.02312268 0.01435569 0.54117647 0.42352941 0.64313725
v 0.12604925 0.02507395 0.01437768 0.54117647 0.42352941 0.64313725
v 0.12994730 0.02117438 0.01415528 0.54117647 0.42352941 0.64313725
v 0.12799828 0.02312268 0.01427015 0.54117647 0.42352941 0.64313725
v 0.13189935 0.01922311 0.01401231 0.54117647 0.42352941 0.64313725
v 0.13384837 0.01737595 0.01382779 0.54117647 0.42352941 0.64313725
v 0.13384837 0.01922311 0.01380702 0.54117647 0.42352941 0.64313725
v 0.13384837 0.02117438 0.01371171 0.54117647 0.42352941 0.64313725
v 0.13520237 0.01922311 0.01342576 0.54117647 0.42352941 0.64313725
v 0.13549684 0.01737595 0.01347342 0.54117647 0.42352941 0.64313725
v 0.13189935 0.01737595 0.01395854 0.54117647 0.42352941 0.64313725
v 0.12799828 0.02117438 0.01423960 0.54117647 0.42352941 0.64313725
f 1 2 3
f 1 3 4
f 1 4 5
f 1 5 6
f 1 6 7
f 1 7 8
f 1 8 9
f 1 9 2
f 2 9 10
f 2 10 11
f 2 11 12
f 2 12 13
f 2 13 3
f 3 13 4
f 4 14 15
f 4 15 5
f 4 13 16
f 4 16 14
f 5 17 6
f 5 15 17
f 6 17 18
f 6 18 19
f 6 19 20
f 6 20 7
f 7 20 8
f 8 21 9
f 8 20 22
f 8 22 21
f 9 21 10
f 10 23 11
f 10 21 24
f 10 24 25
f 10 25 23
f 11 23 26
f 11 26 27
f 11 27 12
f 12 27 28
f 12 28 13
f 13 28 29
f 13 29 30
f 13 30 16
f 14 16 31
f 14 31 32
f 14 32 33
f 14 33 15
f 15 33 34
f 15 34 35
f 15 35 36
f 15 36 17
f 16 30 31
f 17 36 18
f 18 36 19
f 19 37 20
f 19 36 38
f 19 38 39
f 19 39 40
f 19 40 37
f 20 37 41
f 20 41 22
f 21 22 42
f 21 42 24
f 22 41 42
f 23 25 43
f 23 43 44
f 23 44 26
f 24 45 25
f 24 42 45
f 25 45 46
f 25 46 43
f 26 44 47
f 26 47 27
f 27 48 28
f 27 47 49
f 27 49 50
f 27 50 51
f 27 51 48
f 28 48 29
f 29 48 52
f 29 52 53
f 29 53 30
f 30 53 31
f 31 53 54
f 31 54 55
f 31 55 56
f 31 56 57
f 31 57 58
f 31 58 32
f 32 58 33
f 33 59 34
f 33 58 60
f 33 60 61
f 33 61 59
f 34 62 35
f 34 59 63
f 34 63 62
f 35 62 36
f 36 64 65
f 36 65 66
f 36 66 38
f 36 62 64
f 37 40 41
f 38 66 39
f 39 66 67
f 39 67 68
f 39 68 69
f 39 69 70
f 39 70 41
f 39 41 40
f 41 70 42
f 42 70 69
f 42 69 71
f 42 71 72
f 42 72 45
f 43 46 73
f 43 73 74
f 43 74 75
f 43 75 44
f 44 75 76
f 44 76 47
f 45 77 46
f 45 72 78
f 45 78 77
f 46 77 73
f 47 76 79
f 47 79 49
f 48 51 80
f 48 80 81
f 48 81 52
f 49 79 82
f 49 82 83
f 49 83 50
f 50 80 51
f 50 83 80
f 52 81 54
f 52 54 53
f 54 81 55
f 55 81 80
f 55 80 84
f 55 84 85
f 55 85 56
f 56 85 57
f 57 85 86
f 57 86 87
f 57 87 88
f 57 88 89
f 57 89 90
f 57 90 91
f 57 91 131
f 57 131 175
f 57 175 217
f 57 217 255
f 57 255 218
f 57 218 179
f 57 179 136
f 57 136 104
f 57 104 103
f 57 103 102
f 57 102 98
f 57 98 97
f 57 97 96
f 57 96 99
f 57 99 94
f 57 94 93
f 57 93 92
f 57 92 61
f 57 61 60
f 57 60 58
f 59 61 92
f 59 92 93
f 59 93 94
f 59 94 63
f 62 95 64
f 62 63 96
f 62 96 97
f 62 97 98
f 62 98 95
f 63 94 99
f 63 99 96
f 64 95 65
f 65 100 101
f 65 101 67
f 65 67 66
f 65 95 102
f 65 102 103
f 65 103 104
f 65 104 100
f 67 101 105
f 67 105 68
f 68 105 69
f 69 105 106
f 69 106 107
f 69 107 71
f 71 107 78
f 71 78 72
f 73 108 109
f 73 109 74
f 73 77 108
f 74 109 75
f 75 109 110
f 75 110 111
f 75 111 76
f 76 111 112
f 76 112 113
f 76 113 79
f 77 78 114
f 77 114 108
f 78 107 115
f 78 115 114
f 79 113 116
f 79 116 82
f 80 83 117
f 80 117 84
f 82 116 118
f 82 118 119
f 82 119 83
f 83 119 117
f 84 117 120
f 84 120 85
f 85 120 86
f 86 120 121
f 86 121 87
f 87 121 122
f 87 122 123
f 87 123 124
f 87 124 88
f 88 124 125
f 88 125 89
f 89 125 126
f 89 126 127
f 89 127 90
f 90 128 129
f 90 129 91
f 90 127 128
f 91 129 130
f 91 130 131
f 95 98 102
f 100 132 101
f 100 104 132
f 101 132 133
f 101 133 105
f 104 134 135
f 104 135 133
f 104 133 132
f 104 136 180
f 104 180 219
f 104 219 257
f 104 257 278
f 104 278 277
f 104 277 276
f 104 276 275
f 104 275 292
f 104 292 288
f 104 288 293
f 104 293 279
f 104 279 259
f 104 259 220
f 104 220 184
f 104 184 152
f 104 152 183
f 104 183 182
f 104 182 181
f 104 181 178
f 104 178 177
f 104 177 176
f 104 176 134
f 105 133 135
f 105 135 137
f 105 137 106
f 106 137 107
f 107 138 115
f 107 137 139
f 107 139 138
f 108 140 141
f 108 141 142
f 108 142 109
f 108 114 140
f 109 142 143
f 109 143 144
f 109 144 110
f 110 144 145
f 110 145 111
f 111 145 146
f 111 146 147
f 111 147 112
f 112 147 148
f 112 148 113
f 113 148 149
f 113 149 150
f 113 150 116
f 114 115 138
f 114 138 151
f 114 151 152
f 114 152 140
f 116 150 153
f 116 153 118
f 117 119 154
f 117 154 120
f 118 153 155
f 118 155 156
f 118 156 157
f 118 157 158
f 118 158 159
f 118 159 160
f 118 160 119
f 119 160 161
f 119 161 154
f 120 154 121
f 121 161 122
f 121 154 161
f 122 161 162
f 122 162 123
f 123 162 124
f 124 163 125
f 124 162 164
f 124 164 163
f 125 163 165
f 125 165 126
f 126 166 167
f 126 167 127
f 126 165 166
f 127 167 128
f 128 168 169
f 128 169 129
f 128 167 168
f 129 169 168
f 129 168 170
f 129 170 171
f 129 171 172
f 129 172 130
f 130 172 173
f 130 173 174
f 130 174 131
f 131 174 175
f 134 176 135
f 135 176 177
f 135 177 178
f 135 178 137
f 136 179 180
f 137 178 181
f 137 181 182
f 137 182 183
f 137 183 139
f 138 139 183
f 138 183 152
f 138 152 151
f 140 152 184
f 140 184 141
f 141 185 142
f 141 184 186
f 141 186 185
f 142 185 187
f 142 187 143
f 143 187 188
f 143 188 189
f 143 189 190
f 143 190 144
f 144 190 146
f 144 146 145
f 146 190 191
f 146 191 147
f 147 191 192
f 147 192 193
f 147 193 148
f 148 193 149
f 149 193 194
f 149 194 195
f 149 195 196
f 149 196 150
f 150 196 197
f 150 197 198
f 150 198 153
f 153 198 155
f 155 198 197
f 155 197 199
f 155 199 156
f 156 199 157
f 157 200 201
f 157 201 202
f 157 202 203
f 157 203 204
f 157 204 158
f 157 199 200
f 158 205 166
f 158 166 165
f 158 165 206
f 158 206 159
f 158 204 207
f 158 207 205
f 159 162 161
f 159 161 160
f 159 206 165
f 159 165 162
f 162 165 164
f 163 164 165
f 166 205 167
f 167 205 168
f 168 207 204
f 168 204 170
f 168 205 207
f 170 204 208
f 170 208 209
f 170 209 210
f 170 210 171
f 171 210 172
f 172 211 173
f 172 210 211
f 173 212 213
f 173 213 214
f 173 214 215
f 173 215 174
f 173 211 212
f 174 215 216
f 174 216 217
f 174 217 175
f 179 218 180
f 180 218 219
f 184 220 221
f 184 221 222
f 184 222 186
f 185 186 223
f 185 223 187
f 186 222 223
f 187 223 188
f 188 223 224
f 188 224 225
f 188 225 226
f 188 226 192
f 188 192 227
f 188 227 189
f 189 227 192
f 189 192 191
f 189 191 190
f 192 226 228
f 192 228 193
f 193 228 194
f 194 229 230
f 194 230 195
f 194 228 229
f 195 230 231
f 195 231 232
f 195 232 196
f 196 232 233
f 196 233 197
f 197 233 199
f 199 233 200
f 200 234 201
f 200 233 234
f 201 235 236
f 201 236 202
f 201 234 235
f 202 236 237
f 202 237 238
f 202 238 239
f 202 239 240
f 202 240 203
f 203 208 241
f 203 241 204
f 203 240 242
f 203 242 208
f 204 241 208
f 208 243 209
f 208 242 240
f 208 240 244
f 208 244 245
f 208 245 243
f 209 243 210
f 210 243 211
f 211 246 212
f 211 243 246
f 212 247 248
f 212 248 213
f 212 246 247
f 213 248 249
f 213 249 214
f 214 249 215
f 215 249 250
f 215 250 251
f 215 251 252
f 215 252 253
f 215 253 216
f 216 253 254
f 216 254 217
f 217 254 255
f 218 255 254
f 218 254 256
f 218 256 219
f 219 256 258
f 219 258 257
f 220 259 260
f 220 260 261
f 220 261 221
f 221 261 222
f 222 261 262
f 222 262 224
f 222 224 223
f 224 262 263
f 224 263 264
f 224 264 265
f 224 265 228
f 224 228 225
f 225 228 226
f 228 265 266
f 228 266 229
f 229 266 230
f 230 267 231
f 230 266 267
f 231 268 269
f 231 269 270
f 231 270 232
f 231 267 268
f 232 270 271
f 232 271 272
f 232 272 235
f 232 235 233
f 233 235 234
f 235 272 271
f 235 271 236
f 236 271 237
f 237 273 238
f 237 271 274
f 237 274 275
f 237 275 276
f 237 276 277
f 237 277 273
f 238 273 251
f 238 251 240
f 238 240 239
f 240 251 249
f 240 249 248
f 240 248 244
f 243 245 246
f 244 248 247
f 244 247 245
f 245 247 246
f 249 251 250
f 251 258 253
f 251 253 252
f 251 273 277
f 251 277 278
f 251 278 257
f 251 257 258
f 253 258 256
f 253 256 254
f 259 279 280
f 259 280 281
f 259 281 282
f 259 282 260
f 260 282 261
f 261 282 262
f 262 282 283
f 262 283 263
f 263 283 284
f 263 284 266
f 263 266 264
f 264 266 265
f 266 284 267
f 267 284 268
f 268 285 269
f 268 284 286
f 268 286 285
f 269 285 280
f 269 280 287
f 269 287 288
f 269 288 270
f 270 288 289
f 270 289 290
f 270 290 271
f 271 290 274
f 274 290 291
f 274 291 275
f 275 291 292
f 279 293 287
f 279 287 280
f 280 285 281
f 281 285 294
f 281 294 282
f 282 294 283
f 283 294 285
f 283 285 286
f 283 286 284
f 287 293 288
f 288 292 289
f 289 292 290
f 290 292 291

