# https://github.com/mikedh/trimesh
v 0.10683132 -0.01101603 -0.00055942 0.38039216 0.78823529 0.52549020
v 0.10683132 -0.01101603 -0.00030075 0.38039216 0.78823529 0.52549020
v 0.10683132 -0.01089341 -0.00153441 0.38039216 0.78823529 0.52549020
v 0.11635025 -0.02303696 -0.00142356 0.38039216 0.78823529 0.52549020
v 0.10683132 -0.01092505 0.00067139 0.38039216 0.78823529 0.52549020
v 0.11635747 -0.02303696 -0.00086358 0.38039216 0.78823529 0.52549020
v 0.11637912 -0.02303696 0.00052358 0.38039216 0.78823529 0.52549020
v 0.10683132 -0.01059674 -0.00312623 0.38039216 0.78823529 0.52549020
v 0.11660284 -0.02303696 -0.00281071 0.38039216 0.78823529 0.52549020
v 0.10683132 -0.01054928 -0.00337353 0.38039216 0.78823529 0.52549020
v 0.10683132 -0.01064025 0.00247356 0.38039216 0.78823529 0.52549020
v 0.11668223 -0.02303696 0.00249914 0.38039216 0.78823529 0.52549020
v 0.11669666 -0.02303696 -0.00312623 0.38039216 0.78823529 0.52549020
v 0.10683132 -0.00990848 -0.00504210 0.38039216 0.78823529 0.52549020
v 0.10683132 -0.00982936 0.00442354 0.38039216 0.78823529 0.52549020
v 0.11711523 -0.02303696 0.00342012 0.38039216 0.78823529 0.52549020
v 0.11773226 -0.02303696 -0.00532635 0.38039216 0.78823529 0.52549020
v 0.10683132 -0.00979772 -0.00532351 0.38039216 0.78823529 0.52549020
v 0.10683132 -0.00913714 0.00548665 0.38039216 0.78823529 0.52549020
v 0.11849364 -0.02303696 0.00617454 0.38039216 0.78823529 0.52549020
v 0.11840703 -0.02303696 -0.00675046 0.38039216 0.78823529 0.52549020
v 0.10683132 -0.00916483 -0.00642926 0.38039216 0.78823529 0.52549020
v 0.10683132 -0.00807706 0.00613759 0.38039216 0.78823529 0.52549020
v 0.11864880 -0.02303696 0.00645027 0.38039216 0.78823529 0.52549020
v 0.11530021 -0.01300172 0.01129110 0.38039216 0.78823529 0.52549020
v 0.11719100 -0.01305314 0.01326098 0.38039216 0.78823529 0.52549020
v 0.12018958 -0.02303696 -0.00856969 0.38039216 0.78823529 0.52549020
v 0.10683132 -0.00807706 -0.00717400 0.38039216 0.78823529 0.52549020
v 0.11673635 -0.01346452 -0.01264304 0.38039216 0.78823529 0.52549020
v 0.10683132 -0.00612697 0.00699035 0.38039216 0.78823529 0.52549020
v 0.12043495 -0.02303696 0.00809894 0.38039216 0.78823529 0.52549020
v 0.11844673 -0.01379283 0.01344290 0.38039216 0.78823529 0.52549020
v 0.11825188 -0.01197723 0.01381243 0.38039216 0.78823529 0.52549020
v 0.11713688 -0.01197723 0.01329793 0.38039216 0.78823529 0.52549020
v 0.10683132 -0.00194990 0.00779478 0.38039216 0.78823529 0.52549020
v 0.10683132 -0.00223074 0.00777489 0.38039216 0.78823529 0.52549020
v 0.10683132 -0.00374572 0.00755033 0.38039216 0.78823529 0.52549020
v 0.10683132 -0.00400679 0.00751053 0.38039216 0.78823529 0.52549020
v 0.10683132 -0.00497986 0.00731440 0.38039216 0.78823529 0.52549020
v 0.12102673 -0.02303696 0.00847983 0.38039216 0.78823529 0.52549020
v 0.11922614 -0.01490039 0.01319844 0.38039216 0.78823529 0.52549020
v 0.12059733 -0.02303696 -0.00881699 0.38039216 0.78823529 0.52549020
v 0.11882200 -0.01328652 -0.01430308 0.38039216 0.78823529 0.52549020
v 0.10683132 -0.00612697 -0.00796707 0.38039216 0.78823529 0.52549020
v 0.12020041 -0.01392732 0.01390623 0.38039216 0.78823529 0.52549020
v 0.12020041 -0.01197723 0.01426724 0.38039216 0.78823529 0.52549020
v 0.11825188 -0.01002714 0.01381811 0.38039216 0.78823529 0.52549020
v 0.11712967 -0.01002714 0.01330077 0.38039216 0.78823529 0.52549020
v 0.10683132 -0.00028066 0.00789712 0.38039216 0.78823529 0.52549020
v 0.12301134 -0.02303696 0.00962253 0.38039216 0.78823529 0.52549020
v 0.12407221 -0.02303696 0.00999206 0.38039216 0.78823529 0.52549020
v 0.12474337 -0.02303696 0.01021662 0.38039216 0.78823529 0.52549020
v 0.12020041 -0.01512981 0.01337468 0.38039216 0.78823529 0.52549020
v 0.12214172 -0.02303696 -0.00964701 0.38039216 0.78823529 0.52549020
v 0.12034114 -0.01393128 -0.01438551 0.38039216 0.78823529 0.52549020
v 0.12108085 -0.01494785 -0.01413537 0.38039216 0.78823529 0.52549020
v 0.12409025 -0.02303696 -0.01060494 0.38039216 0.78823529 0.52549020
v 0.11764566 -0.01197723 -0.01387101 0.38039216 0.78823529 0.52549020
v 0.11861993 -0.01197723 -0.01440257 0.38039216 0.78823529 0.52549020
v 0.12020041 -0.01197723 -0.01476073 0.38039216 0.78823529 0.52549020
v 0.10683132 -0.00469506 -0.00819731 0.38039216 0.78823529 0.52549020
v 0.12215255 -0.01392732 0.01416775 0.38039216 0.78823529 0.52549020
v 0.12215255 -0.01558074 0.01363051 0.38039216 0.78823529 0.52549020
v 0.12410108 -0.01392732 0.01421038 0.38039216 0.78823529 0.52549020
v 0.12215255 -0.01197723 0.01427008 0.38039216 0.78823529 0.52549020
v 0.12020041 0.00556961 0.01425587 0.38039216 0.78823529 0.52549020
v 0.11825188 0.00946979 0.01382380 0.38039216 0.78823529 0.52549020
v 0.11711162 0.00946979 0.01331214 0.38039216 0.78823529 0.52549020
v 0.10683132 0.00000019 0.00789712 0.38039216 0.78823529 0.52549020
v 0.12611816 -0.02303696 0.01057478 0.38039216 0.78823529 0.52549020
v 0.12215255 -0.01392732 -0.01459018 0.38039216 0.78823529 0.52549020
v 0.12215255 -0.01518519 -0.01425476 0.38039216 0.78823529 0.52549020
v 0.12600270 -0.02303696 -0.01103132 0.38039216 0.78823529 0.52549020
v 0.10683132 -0.00386043 -0.00829112 0.38039216 0.78823529 0.52549020
v 0.10683132 -0.00372199 -0.00830533 0.38039216 0.78823529 0.52549020
v 0.10683132 -0.00223074 -0.00841335 0.38039216 0.78823529 0.52549020
v 0.10683132 -0.00028066 -0.00844177 0.38039216 0.78823529 0.52549020
v 0.11864880 0.00946979 -0.01437414 0.38039216 0.78823529 0.52549020
v 0.12020041 -0.01002714 -0.01475504 0.38039216 0.78823529 0.52549020
v 0.12215255 -0.01197723 -0.01476925 0.38039216 0.78823529 0.52549020
v 0.12410108 -0.01392732 -0.01463281 0.38039216 0.78823529 0.52549020
v 0.12396035 -0.01604354 0.01370441 0.38039216 0.78823529 0.52549020
v 0.12604961 -0.01587741 0.01394887 0.38039216 0.78823529 0.52549020
v 0.12451965 -0.01704825 0.01336615 0.38039216 0.78823529 0.52549020
v 0.12799814 -0.01392732 0.01411374 0.38039216 0.78823529 0.52549020
v 0.12604961 0.01736903 0.01420754 0.38039216 0.78823529 0.52549020
v 0.12410108 0.01736903 0.01423597 0.38039216 0.78823529 0.52549020
v 0.12020041 0.00946979 0.01425018 0.38039216 0.78823529 0.52549020
v 0.12020041 0.01141988 0.01424165 0.38039216 0.78823529 0.52549020
v 0.11825188 0.01141988 0.01380959 0.38039216 0.78823529 0.52549020
v 0.11712606 0.01141988 0.01330077 0.38039216 0.78823529 0.52549020
v 0.10683132 0.00166943 0.00788575 0.38039216 0.78823529 0.52549020
v 0.12686510 -0.02303696 0.01064585 0.38039216 0.78823529 0.52549020
v 0.12604961 -0.01717879 0.01346280 0.38039216 0.78823529 0.52549020
v 0.12410108 -0.01554119 -0.01434287 0.38039216 0.78823529 0.52549020
v 0.12799814 -0.02303696 -0.01111091 0.38039216 0.78823529 0.52549020
v 0.12604961 -0.01665270 -0.01402451 0.38039216 0.78823529 0.52549020
v 0.10683132 0.00166943 -0.00836218 0.38039216 0.78823529 0.52549020
v 0.11768896 0.01141988 -0.01387954 0.38039216 0.78823529 0.52549020
v 0.11866684 0.01141988 -0.01435140 0.38039216 0.78823529 0.52549020
v 0.12020041 0.00946979 -0.01467829 0.38039216 0.78823529 0.52549020
v 0.12020041 0.00751970 -0.01468966 0.38039216 0.78823529 0.52549020
v 0.12215255 -0.01002714 -0.01476073 0.38039216 0.78823529 0.52549020
v 0.12994667 -0.01197723 -0.01438835 0.38039216 0.78823529 0.52549020
v 0.12994667 -0.01392732 -0.01438267 0.38039216 0.78823529 0.52549020
v 0.12799814 -0.01392732 -0.01447079 0.38039216 0.78823529 0.52549020
v 0.12604961 -0.01392732 -0.01455322 0.38039216 0.78823529 0.52549020
v 0.12994667 -0.01530385 -0.01422917 0.38039216 0.78823529 0.52549020
v 0.12799814 -0.01555701 -0.01427181 0.38039216 0.78823529 0.52549020
v 0.12604961 -0.01567963 -0.01431161 0.38039216 0.78823529 0.52549020
v 0.12799814 -0.01712341 0.01341447 0.38039216 0.78823529 0.52549020
v 0.12799814 -0.01587741 0.01387497 0.38039216 0.78823529 0.52549020
v 0.12994667 -0.01392732 0.01405404 0.38039216 0.78823529 0.52549020
v 0.13189881 -0.01197723 0.01400856 0.38039216 0.78823529 0.52549020
v 0.12615064 0.01736903 0.01420470 0.38039216 0.78823529 0.52549020
v 0.13797895 0.01737299 -0.00337353 0.38039216 0.78823529 0.52549020
v 0.12215255 0.01736903 0.01387781 0.38039216 0.78823529 0.52549020
v 0.12020041 0.01336996 0.01398582 0.38039216 0.78823529 0.52549020
v 0.11719461 0.01250370 0.01325529 0.38039216 0.78823529 0.52549020
v 0.10683132 0.00361952 0.00773793 0.38039216 0.78823529 0.52549020
v 0.10683132 0.00195028 0.00786585 0.38039216 0.78823529 0.52549020
v 0.12799092 -0.02303696 0.01070554 0.38039216 0.78823529 0.52549020
v 0.13003688 -0.02303696 -0.01073570 0.38039216 0.78823529 0.52549020
v 0.12799814 -0.01653008 -0.01397619 0.38039216 0.78823529 0.52549020
v 0.13140807 -0.01507048 -0.01416948 0.38039216 0.78823529 0.52549020
v 0.10683132 0.00268601 -0.00829112 0.38039216 0.78823529 0.52549020
v 0.11668944 0.01302188 -0.01265441 0.38039216 0.78823529 0.52549020
v 0.11886530 0.01278059 -0.01425476 0.38039216 0.78823529 0.52549020
v 0.10683132 0.00287192 -0.00827691 0.38039216 0.78823529 0.52549020
v 0.10683132 0.00370654 -0.00816889 0.38039216 0.78823529 0.52549020
v 0.10683132 0.00384499 -0.00814899 0.38039216 0.78823529 0.52549020
v 0.10683132 0.00556961 -0.00771124 0.38039216 0.78823529 0.52549020
v 0.12020041 0.01141988 -0.01462997 0.38039216 0.78823529 0.52549020
v 0.12215255 0.00946979 -0.01464987 0.38039216 0.78823529 0.52549020
v 0.12215255 0.00751970 -0.01466692 0.38039216 0.78823529 0.52549020
v 0.12215255 0.01141988 -0.01460439 0.38039216 0.78823529 0.52549020
v 0.13189881 -0.01197723 -0.01428887 0.38039216 0.78823529 0.52549020
v 0.13496233 -0.01301359 -0.01411263 0.38039216 0.78823529 0.52549020
v 0.12938015 -0.01697705 0.01330077 0.38039216 0.78823529 0.52549020
v 0.13189881 -0.01554514 0.01354807 0.38039216 0.78823529 0.52549020
v 0.12999719 -0.01600794 0.01360208 0.38039216 0.78823529 0.52549020
v 0.12873786 -0.02303696 0.01061742 0.38039216 0.78823529 0.52549020
v 0.13189881 -0.01392732 0.01395456 0.38039216 0.78823529 0.52549020
v 0.13579948 -0.01197723 0.01386360 0.38039216 0.78823529 0.52549020
v 0.13384734 -0.01197723 0.01394887 0.38039216 0.78823529 0.52549020
v 0.12799814 0.01736903 0.01414785 0.38039216 0.78823529 0.52549020
v 0.14164868 0.01568001 -0.00922347 0.38039216 0.78823529 0.52549020
v 0.13797534 0.01736903 -0.00728486 0.38039216 0.78823529 0.52549020
v 0.13796812 0.01736903 -0.00922347 0.38039216 0.78823529 0.52549020
v 0.13776245 0.01736903 -0.01108817 0.38039216 0.78823529 0.52549020
v 0.13771193 0.01736903 -0.01130705 0.38039216 0.78823529 0.52549020
v 0.13711655 0.01736903 -0.01240711 0.38039216 0.78823529 0.52549020
v 0.13707685 0.01736903 -0.01244406 0.38039216 0.78823529 0.52549020
v 0.13580309 0.01736903 -0.01322576 0.38039216 0.78823529 0.52549020
v 0.13569845 0.01736903 -0.01328261 0.38039216 0.78823529 0.52549020
v 0.13384734 0.01736903 -0.01389944 0.38039216 0.78823529 0.52549020
v 0.13377878 0.01736903 -0.01391081 0.38039216 0.78823529 0.52549020
v 0.13212975 0.01736903 -0.01405294 0.38039216 0.78823529 0.52549020
v 0.13107249 0.01736903 -0.01411831 0.38039216 0.78823529 0.52549020
v 0.12994667 0.01736903 -0.01418085 0.38039216 0.78823529 0.52549020
v 0.12789711 0.01736903 -0.01428602 0.38039216 0.78823529 0.52549020
v 0.12604961 0.01736903 -0.01436277 0.38039216 0.78823529 0.52549020
v 0.12410108 0.01736903 -0.01441962 0.38039216 0.78823529 0.52549020
v 0.12263607 0.01736903 -0.01427181 0.38039216 0.78823529 0.52549020
v 0.12258555 0.01736903 -0.01425191 0.38039216 0.78823529 0.52549020
v 0.12166181 0.01736903 -0.01385396 0.38039216 0.78823529 0.52549020
v 0.12159685 0.01736903 -0.01379995 0.38039216 0.78823529 0.52549020
v 0.12049629 0.01736903 -0.01287044 0.38039216 0.78823529 0.52549020
v 0.11957255 0.01736903 -0.01117345 0.38039216 0.78823529 0.52549020
v 0.11928387 0.01736903 -0.00925189 0.38039216 0.78823529 0.52549020
v 0.11920449 0.01736903 -0.00727349 0.38039216 0.78823529 0.52549020
v 0.11919005 0.01736903 -0.00632408 0.38039216 0.78823529 0.52549020
v 0.11912150 0.01736903 0.00637352 0.38039216 0.78823529 0.52549020
v 0.11922253 0.01736903 0.00832350 0.38039216 0.78823529 0.52549020
v 0.11932718 0.01736903 0.01017967 0.38039216 0.78823529 0.52549020
v 0.11936687 0.01736903 0.01034738 0.38039216 0.78823529 0.52549020
v 0.12005246 0.01736903 0.01222345 0.38039216 0.78823529 0.52549020
v 0.12094013 0.01736903 0.01335478 0.38039216 0.78823529 0.52549020
v 0.13004771 0.01736903 0.01405120 0.38039216 0.78823529 0.52549020
v 0.13189881 0.01736903 0.01395740 0.38039216 0.78823529 0.52549020
v 0.13384734 0.01736903 0.01382664 0.38039216 0.78823529 0.52549020
v 0.13549638 0.01736903 0.01347133 0.38039216 0.78823529 0.52549020
v 0.13647064 0.01736903 0.01283175 0.38039216 0.78823529 0.52549020
v 0.13723201 0.01736903 0.01185961 0.38039216 0.78823529 0.52549020
v 0.13776605 0.01736903 0.01027347 0.38039216 0.78823529 0.52549020
v 0.13789957 0.01736903 0.00827233 0.38039216 0.78823529 0.52549020
v 0.13796812 0.01736903 0.00442354 0.38039216 0.78823529 0.52549020
v 0.13798256 0.01736903 0.00246503 0.38039216 0.78823529 0.52549020
v 0.13798617 0.01736903 0.00052358 0.38039216 0.78823529 0.52549020
v 0.14164868 0.01568001 -0.00532351 0.38039216 0.78823529 0.52549020
v 0.11524247 0.01251952 0.01137069 0.38039216 0.78823529 0.52549020
v 0.10683132 0.00597308 0.00712110 0.38039216 0.78823529 0.52549020
v 0.10683132 0.00513845 0.00743378 0.38039216 0.78823529 0.52549020
v 0.10683132 0.00500001 0.00748495 0.38039216 0.78823529 0.52549020
v 0.10683132 0.00382125 0.00770098 0.38039216 0.78823529 0.52549020
v 0.13115187 -0.02303696 -0.01026952 0.38039216 0.78823529 0.52549020
v 0.13271070 -0.01469470 -0.01406999 0.38039216 0.78823529 0.52549020
v 0.13969654 -0.01197723 -0.01340484 0.38039216 0.78823529 0.52549020
v 0.13969654 -0.01340123 -0.01261461 0.38039216 0.78823529 0.52549020
v 0.14094865 -0.01310852 -0.01232467 0.38039216 0.78823529 0.52549020
v 0.10683132 0.00694219 -0.00696365 0.38039216 0.78823529 0.52549020
v 0.10683132 0.00717556 -0.00683574 0.38039216 0.78823529 0.52549020
v 0.13384734 -0.01197723 -0.01418085 0.38039216 0.78823529 0.52549020
v 0.13495873 -0.01197723 -0.01411263 0.38039216 0.78823529 0.52549020
v 0.13969654 -0.01002714 -0.01371467 0.38039216 0.78823529 0.52549020
v 0.13774801 -0.01197723 -0.01379427 0.38039216 0.78823529 0.52549020
v 0.12994667 -0.02303696 0.01043834 0.38039216 0.78823529 0.52549020
v 0.13384734 -0.01516541 0.01337184 0.38039216 0.78823529 0.52549020
v 0.13774801 -0.01332212 0.01340879 0.38039216 0.78823529 0.52549020
v 0.13384734 -0.01392732 0.01374705 0.38039216 0.78823529 0.52549020
v 0.13774801 -0.01197723 0.01369589 0.38039216 0.78823529 0.52549020
v 0.13969654 -0.01002714 0.01366177 0.38039216 0.78823529 0.52549020
v 0.13774801 -0.01002714 0.01376979 0.38039216 0.78823529 0.52549020
v 0.13579948 -0.01002714 0.01386644 0.38039216 0.78823529 0.52549020
v 0.13579948 -0.00807706 0.01386075 0.38039216 0.78823529 0.52549020
v 0.14298740 0.01479792 -0.00922347 0.38039216 0.78823529 0.52549020
v 0.14288636 0.01467530 -0.01117345 0.38039216 0.78823529 0.52549020
v 0.14164868 0.01545850 -0.01117345 0.38039216 0.78823529 0.52549020
v 0.14273120 0.01448147 -0.01228488 0.38039216 0.78823529 0.52549020
v 0.14164868 0.01479001 -0.01256345 0.38039216 0.78823529 0.52549020
v 0.14164868 0.01336996 -0.01313195 0.38039216 0.78823529 0.52549020
v 0.13969654 0.01336996 -0.01350717 0.38039216 0.78823529 0.52549020
v 0.13969654 0.01141988 -0.01364077 0.38039216 0.78823529 0.52549020
v 0.13969654 0.00946979 -0.01365782 0.38039216 0.78823529 0.52549020
v 0.10683132 0.00801019 -0.00574137 0.38039216 0.78823529 0.52549020
v 0.10683132 0.00814863 -0.00555944 0.38039216 0.78823529 0.52549020
v 0.10683132 0.00852045 -0.00472374 0.38039216 0.78823529 0.52549020
v 0.10683132 0.00857979 -0.00458445 0.38039216 0.78823529 0.52549020
v 0.10683132 0.00875779 -0.00337353 0.38039216 0.78823529 0.52549020
v 0.10683132 0.00885272 -0.00170497 0.38039216 0.78823529 0.52549020
v 0.10683132 0.00886854 -0.00142356 0.38039216 0.78823529 0.52549020
v 0.10683132 0.00886063 0.00052358 0.38039216 0.78823529 0.52549020
v 0.10683132 0.00877756 0.00247356 0.38039216 0.78823529 0.52549020
v 0.10683132 0.00861143 0.00382945 0.38039216 0.78823529 0.52549020
v 0.10683132 0.00827916 0.00480444 0.38039216 0.78823529 0.52549020
v 0.10683132 0.00744454 0.00595566 0.38039216 0.78823529 0.52549020
v 0.10683132 0.00730214 0.00614611 0.38039216 0.78823529 0.52549020
v 0.13774801 0.00556961 0.01371863 0.38039216 0.78823529 0.52549020
v 0.13969654 0.00946979 0.01358503 0.38039216 0.78823529 0.52549020
v 0.13969654 0.01141988 0.01356229 0.38039216 0.78823529 0.52549020
v 0.13384734 0.01727014 0.01382948 0.38039216 0.78823529 0.52549020
v 0.13774801 0.00751970 0.01370726 0.38039216 0.78823529 0.52549020
v 0.13969654 0.01336996 0.01348554 0.38039216 0.78823529 0.52549020
v 0.14086205 0.01443401 0.01325245 0.38039216 0.78823529 0.52549020
v 0.14156569 0.01482165 0.01223767 0.38039216 0.78823529 0.52549020
v 0.14279976 0.01454872 0.01159810 0.38039216 0.78823529 0.52549020
v 0.14164868 0.01546245 0.01027347 0.38039216 0.78823529 0.52549020
v 0.14164868 0.01556134 0.00832350 0.38039216 0.78823529 0.52549020
v 0.14164868 0.01563254 0.00637352 0.38039216 0.78823529 0.52549020
v 0.14164868 0.01566023 0.00442354 0.38039216 0.78823529 0.52549020
v 0.14164868 0.01566814 0.00247356 0.38039216 0.78823529 0.52549020
v 0.10683132 0.00616690 0.00697898 0.38039216 0.78823529 0.52549020
v 0.13189881 -0.02303696 -0.00991989 0.38039216 0.78823529 0.52549020
v 0.14164868 -0.01002714 -0.01326840 0.38039216 0.78823529 0.52549020
v 0.14161621 -0.01197328 -0.01269420 0.38039216 0.78823529 0.52549020
v 0.14282140 -0.01132061 -0.01238153 0.38039216 0.78823529 0.52549020
v 0.14224768 -0.01262199 -0.01177038 0.38039216 0.78823529 0.52549020
v 0.13360919 -0.02303696 -0.00897617 0.38039216 0.78823529 0.52549020
v 0.13304628 -0.02303696 -0.00932296 0.38039216 0.78823529 0.52549020
v 0.13969654 0.00556961 -0.01367488 0.38039216 0.78823529 0.52549020
v 0.14164868 -0.00807706 -0.01328545 0.38039216 0.78823529 0.52549020
v 0.14164868 0.00946979 -0.01329682 0.38039216 0.78823529 0.52549020
v 0.14164868 0.00751970 -0.01329682 0.38039216 0.78823529 0.52549020
v 0.13048432 -0.02303696 0.01026210 0.38039216 0.78823529 0.52549020
v 0.14034605 -0.01272879 0.01308190 0.38039216 0.78823529 0.52549020
v 0.13904342 -0.01306501 0.01327803 0.38039216 0.78823529 0.52549020
v 0.13969654 -0.01203657 0.01343153 0.38039216 0.78823529 0.52549020
v 0.14118320 -0.01142741 0.01333773 0.38039216 0.78823529 0.52549020
v 0.14142857 -0.01002714 0.01340310 0.38039216 0.78823529 0.52549020
v 0.14139249 -0.00612697 0.01339742 0.38039216 0.78823529 0.52549020
v 0.13969654 0.00556961 0.01361061 0.38039216 0.78823529 0.52549020
v 0.14298379 0.01479396 -0.00727349 0.38039216 0.78823529 0.52549020
v 0.14346370 0.01336996 -0.00142356 0.38039216 0.78823529 0.52549020
v 0.14347814 0.01336996 -0.00727349 0.38039216 0.78823529 0.52549020
v 0.14348174 0.01336996 -0.00922347 0.38039216 0.78823529 0.52549020
v 0.14332658 0.01336996 -0.01117345 0.38039216 0.78823529 0.52549020
v 0.14289358 0.01336996 -0.01246396 0.38039216 0.78823529 0.52549020
v 0.14300544 0.01141988 -0.01257198 0.38039216 0.78823529 0.52549020
v 0.14164868 0.01141988 -0.01329114 0.38039216 0.78823529 0.52549020
v 0.14122650 0.01141988 0.01335478 0.38039216 0.78823529 0.52549020
v 0.13969654 0.00751970 0.01359924 0.38039216 0.78823529 0.52549020
v 0.14108577 0.01336996 0.01331499 0.38039216 0.78823529 0.52549020
v 0.14206004 0.01336996 0.01286871 0.38039216 0.78823529 0.52549020
v 0.14290802 0.01468321 0.01027347 0.38039216 0.78823529 0.52549020
v 0.14297296 0.01336996 0.01189372 0.38039216 0.78823529 0.52549020
v 0.14336267 0.01336996 0.01027347 0.38039216 0.78823529 0.52549020
v 0.14294049 0.01473463 0.00832350 0.38039216 0.78823529 0.52549020
v 0.14295491 0.01476232 0.00637352 0.38039216 0.78823529 0.52549020
v 0.14295853 0.01477023 0.00442354 0.38039216 0.78823529 0.52549020
v 0.14295131 -0.01002714 -0.01252365 0.38039216 0.78823529 0.52549020
v 0.14298379 -0.00807706 -0.01255208 0.38039216 0.78823529 0.52549020
v 0.14303791 -0.01197328 -0.01114218 0.38039216 0.78823529 0.52549020
v 0.14277450 -0.01311248 -0.01047134 0.38039216 0.78823529 0.52549020
v 0.14347092 -0.01002714 -0.01117345 0.38039216 0.78823529 0.52549020
v 0.13558658 -0.02303696 -0.00707736 0.38039216 0.78823529 0.52549020
v 0.13524739 -0.02303696 -0.00743267 0.38039216 0.78823529 0.52549020
v 0.14300544 0.00946979 -0.01257198 0.38039216 0.78823529 0.52549020
v 0.13185912 -0.02303696 0.00978456 0.38039216 0.78823529 0.52549020
v 0.14270234 -0.01302941 0.01135364 0.38039216 0.78823529 0.52549020
v 0.14176054 -0.01203657 0.01276353 0.38039216 0.78823529 0.52549020
v 0.13215501 -0.02303696 0.00963675 0.38039216 0.78823529 0.52549020
v 0.14240644 -0.01002714 0.01309895 0.38039216 0.78823529 0.52549020
v 0.14129867 0.00361952 0.01337752 0.38039216 0.78823529 0.52549020
v 0.14126258 0.00751970 0.01336899 0.38039216 0.78823529 0.52549020
v 0.14124815 0.00946979 0.01336331 0.38039216 0.78823529 0.52549020
v 0.14344205 0.01336996 0.00637352 0.38039216 0.78823529 0.52549020
v 0.14361886 0.01141988 0.00637352 0.38039216 0.78823529 0.52549020
v 0.14363329 0.01141988 -0.00142356 0.38039216 0.78823529 0.52549020
v 0.14363691 0.01141988 -0.00922347 0.38039216 0.78823529 0.52549020
v 0.14351422 0.01141988 -0.01117345 0.38039216 0.78823529 0.52549020
v 0.14363691 0.01141988 -0.00727349 0.38039216 0.78823529 0.52549020
v 0.14352144 0.00946979 -0.01117345 0.38039216 0.78823529 0.52549020
v 0.14222242 0.00946979 0.01301083 0.38039216 0.78823529 0.52549020
v 0.14220077 0.01141988 0.01299946 0.38039216 0.78823529 0.52549020
v 0.14341680 0.01336996 0.00832350 0.38039216 0.78823529 0.52549020
v 0.14308121 0.01141988 0.01202448 0.38039216 0.78823529 0.52549020
v 0.14356474 0.01141988 0.01027347 0.38039216 0.78823529 0.52549020
v 0.14299822 0.00166943 -0.01256061 0.38039216 0.78823529 0.52549020
v 0.14299100 -0.00417688 -0.01255208 0.38039216 0.78823529 0.52549020
v 0.14351061 -0.00807706 -0.01117345 0.38039216 0.78823529 0.52549020
v 0.14348535 -0.01197723 -0.00922347 0.38039216 0.78823529 0.52549020
v 0.14295853 -0.01338541 -0.00922347 0.38039216 0.78823529 0.52549020
v 0.13779492 -0.02303696 -0.00333374 0.38039216 0.78823529 0.52549020
v 0.13763254 -0.02303696 -0.00376296 0.38039216 0.78823529 0.52549020
v 0.13707324 -0.02303696 -0.00496535 0.38039216 0.78823529 0.52549020
v 0.13685674 -0.02303696 -0.00531783 0.38039216 0.78823529 0.52549020
v 0.14368020 -0.01002714 -0.00922347 0.38039216 0.78823529 0.52549020
v 0.14352144 0.00361952 -0.01117345 0.38039216 0.78823529 0.52549020
v 0.14351783 -0.00223074 -0.01117345 0.38039216 0.78823529 0.52549020
v 0.14351422 -0.00612697 -0.01117345 0.38039216 0.78823529 0.52549020
v 0.14289358 -0.01327465 0.01027347 0.38039216 0.78823529 0.52549020
v 0.14340958 -0.01197723 0.01027347 0.38039216 0.78823529 0.52549020
v 0.14294049 -0.01197723 0.01176580 0.38039216 0.78823529 0.52549020
v 0.13384734 -0.02303696 0.00857364 0.38039216 0.78823529 0.52549020
v 0.13509223 -0.02303696 0.00759865 0.38039216 0.78823529 0.52549020
v 0.13607011 -0.02303696 0.00640763 0.38039216 0.78823529 0.52549020
v 0.13634435 -0.02303696 0.00602673 0.38039216 0.78823529 0.52549020
v 0.13736913 -0.02303696 0.00439227 0.38039216 0.78823529 0.52549020
v 0.13804751 -0.02303696 0.00257589 0.38039216 0.78823529 0.52549020
v 0.14313173 -0.01002714 0.01212396 0.38039216 0.78823529 0.52549020
v 0.14312812 -0.00417688 0.01209554 0.38039216 0.78823529 0.52549020
v 0.14311369 0.00751970 0.01204437 0.38039216 0.78823529 0.52549020
v 0.14310648 0.00946979 0.01203585 0.38039216 0.78823529 0.52549020
v 0.14360443 0.01141988 0.00832350 0.38039216 0.78823529 0.52549020
v 0.14365134 0.00946979 0.00637352 0.38039216 0.78823529 0.52549020
v 0.14365495 0.00946979 0.00442354 0.38039216 0.78823529 0.52549020
v 0.14366217 0.00946979 -0.00337353 0.38039216 0.78823529 0.52549020
v 0.14366217 0.00946979 -0.00727349 0.38039216 0.78823529 0.52549020
v 0.14365855 0.00946979 -0.00922347 0.38039216 0.78823529 0.52549020
v 0.14366577 0.00751970 -0.00922347 0.38039216 0.78823529 0.52549020
v 0.14367299 0.00166943 -0.00922347 0.38039216 0.78823529 0.52549020
v 0.14368382 -0.00807706 -0.00922347 0.38039216 0.78823529 0.52549020
v 0.14360804 0.00946979 0.01027347 0.38039216 0.78823529 0.52549020
v 0.14363691 -0.01197723 -0.00727349 0.38039216 0.78823529 0.52549020
v 0.14329772 -0.01392732 -0.00532351 0.38039216 0.78823529 0.52549020
v 0.14303431 -0.01398270 -0.00714558 0.38039216 0.78823529 0.52549020
v 0.14266625 -0.01494390 -0.00641220 0.38039216 0.78823529 0.52549020
v 0.13819185 -0.02303696 -0.00142356 0.38039216 0.78823529 0.52549020
v 0.14369104 -0.01002714 -0.00727349 0.38039216 0.78823529 0.52549020
v 0.14367660 -0.01197723 -0.00532351 0.38039216 0.78823529 0.52549020
v 0.14308843 -0.01367417 0.00832350 0.38039216 0.78823529 0.52549020
v 0.14258326 -0.01486083 0.00723765 0.38039216 0.78823529 0.52549020
v 0.14360804 -0.01197723 0.00832350 0.38039216 0.78823529 0.52549020
v 0.14365495 -0.01002714 0.01027347 0.38039216 0.78823529 0.52549020
v 0.13814854 -0.02303696 0.00187663 0.38039216 0.78823529 0.52549020
v 0.14274924 -0.01503488 0.00593577 0.38039216 0.78823529 0.52549020
v 0.14365495 -0.00612697 0.01027347 0.38039216 0.78823529 0.52549020
v 0.14313173 -0.00807706 0.01211259 0.38039216 0.78823529 0.52549020
v 0.14364051 -0.00028066 0.01027347 0.38039216 0.78823529 0.52549020
v 0.14361886 0.00751970 0.01027347 0.38039216 0.78823529 0.52549020
v 0.14363691 0.00946979 0.00832350 0.38039216 0.78823529 0.52549020
v 0.14366577 0.00751970 0.00637352 0.38039216 0.78823529 0.52549020
v 0.14367299 0.00556961 -0.00337353 0.38039216 0.78823529 0.52549020
v 0.14368742 -0.00028066 -0.00142356 0.38039216 0.78823529 0.52549020
v 0.14368382 -0.00028066 -0.00532351 0.38039216 0.78823529 0.52549020
v 0.14368382 -0.00223074 -0.00727349 0.38039216 0.78823529 0.52549020
v 0.14369104 -0.00807706 -0.00727349 0.38039216 0.78823529 0.52549020
v 0.14365134 0.00751970 0.00832350 0.38039216 0.78823529 0.52549020
v 0.14347814 -0.01392732 -0.00142356 0.38039216 0.78823529 0.52549020
v 0.14343123 -0.01392732 -0.00337353 0.38039216 0.78823529 0.52549020
v 0.14290802 -0.01524452 -0.00337353 0.38039216 0.78823529 0.52549020
v 0.14277450 -0.01507048 -0.00532351 0.38039216 0.78823529 0.52549020
v 0.13825319 -0.02303696 0.00052358 0.38039216 0.78823529 0.52549020
v 0.14295131 -0.01531968 -0.00142356 0.38039216 0.78823529 0.52549020
v 0.14368382 -0.01002714 0.00442354 0.38039216 0.78823529 0.52549020
v 0.14368020 -0.01197723 -0.00142356 0.38039216 0.78823529 0.52549020
v 0.14369464 -0.00612697 0.00637352 0.38039216 0.78823529 0.52549020
v 0.14338792 -0.01392732 0.00442354 0.38039216 0.78823529 0.52549020
v 0.14286471 -0.01517728 0.00442354 0.38039216 0.78823529 0.52549020
v 0.14311008 -0.01409741 0.00650143 0.38039216 0.78823529 0.52549020
v 0.14366217 -0.01197723 0.00637352 0.38039216 0.78823529 0.52549020
v 0.14345649 -0.01392732 0.00247356 0.38039216 0.78823529 0.52549020
v 0.14366938 -0.01002714 0.00832350 0.38039216 0.78823529 0.52549020
v 0.14368020 -0.00807706 0.00832350 0.38039216 0.78823529 0.52549020
v 0.14368382 -0.00612697 0.00832350 0.38039216 0.78823529 0.52549020
v 0.14368020 -0.00417688 0.00832350 0.38039216 0.78823529 0.52549020
v 0.14368382 -0.00028066 0.00637352 0.38039216 0.78823529 0.52549020
v 0.14367660 0.00361952 0.00442354 0.38039216 0.78823529 0.52549020
v 0.14368742 -0.00028066 0.00052358 0.38039216 0.78823529 0.52549020
v 0.14369104 -0.00223074 -0.00142356 0.38039216 0.78823529 0.52549020
v 0.14369104 -0.00417688 -0.00337353 0.38039216 0.78823529 0.52549020
v 0.14367660 -0.01197723 0.00247356 0.38039216 0.78823529 0.52549020
v 0.14367299 -0.01197723 0.00442354 0.38039216 0.78823529 0.52549020
v 0.14347453 -0.01392732 0.00052358 0.38039216 0.78823529 0.52549020
v 0.14294770 -0.01531572 0.00052358 0.38039216 0.78823529 0.52549020
v 0.14292966 -0.01528012 0.00247356 0.38039216 0.78823529 0.52549020
v 0.14368020 -0.01002714 0.00637352 0.38039216 0.78823529 0.52549020
v 0.14369104 -0.00223074 0.00247356 0.38039216 0.78823529 0.52549020
v 0.14369104 -0.00417688 0.00637352 0.38039216 0.78823529 0.52549020
f 1 2 5
f 1 5 11
f 1 11 15
f 1 15 19
f 1 19 23
f 1 23 30
f 1 30 39
f 1 39 38
f 1 38 37
f 1 37 36
f 1 36 35
f 1 35 49
f 1 49 69
f 1 69 92
f 1 92 121
f 1 121 120
f 1 120 195
f 1 195 194
f 1 194 193
f 1 193 192
f 1 192 252
f 1 252 237
f 1 237 236
f 1 236 235
f 1 235 234
f 1 234 233
f 1 233 232
f 1 232 231
f 1 231 230
f 1 230 229
f 1 229 228
f 1 228 227
f 1 227 226
f 1 226 225
f 1 225 202
f 1 202 201
f 1 201 132
f 1 132 131
f 1 131 130
f 1 130 129
f 1 129 126
f 1 126 98
f 1 98 77
f 1 77 76
f 1 76 75
f 1 75 74
f 1 74 61
f 1 61 44
f 1 44 28
f 1 28 22
f 1 22 18
f 1 18 14
f 1 14 10
f 1 10 8
f 1 8 3
f 1 3 4
f 1 4 2
f 2 4 6
f 2 6 7
f 2 7 5
f 3 8 4
f 4 9 13
f 4 13 17
f 4 17 21
f 4 21 27
f 4 27 42
f 4 42 54
f 4 54 57
f 4 57 73
f 4 73 96
f 4 96 123
f 4 123 196
f 4 196 253
f 4 253 259
f 4 259 258
f 4 258 296
f 4 296 295
f 4 295 326
f 4 326 325
f 4 325 324
f 4 324 323
f 4 323 358
f 4 358 383
f 4 383 365
f 4 365 339
f 4 339 338
f 4 338 337
f 4 337 336
f 4 336 335
f 4 335 334
f 4 334 301
f 4 301 298
f 4 298 264
f 4 264 207
f 4 207 142
f 4 142 122
f 4 122 93
f 4 93 70
f 4 70 52
f 4 52 51
f 4 51 50
f 4 50 40
f 4 40 31
f 4 31 24
f 4 24 20
f 4 20 16
f 4 16 12
f 4 12 7
f 4 7 6
f 4 8 10
f 4 10 9
f 5 7 11
f 7 12 11
f 9 10 13
f 10 14 13
f 11 12 15
f 12 16 15
f 13 14 18
f 13 18 17
f 15 16 20
f 15 20 19
f 17 18 22
f 17 22 21
f 19 20 24
f 19 24 25
f 19 25 26
f 19 26 23
f 21 22 27
f 22 28 29
f 22 29 27
f 23 26 30
f 24 31 26
f 24 26 25
f 26 32 33
f 26 33 34
f 26 34 35
f 26 35 36
f 26 36 37
f 26 37 38
f 26 38 39
f 26 39 30
f 26 31 40
f 26 40 41
f 26 41 32
f 27 29 43
f 27 43 42
f 28 44 29
f 29 44 43
f 32 45 33
f 32 41 45
f 33 46 47
f 33 47 48
f 33 48 34
f 33 45 46
f 34 48 49
f 34 49 35
f 40 50 41
f 41 50 51
f 41 51 52
f 41 52 53
f 41 53 45
f 42 43 54
f 43 55 56
f 43 56 57
f 43 57 54
f 43 44 58
f 43 58 59
f 43 59 60
f 43 60 55
f 44 61 58
f 45 62 46
f 45 53 63
f 45 63 62
f 46 62 64
f 46 64 65
f 46 65 66
f 46 66 67
f 46 67 47
f 47 67 68
f 47 68 48
f 48 68 49
f 49 68 69
f 52 70 53
f 53 70 63
f 55 60 71
f 55 71 72
f 55 72 56
f 56 72 57
f 57 72 73
f 58 61 74
f 58 74 75
f 58 75 76
f 58 76 59
f 59 76 77
f 59 77 78
f 59 78 60
f 60 79 80
f 60 80 81
f 60 81 71
f 60 78 79
f 62 63 82
f 62 82 83
f 62 83 64
f 63 70 84
f 63 84 82
f 64 85 65
f 64 83 85
f 65 85 86
f 65 86 87
f 65 87 66
f 66 87 88
f 66 88 67
f 67 88 89
f 67 89 90
f 67 90 68
f 68 90 91
f 68 91 92
f 68 92 69
f 70 93 94
f 70 94 84
f 71 81 95
f 71 95 72
f 72 95 73
f 73 95 97
f 73 97 96
f 77 98 99
f 77 99 78
f 78 99 100
f 78 100 101
f 78 101 102
f 78 102 79
f 79 102 80
f 80 102 103
f 80 103 104
f 80 104 105
f 80 105 106
f 80 106 107
f 80 107 81
f 81 107 108
f 81 108 109
f 81 109 110
f 81 110 95
f 82 84 94
f 82 94 83
f 83 94 111
f 83 111 112
f 83 112 113
f 83 113 85
f 85 113 145
f 85 145 114
f 85 114 86
f 86 115 116
f 86 116 87
f 86 114 115
f 87 116 117
f 87 117 89
f 87 89 88
f 89 118 90
f 89 117 118
f 90 118 117
f 90 117 119
f 90 119 91
f 91 119 120
f 91 120 121
f 91 121 92
f 93 122 94
f 94 122 111
f 95 110 97
f 96 97 124
f 96 124 125
f 96 125 123
f 97 110 109
f 97 109 124
f 98 126 99
f 99 127 128
f 99 128 100
f 99 126 129
f 99 129 130
f 99 130 131
f 99 131 132
f 99 132 127
f 100 133 101
f 100 128 133
f 101 134 135
f 101 135 102
f 101 133 136
f 101 136 134
f 102 135 103
f 103 135 104
f 104 137 105
f 104 135 137
f 105 137 138
f 105 138 125
f 105 125 108
f 105 108 106
f 106 108 107
f 108 125 124
f 108 124 109
f 111 139 140
f 111 140 141
f 111 141 112
f 111 122 142
f 111 142 139
f 112 141 140
f 112 140 143
f 112 143 113
f 113 143 144
f 113 144 145
f 114 145 115
f 115 146 116
f 115 145 146
f 116 147 148
f 116 148 149
f 116 149 150
f 116 150 151
f 116 151 152
f 116 152 153
f 116 153 154
f 116 154 155
f 116 155 156
f 116 156 157
f 116 157 158
f 116 158 159
f 116 159 160
f 116 160 161
f 116 161 162
f 116 162 163
f 116 163 164
f 116 164 165
f 116 165 166
f 116 166 167
f 116 167 168
f 116 168 169
f 116 169 170
f 116 170 171
f 116 171 172
f 116 172 173
f 116 173 174
f 116 174 175
f 116 175 176
f 116 176 177
f 116 177 178
f 116 178 117
f 116 146 179
f 116 179 180
f 116 180 181
f 116 181 182
f 116 182 183
f 116 183 184
f 116 184 185
f 116 185 186
f 116 186 187
f 116 187 188
f 116 188 189
f 116 189 190
f 116 190 147
f 117 178 119
f 119 178 191
f 119 191 192
f 119 192 193
f 119 193 194
f 119 194 195
f 119 195 120
f 123 125 197
f 123 197 198
f 123 198 199
f 123 199 200
f 123 200 196
f 125 138 197
f 127 168 167
f 127 167 166
f 127 166 128
f 127 132 201
f 127 201 202
f 127 202 168
f 128 166 165
f 128 165 164
f 128 164 133
f 133 164 163
f 133 163 136
f 134 136 163
f 134 163 162
f 134 162 161
f 134 161 135
f 135 161 160
f 135 160 137
f 137 203 138
f 137 160 203
f 138 203 204
f 138 204 205
f 138 205 206
f 138 206 198
f 138 198 197
f 139 142 207
f 139 207 140
f 140 208 209
f 140 209 210
f 140 210 143
f 140 207 208
f 143 210 211
f 143 211 144
f 144 211 212
f 144 212 213
f 144 213 214
f 144 214 145
f 145 214 146
f 146 214 215
f 146 215 179
f 147 190 216
f 147 216 217
f 147 217 218
f 147 218 151
f 147 151 150
f 147 150 149
f 147 149 148
f 151 218 152
f 152 218 219
f 152 219 153
f 153 219 154
f 154 219 155
f 155 219 220
f 155 220 156
f 156 220 221
f 156 221 222
f 156 222 157
f 157 222 223
f 157 223 158
f 158 223 159
f 159 223 224
f 159 224 203
f 159 203 160
f 168 202 225
f 168 225 226
f 168 226 169
f 169 226 227
f 169 227 228
f 169 228 229
f 169 229 170
f 170 229 230
f 170 230 231
f 170 231 171
f 171 231 172
f 172 231 173
f 173 231 232
f 173 232 174
f 174 232 175
f 175 232 233
f 175 233 234
f 175 234 176
f 176 234 177
f 177 234 235
f 177 235 236
f 177 236 237
f 177 237 191
f 177 191 178
f 179 238 180
f 179 215 238
f 180 239 240
f 180 240 241
f 180 241 181
f 180 238 242
f 180 242 239
f 181 241 240
f 181 240 243
f 181 243 244
f 181 244 182
f 182 244 183
f 183 244 245
f 183 245 246
f 183 246 184
f 184 246 247
f 184 247 185
f 185 247 248
f 185 248 249
f 185 249 186
f 186 249 250
f 186 250 187
f 187 250 251
f 187 251 188
f 188 251 190
f 188 190 189
f 190 251 216
f 191 237 252
f 191 252 192
f 196 200 253
f 198 206 205
f 198 205 254
f 198 254 255
f 198 255 200
f 198 200 199
f 200 255 256
f 200 256 257
f 200 257 258
f 200 258 259
f 200 259 253
f 203 224 204
f 204 224 260
f 204 260 205
f 205 261 254
f 205 260 262
f 205 262 263
f 205 263 261
f 207 264 265
f 207 265 266
f 207 266 208
f 208 266 209
f 209 266 267
f 209 267 211
f 209 211 210
f 211 267 268
f 211 268 212
f 212 268 269
f 212 269 270
f 212 270 271
f 212 271 238
f 212 238 213
f 213 215 214
f 213 238 215
f 216 272 273
f 216 273 274
f 216 274 275
f 216 275 217
f 216 251 272
f 217 275 276
f 217 276 219
f 217 219 218
f 219 276 277
f 219 277 221
f 219 221 220
f 221 277 278
f 221 278 279
f 221 279 222
f 222 279 223
f 223 279 224
f 224 279 260
f 238 271 281
f 238 281 242
f 239 280 240
f 239 242 281
f 239 281 280
f 240 280 282
f 240 282 243
f 243 282 244
f 244 282 283
f 244 283 246
f 244 246 245
f 246 284 247
f 246 283 285
f 246 285 286
f 246 286 284
f 247 284 248
f 248 284 287
f 248 287 249
f 249 287 288
f 249 288 250
f 250 288 289
f 250 289 251
f 251 289 272
f 254 290 256
f 254 256 255
f 254 261 291
f 254 291 290
f 256 292 293
f 256 293 257
f 256 290 294
f 256 294 292
f 257 293 295
f 257 295 296
f 257 296 258
f 260 279 262
f 261 263 297
f 261 297 291
f 262 279 278
f 262 278 297
f 262 297 263
f 264 298 265
f 265 299 300
f 265 300 268
f 265 268 266
f 265 298 301
f 265 301 299
f 266 268 267
f 268 302 269
f 268 300 302
f 269 302 270
f 270 302 303
f 270 303 271
f 271 303 304
f 271 304 305
f 271 305 281
f 272 289 306
f 272 306 273
f 273 306 307
f 273 307 274
f 274 307 308
f 274 308 275
f 275 309 310
f 275 310 276
f 275 308 311
f 275 311 309
f 276 310 277
f 277 310 278
f 278 310 312
f 278 312 328
f 278 328 297
f 280 281 305
f 280 305 313
f 280 313 314
f 280 314 282
f 282 314 283
f 283 314 285
f 284 286 315
f 284 315 287
f 285 314 316
f 285 316 317
f 285 317 286
f 286 317 315
f 287 315 306
f 287 306 288
f 288 306 289
f 290 291 294
f 291 297 318
f 291 318 319
f 291 319 330
f 291 330 320
f 291 320 294
f 292 294 321
f 292 321 293
f 293 321 322
f 293 322 323
f 293 323 324
f 293 324 325
f 293 325 326
f 293 326 295
f 294 327 321
f 294 320 327
f 297 328 329
f 297 329 330
f 297 330 318
f 299 331 332
f 299 332 333
f 299 333 300
f 299 301 334
f 299 334 335
f 299 335 336
f 299 336 337
f 299 337 338
f 299 338 339
f 299 339 331
f 300 333 302
f 302 333 340
f 302 340 341
f 302 341 342
f 302 342 343
f 302 343 313
f 302 313 305
f 302 305 304
f 302 304 303
f 306 315 344
f 306 344 307
f 307 344 371
f 307 371 345
f 307 345 308
f 308 345 346
f 308 346 347
f 308 347 311
f 309 311 347
f 309 347 348
f 309 348 349
f 309 349 310
f 310 349 350
f 310 350 312
f 312 350 351
f 312 351 352
f 312 352 328
f 313 343 314
f 314 343 316
f 315 317 344
f 316 343 353
f 316 353 317
f 317 353 344
f 318 330 319
f 320 330 352
f 320 352 327
f 321 354 355
f 321 355 356
f 321 356 322
f 321 327 354
f 322 356 357
f 322 357 323
f 323 357 358
f 327 359 360
f 327 360 354
f 327 352 359
f 328 352 329
f 329 352 330
f 331 361 332
f 331 339 362
f 331 362 361
f 332 363 364
f 332 364 340
f 332 340 333
f 332 361 363
f 339 365 366
f 339 366 362
f 340 364 367
f 340 367 368
f 340 368 341
f 341 368 367
f 341 367 369
f 341 369 342
f 342 369 370
f 342 370 343
f 343 370 353
f 344 353 371
f 345 371 378
f 345 378 372
f 345 372 346
f 346 372 347
f 347 372 373
f 347 373 348
f 348 373 374
f 348 374 350
f 348 350 349
f 350 374 400
f 350 400 375
f 350 375 376
f 350 376 377
f 350 377 351
f 351 377 352
f 352 377 359
f 353 370 378
f 353 378 371
f 354 360 379
f 354 379 380
f 354 380 355
f 355 380 381
f 355 381 382
f 355 382 356
f 356 382 357
f 357 382 358
f 358 382 381
f 358 381 384
f 358 384 383
f 359 385 386
f 359 386 360
f 359 377 387
f 359 387 385
f 360 386 379
f 361 388 363
f 361 362 366
f 361 366 389
f 361 389 390
f 361 390 388
f 363 391 364
f 363 388 392
f 363 392 391
f 364 391 393
f 364 393 394
f 364 394 395
f 364 395 367
f 365 383 389
f 365 389 366
f 367 395 396
f 367 396 378
f 367 378 369
f 369 378 370
f 372 397 398
f 372 398 373
f 372 378 396
f 372 396 397
f 373 398 399
f 373 399 374
f 374 399 408
f 374 408 400
f 375 400 401
f 375 401 377
f 375 377 376
f 377 401 387
f 379 384 380
f 379 386 402
f 379 402 403
f 379 403 404
f 379 404 384
f 380 384 381
f 383 384 405
f 383 405 406
f 383 406 389
f 384 404 405
f 385 407 403
f 385 403 402
f 385 402 386
f 385 387 407
f 387 401 400
f 387 400 408
f 387 408 409
f 387 409 396
f 387 396 395
f 387 395 394
f 387 394 407
f 388 390 389
f 388 389 406
f 388 406 392
f 391 403 407
f 391 407 393
f 391 392 404
f 391 404 403
f 392 406 405
f 392 405 404
f 393 407 394
f 396 409 397
f 397 408 398
f 397 409 408
f 398 408 399

