# https://github.com/mikedh/trimesh
v -0.04748404 0.01179834 0.00052466 0.54509804 0.71372549 0.60000000
v -0.04748404 0.01168726 -0.00142460 0.54509804 0.71372549 0.60000000
v -0.04944514 0.01168726 -0.00142460 0.54509804 0.71372549 0.60000000
v -0.04944514 0.01179340 0.00052466 0.54509804 0.71372549 0.60000000
v -0.04748404 0.01156877 0.00247392 0.54509804 0.71372549 0.60000000
v -0.00068425 0.01166504 0.00052466 0.54509804 0.71372549 0.60000000
v -0.00068425 0.01158852 -0.00142460 0.54509804 0.71372549 0.60000000
v -0.04944514 0.01119109 -0.00337386 0.54509804 0.71372549 0.60000000
v 0.03828681 0.01107261 -0.00337386 0.54509804 0.71372549 0.60000000
v 0.00126116 0.01113432 -0.00337386 0.54509804 0.71372549 0.60000000
v -0.00068425 0.01113679 -0.00337386 0.54509804 0.71372549 0.60000000
v -0.01238812 0.01115160 -0.00337386 0.54509804 0.71372549 0.60000000
v -0.05139056 0.01099608 -0.00337386 0.54509804 0.71372549 0.60000000
v -0.05139056 0.01148978 -0.00142460 0.54509804 0.71372549 0.60000000
v -0.05139056 0.01160086 0.00052466 0.54509804 0.71372549 0.60000000
v -0.04944514 0.01155890 0.00247392 0.54509804 0.71372549 0.60000000
v -0.04944514 0.01091463 0.00440268 0.54509804 0.71372549 0.60000000
v -0.04748404 0.01092203 0.00440063 0.54509804 0.71372549 0.60000000
v 0.03828681 0.01080354 0.00437808 0.54509804 0.71372549 0.60000000
v 0.03634139 0.01132933 0.00247392 0.54509804 0.71372549 0.60000000
v 0.03439598 0.01154655 0.00052466 0.54509804 0.71372549 0.60000000
v 0.03634139 0.01146509 -0.00142460 0.54509804 0.71372549 0.60000000
v -0.01238812 0.01064556 -0.00469181 0.54509804 0.71372549 0.60000000
v -0.04944514 0.01065297 -0.00468771 0.54509804 0.71372549 0.60000000
v -0.05139056 0.01055670 -0.00452989 0.54509804 0.71372549 0.60000000
v 0.03634139 0.01062828 -0.00469796 0.54509804 0.71372549 0.60000000
v 0.04024791 0.01106520 -0.00337386 0.54509804 0.71372549 0.60000000
v 0.03828681 0.01062581 -0.00469591 0.54509804 0.71372549 0.60000000
v -0.05237895 0.01045549 -0.00436386 0.54509804 0.71372549 0.60000000
v -0.05256722 0.01062334 -0.00337386 0.54509804 0.71372549 0.60000000
v -0.05280255 0.01087019 -0.00142460 0.54509804 0.71372549 0.60000000
v -0.05139056 0.01135895 0.00247392 0.54509804 0.71372549 0.60000000
v -0.05283393 0.01093190 0.00052466 0.54509804 0.71372549 0.60000000
v -0.05272411 0.01080848 0.00247392 0.54509804 0.71372549 0.60000000
v -0.05139056 0.01080601 0.00421616 0.54509804 0.71372549 0.60000000
v -0.04944514 0.01043327 0.00537833 0.54509804 0.71372549 0.60000000
v 0.03828681 0.01042587 0.00535373 0.54509804 0.71372549 0.60000000
v 0.04024791 0.01042340 0.00534144 0.54509804 0.71372549 0.60000000
v 0.04024791 0.01079367 0.00436783 0.54509804 0.71372549 0.60000000
v 0.03828681 0.01132192 0.00247392 0.54509804 0.71372549 0.60000000
v 0.03634139 0.01153915 0.00052466 0.54509804 0.71372549 0.60000000
v 0.03828681 0.01145769 -0.00142460 0.54509804 0.71372549 0.60000000
v 0.03828681 0.01006547 -0.00567157 0.54509804 0.71372549 0.60000000
v -0.04944514 0.00998401 -0.00566337 0.54509804 0.71372549 0.60000000
v 0.03634139 0.01006300 -0.00567362 0.54509804 0.71372549 0.60000000
v -0.05139056 0.00983343 -0.00550554 0.54509804 0.71372549 0.60000000
v 0.04024791 0.01062088 -0.00468566 0.54509804 0.71372549 0.60000000
v 0.04024791 0.01144781 -0.00142460 0.54509804 0.71372549 0.60000000
v 0.04219333 0.01105286 -0.00337386 0.54509804 0.71372549 0.60000000
v 0.04999068 0.01058632 -0.00462622 0.54509804 0.71372549 0.60000000
v 0.04804526 0.01059372 -0.00464057 0.54509804 0.71372549 0.60000000
v 0.04609985 0.01060113 -0.00465287 0.54509804 0.71372549 0.60000000
v 0.04413874 0.01060853 -0.00466517 0.54509804 0.71372549 0.60000000
v 0.04219333 0.01061594 -0.00467542 0.54509804 0.71372549 0.60000000
v 0.04024791 0.01006300 -0.00566132 0.54509804 0.71372549 0.60000000
v -0.05139056 0.00885839 -0.00664927 0.54509804 0.71372549 0.60000000
v -0.05248878 0.00864116 -0.00642995 0.54509804 0.71372549 0.60000000
v -0.05266135 0.00936195 -0.00513660 0.54509804 0.71372549 0.60000000
v -0.05310064 0.00947057 -0.00337386 0.54509804 0.71372549 0.60000000
v -0.05333597 0.00947057 -0.00142460 0.54509804 0.71372549 0.60000000
v -0.05255153 0.01062334 0.00383696 0.54509804 0.71372549 0.60000000
v -0.05336735 0.00947057 0.00052466 0.54509804 0.71372549 0.60000000
v -0.05325753 0.00947057 0.00247392 0.54509804 0.71372549 0.60000000
v -0.05289668 0.00956931 0.00446212 0.54509804 0.71372549 0.60000000
v -0.05139056 0.01031972 0.00519181 0.54509804 0.71372549 0.60000000
v -0.04944514 0.00976678 0.00637448 0.54509804 0.71372549 0.60000000
v -0.04748404 0.00977666 0.00637448 0.54509804 0.71372549 0.60000000
v 0.03828681 0.00980134 0.00637448 0.54509804 0.71372549 0.60000000
v 0.04024791 0.00979641 0.00637448 0.54509804 0.71372549 0.60000000
v 0.04219333 0.00977913 0.00637448 0.54509804 0.71372549 0.60000000
v 0.04413874 0.00975691 0.00637448 0.54509804 0.71372549 0.60000000
v 0.04609985 0.00973223 0.00637448 0.54509804 0.71372549 0.60000000
v 0.04219333 0.01041106 0.00531479 0.54509804 0.71372549 0.60000000
v 0.04024791 0.01130464 0.00247392 0.54509804 0.71372549 0.60000000
v 0.04219333 0.01078133 0.00433914 0.54509804 0.71372549 0.60000000
v 0.03828681 0.01152927 0.00052466 0.54509804 0.71372549 0.60000000
v 0.04024791 0.01151446 0.00052466 0.54509804 0.71372549 0.60000000
v 0.03828681 0.00909042 -0.00695058 0.54509804 0.71372549 0.60000000
v 0.04024791 0.00908795 -0.00695263 0.54509804 0.71372549 0.60000000
v -0.04748404 0.00901143 -0.00685219 0.54509804 0.71372549 0.60000000
v -0.04944514 0.00900896 -0.00682759 0.54509804 0.71372549 0.60000000
v 0.04219333 0.01143547 -0.00142460 0.54509804 0.71372549 0.60000000
v 0.04413874 0.01103805 -0.00337386 0.54509804 0.71372549 0.60000000
v 0.04999068 0.01001857 -0.00560188 0.54509804 0.71372549 0.60000000
v 0.04804526 0.01003091 -0.00561623 0.54509804 0.71372549 0.60000000
v 0.04804526 0.01100102 -0.00337386 0.54509804 0.71372549 0.60000000
v 0.04999068 0.01098127 -0.00337386 0.54509804 0.71372549 0.60000000
v 0.05193609 0.01055423 -0.00456063 0.54509804 0.71372549 0.60000000
v 0.10683132 0.00814993 -0.00555883 0.54509804 0.71372549 0.60000000
v 0.04219333 0.01005560 -0.00565107 0.54509804 0.71372549 0.60000000
v -0.04944514 0.00775745 -0.00780120 0.54509804 0.71372549 0.60000000
v -0.05068456 0.00668613 -0.00831977 0.54509804 0.71372549 0.60000000
v -0.05135918 0.00740939 -0.00766387 0.54509804 0.71372549 0.60000000
v -0.05198673 0.00623687 -0.00810455 0.54509804 0.71372549 0.60000000
v -0.05250447 0.00493845 -0.00837921 0.54509804 0.71372549 0.60000000
v -0.05270843 0.00752047 -0.00677635 0.54509804 0.71372549 0.60000000
v -0.05324185 0.00752047 -0.00532312 0.54509804 0.71372549 0.60000000
v -0.05343011 0.00752047 -0.00337386 0.54509804 0.71372549 0.60000000
v -0.05269274 0.00898428 0.00604038 0.54509804 0.71372549 0.60000000
v -0.05234758 0.00848565 0.00733989 0.54509804 0.71372549 0.60000000
v -0.05344579 0.00752047 -0.00142460 0.54509804 0.71372549 0.60000000
v -0.05343011 0.00752047 0.00247392 0.54509804 0.71372549 0.60000000
v -0.05341442 0.00752047 0.00442317 0.54509804 0.71372549 0.60000000
v -0.05295943 0.00771054 0.00656305 0.54509804 0.71372549 0.60000000
v -0.05104540 0.00869300 0.00754281 0.54509804 0.71372549 0.60000000
v -0.05157882 0.00929284 0.00656305 0.54509804 0.71372549 0.60000000
v -0.04944514 0.00880408 0.00765554 0.54509804 0.71372549 0.60000000
v -0.04748404 0.00881395 0.00766989 0.54509804 0.71372549 0.60000000
v 0.03828681 0.00884604 0.00773343 0.54509804 0.71372549 0.60000000
v 0.04024791 0.00884357 0.00773548 0.54509804 0.71372549 0.60000000
v 0.04219333 0.00883864 0.00772933 0.54509804 0.71372549 0.60000000
v 0.04413874 0.00883123 0.00771498 0.54509804 0.71372549 0.60000000
v 0.04609985 0.00882136 0.00769653 0.54509804 0.71372549 0.60000000
v 0.04804526 0.00880408 0.00768014 0.54509804 0.71372549 0.60000000
v 0.04804526 0.00970260 0.00637448 0.54509804 0.71372549 0.60000000
v 0.04609985 0.01038390 0.00524715 0.54509804 0.71372549 0.60000000
v 0.04804526 0.01074430 0.00423870 0.54509804 0.71372549 0.60000000
v 0.04413874 0.01076899 0.00430634 0.54509804 0.71372549 0.60000000
v 0.04413874 0.01126021 0.00247392 0.54509804 0.71372549 0.60000000
v 0.04609985 0.01146016 0.00052466 0.54509804 0.71372549 0.60000000
v 0.04413874 0.01147991 0.00052466 0.54509804 0.71372549 0.60000000
v 0.04609985 0.01140091 -0.00142460 0.54509804 0.71372549 0.60000000
v 0.04024791 0.00802157 -0.00792623 0.54509804 0.71372549 0.60000000
v 0.03828681 0.00802157 -0.00792623 0.54509804 0.71372549 0.60000000
v 0.04219333 0.00908055 -0.00694033 0.54509804 0.71372549 0.60000000
v 0.04219333 0.00801417 -0.00791598 0.54509804 0.71372549 0.60000000
v -0.04553862 0.00779694 -0.00782784 0.54509804 0.71372549 0.60000000
v -0.04748404 0.00778707 -0.00782784 0.54509804 0.71372549 0.60000000
v 0.05193609 0.00901390 -0.00687884 0.54509804 0.71372549 0.60000000
v 0.04999068 0.00904352 -0.00689113 0.54509804 0.71372549 0.60000000
v 0.04804526 0.00905586 -0.00690343 0.54509804 0.71372549 0.60000000
v 0.04804526 0.01138117 -0.00142460 0.54509804 0.71372549 0.60000000
v 0.04999068 0.01134661 -0.00142460 0.54509804 0.71372549 0.60000000
v 0.05193609 0.01091956 -0.00337386 0.54509804 0.71372549 0.60000000
v 0.10683132 0.00858192 -0.00458318 0.54509804 0.71372549 0.60000000
v 0.10683132 0.00852020 -0.00472461 0.54509804 0.71372549 0.60000000
v 0.10683132 0.00717489 -0.00683579 0.54509804 0.71372549 0.60000000
v -0.04944514 0.00678240 -0.00836281 0.54509804 0.71372549 0.60000000
v -0.05135918 0.00558025 -0.00857803 0.54509804 0.71372549 0.60000000
v -0.04944514 0.00557038 -0.00888344 0.54509804 0.71372549 0.60000000
v -0.05139056 0.00362028 -0.00918474 0.54509804 0.71372549 0.60000000
v -0.05266135 0.00362028 -0.00855344 0.54509804 0.71372549 0.60000000
v -0.05284962 0.00558025 -0.00738306 0.54509804 0.71372549 0.60000000
v -0.05317908 0.00362028 -0.00727443 0.54509804 0.71372549 0.60000000
v -0.05341442 0.00557038 -0.00532312 0.54509804 0.71372549 0.60000000
v -0.05343011 0.00362028 -0.00532312 0.54509804 0.71372549 0.60000000
v -0.05267705 0.00718476 0.00776622 0.54509804 0.71372549 0.60000000
v -0.05139056 0.00622206 0.00911082 0.54509804 0.71372549 0.60000000
v -0.05157882 0.00771054 0.00809418 0.54509804 0.71372549 0.60000000
v -0.05250447 0.00484711 0.00942033 0.54509804 0.71372549 0.60000000
v -0.05343011 -0.00222753 -0.00532312 0.54509804 0.71372549 0.60000000
v -0.05343011 -0.00417763 -0.00337386 0.54509804 0.71372549 0.60000000
v -0.05343011 -0.00612525 0.00052466 0.54509804 0.71372549 0.60000000
v -0.05343011 -0.00612525 0.00442317 0.54509804 0.71372549 0.60000000
v -0.05343011 -0.00417763 0.00637448 0.54509804 0.71372549 0.60000000
v -0.05343011 0.00362028 0.00637448 0.54509804 0.71372549 0.60000000
v -0.05339873 0.00557038 0.00637448 0.54509804 0.71372549 0.60000000
v -0.05284962 0.00552595 0.00837908 0.54509804 0.71372549 0.60000000
v -0.04944514 0.00752047 0.00860865 0.54509804 0.71372549 0.60000000
v -0.04748404 0.00752047 0.00863529 0.54509804 0.71372549 0.60000000
v 0.04024791 0.00770067 0.00871113 0.54509804 0.71372549 0.60000000
v 0.04219333 0.00769820 0.00870293 0.54509804 0.71372549 0.60000000
v 0.04999068 0.00878433 0.00766169 0.54509804 0.71372549 0.60000000
v 0.04413874 0.00767845 0.00868859 0.54509804 0.71372549 0.60000000
v 0.04999068 0.00966558 0.00637448 0.54509804 0.71372549 0.60000000
v 0.04804526 0.01036909 0.00521231 0.54509804 0.71372549 0.60000000
v 0.04999068 0.01072949 0.00419976 0.54509804 0.71372549 0.60000000
v 0.04609985 0.01123306 0.00247392 0.54509804 0.71372549 0.60000000
v 0.04804526 0.01143547 0.00052466 0.54509804 0.71372549 0.60000000
v 0.04024791 0.00704653 -0.00851654 0.54509804 0.71372549 0.60000000
v 0.03828681 0.00704653 -0.00851859 0.54509804 0.71372549 0.60000000
v 0.04609985 0.00701937 -0.00851244 0.54509804 0.71372549 0.60000000
v 0.04413874 0.00702925 -0.00851449 0.54509804 0.71372549 0.60000000
v 0.04609985 0.00799442 -0.00789138 0.54509804 0.71372549 0.60000000
v 0.04804526 0.00700456 -0.00850424 0.54509804 0.71372549 0.60000000
v -0.04748404 0.00681202 -0.00837306 0.54509804 0.71372549 0.60000000
v -0.04359320 0.00682436 -0.00838331 0.54509804 0.71372549 0.60000000
v -0.04553862 0.00682189 -0.00837716 0.54509804 0.71372549 0.60000000
v 0.05193609 0.00790309 -0.00785244 0.54509804 0.71372549 0.60000000
v 0.04999068 0.00794752 -0.00786679 0.54509804 0.71372549 0.60000000
v 0.04804526 0.00797961 -0.00787909 0.54509804 0.71372549 0.60000000
v 0.04999068 0.01138857 0.00052466 0.54509804 0.71372549 0.60000000
v 0.05193609 0.01128490 -0.00142460 0.54509804 0.71372549 0.60000000
v 0.10683132 0.00873249 -0.00355218 0.54509804 0.71372549 0.60000000
v 0.10683132 0.00694285 -0.00696287 0.54509804 0.71372549 0.60000000
v 0.04999068 0.00697247 -0.00848170 0.54509804 0.71372549 0.60000000
v -0.04944514 0.00362028 -0.00951679 0.54509804 0.71372549 0.60000000
v -0.04748404 0.00557038 -0.00889573 0.54509804 0.71372549 0.60000000
v -0.05139056 0.00167019 -0.00952704 0.54509804 0.71372549 0.60000000
v -0.04944514 0.00167019 -0.00988369 0.54509804 0.71372549 0.60000000
v -0.05277117 0.00167019 -0.00871331 0.54509804 0.71372549 0.60000000
v -0.05330459 0.00167019 -0.00727443 0.54509804 0.71372549 0.60000000
v -0.05335166 -0.00027991 -0.00727443 0.54509804 0.71372549 0.60000000
v -0.05139056 0.00524701 0.00961095 0.54509804 0.71372549 0.60000000
v -0.04944514 0.00650593 0.00927685 0.54509804 0.71372549 0.60000000
v -0.05264566 0.00362028 0.00957200 0.54509804 0.71372549 0.60000000
v -0.05139056 0.00362028 0.01011312 0.54509804 0.71372549 0.60000000
v -0.05341442 -0.00612525 -0.00532312 0.54509804 0.71372549 0.60000000
v -0.05341442 -0.01002544 -0.00142460 0.54509804 0.71372549 0.60000000
v -0.05341442 -0.00807535 0.00442317 0.54509804 0.71372549 0.60000000
v -0.05339873 -0.00612525 0.00637448 0.54509804 0.71372549 0.60000000
v -0.05332028 -0.00027991 0.00832374 0.54509804 0.71372549 0.60000000
v -0.05328891 0.00167019 0.00832374 0.54509804 0.71372549 0.60000000
v -0.05317908 0.00362028 0.00832374 0.54509804 0.71372549 0.60000000
v -0.04748404 0.00653061 0.00929120 0.54509804 0.71372549 0.60000000
v -0.04633875 0.00654296 0.00929735 0.54509804 0.71372549 0.60000000
v -0.04503658 0.00655283 0.00930349 0.54509804 0.71372549 0.60000000
v -0.03579586 0.00657752 0.00931784 0.54509804 0.71372549 0.60000000
v -0.02799851 0.00659726 0.00933014 0.54509804 0.71372549 0.60000000
v -0.02603741 0.00660220 0.00933219 0.54509804 0.71372549 0.60000000
v 0.04024791 0.00672562 0.00940393 0.54509804 0.71372549 0.60000000
v 0.04219333 0.00672315 0.00939983 0.54509804 0.71372549 0.60000000
v 0.04413874 0.00670341 0.00938958 0.54509804 0.71372549 0.60000000
v 0.04609985 0.00764883 0.00867219 0.54509804 0.71372549 0.60000000
v 0.04999068 0.00758712 0.00863734 0.54509804 0.71372549 0.60000000
v 0.10683132 0.00730325 0.00614697 0.54509804 0.71372549 0.60000000
v 0.10683132 0.00744395 0.00595634 0.54509804 0.71372549 0.60000000
v 0.10683132 0.00827829 0.00480442 0.54509804 0.71372549 0.60000000
v 0.04999068 0.01035181 0.00517541 0.54509804 0.71372549 0.60000000
v 0.04999068 0.01116641 0.00247392 0.54509804 0.71372549 0.60000000
v 0.04804526 0.01120590 0.00247392 0.54509804 0.71372549 0.60000000
v 0.05193609 0.01069987 0.00408907 0.54509804 0.71372549 0.60000000
v 0.04219333 0.00557038 -0.00915605 0.54509804 0.71372549 0.60000000
v 0.04024791 0.00557038 -0.00916015 0.54509804 0.71372549 0.60000000
v 0.03828681 0.00557038 -0.00916424 0.54509804 0.71372549 0.60000000
v 0.04609985 0.00557038 -0.00913965 0.54509804 0.71372549 0.60000000
v 0.04413874 0.00557038 -0.00914990 0.54509804 0.71372549 0.60000000
v 0.04999068 0.00557038 -0.00909251 0.54509804 0.71372549 0.60000000
v 0.04804526 0.00557038 -0.00912325 0.54509804 0.71372549 0.60000000
v -0.04164779 0.00557038 -0.00891828 0.54509804 0.71372549 0.60000000
v -0.04359320 0.00557038 -0.00891213 0.54509804 0.71372549 0.60000000
v 0.05193609 0.01110223 0.00247392 0.54509804 0.71372549 0.60000000
v 0.05193609 0.01132192 0.00052466 0.54509804 0.71372549 0.60000000
v 0.10683132 0.00886826 -0.00142460 0.54509804 0.71372549 0.60000000
v 0.10683132 0.00885345 -0.00170541 0.54509804 0.71372549 0.60000000
v 0.10683132 0.00875718 -0.00337386 0.54509804 0.71372549 0.60000000
v 0.10683132 0.00557038 -0.00771101 0.54509804 0.71372549 0.60000000
v -0.04748404 0.00362028 -0.00952704 0.54509804 0.71372549 0.60000000
v -0.04944514 -0.00027991 -0.01004971 0.54509804 0.71372549 0.60000000
v -0.05139056 -0.00027991 -0.00968692 0.54509804 0.71372549 0.60000000
v -0.04748404 0.00167019 -0.00989394 0.54509804 0.71372549 0.60000000
v -0.05281824 -0.00027991 -0.00878915 0.54509804 0.71372549 0.60000000
v -0.05332028 -0.00222753 -0.00727443 0.54509804 0.71372549 0.60000000
v -0.04944514 0.00362028 0.01040213 0.54509804 0.71372549 0.60000000
v -0.04944514 0.00553088 0.00975648 0.54509804 0.71372549 0.60000000
v -0.04748404 0.00555557 0.00977287 0.54509804 0.71372549 0.60000000
v -0.05275548 0.00167019 0.00969704 0.54509804 0.71372549 0.60000000
v -0.05139056 0.00167019 0.01037958 0.54509804 0.71372549 0.60000000
v -0.04944514 0.00167019 0.01067064 0.54509804 0.71372549 0.60000000
v -0.05333597 -0.00807535 -0.00532312 0.54509804 0.71372549 0.60000000
v -0.05295943 -0.01197554 0.00052466 0.54509804 0.71372549 0.60000000
v -0.05339873 -0.01002544 0.00247392 0.54509804 0.71372549 0.60000000
v -0.05332028 -0.01002544 -0.00337386 0.54509804 0.71372549 0.60000000
v -0.05283393 -0.01209649 -0.00140001 0.54509804 0.71372549 0.60000000
v -0.05324185 -0.01002544 0.00442317 0.54509804 0.71372549 0.60000000
v -0.05321046 -0.00807535 0.00637448 0.54509804 0.71372549 0.60000000
v -0.05313201 -0.00417763 0.00832374 0.54509804 0.71372549 0.60000000
v -0.05327322 -0.00222753 0.00832374 0.54509804 0.71372549 0.60000000
v -0.05278686 -0.00027991 0.00974418 0.54509804 0.71372549 0.60000000
v -0.04563275 0.00576539 0.00968064 0.54509804 0.71372549 0.60000000
v -0.04359320 0.00557038 0.00977902 0.54509804 0.71372549 0.60000000
v 0.03439598 0.00557038 0.00987946 0.54509804 0.71372549 0.60000000
v 0.03828681 0.00557038 0.00988356 0.54509804 0.71372549 0.60000000
v 0.04024791 0.00557038 0.00988356 0.54509804 0.71372549 0.60000000
v 0.04219333 0.00557038 0.00987946 0.54509804 0.71372549 0.60000000
v -0.03968669 0.00557038 0.00978517 0.54509804 0.71372549 0.60000000
v -0.02603741 0.00557038 0.00980567 0.54509804 0.71372549 0.60000000
v 0.04413874 0.00557038 0.00986716 0.54509804 0.71372549 0.60000000
v 0.04609985 0.00557038 0.00985076 0.54509804 0.71372549 0.60000000
v 0.04609985 0.00667379 0.00937318 0.54509804 0.71372549 0.60000000
v 0.04804526 0.00664416 0.00935679 0.54509804 0.71372549 0.60000000
v 0.04999068 0.00661207 0.00933834 0.54509804 0.71372549 0.60000000
v 0.05115165 0.00657998 0.00931989 0.54509804 0.71372549 0.60000000
v 0.10683132 0.00616775 0.00698119 0.54509804 0.71372549 0.60000000
v 0.10683132 0.00832766 0.00466299 0.54509804 0.71372549 0.60000000
v 0.10683132 0.00861154 0.00382876 0.54509804 0.71372549 0.60000000
v 0.04024791 0.00362028 -0.00969921 0.54509804 0.71372549 0.60000000
v 0.03828681 0.00362028 -0.00970331 0.54509804 0.71372549 0.60000000
v 0.03634139 0.00362028 -0.00970536 0.54509804 0.71372549 0.60000000
v -0.03383475 0.00362028 -0.00957623 0.54509804 0.71372549 0.60000000
v -0.03774127 0.00362028 -0.00956598 0.54509804 0.71372549 0.60000000
v 0.04609985 0.00362028 -0.00967257 0.54509804 0.71372549 0.60000000
v 0.04413874 0.00362028 -0.00968487 0.54509804 0.71372549 0.60000000
v 0.04999068 0.00362028 -0.00964592 0.54509804 0.71372549 0.60000000
v 0.04804526 0.00362028 -0.00966027 0.54509804 0.71372549 0.60000000
v 0.04219333 0.00362028 -0.00969307 0.54509804 0.71372549 0.60000000
v -0.04553862 0.00362028 -0.00953524 0.54509804 0.71372549 0.60000000
v 0.10683132 0.00877939 0.00247392 0.54509804 0.71372549 0.60000000
v 0.10683132 0.00886085 0.00052466 0.54509804 0.71372549 0.60000000
v 0.10683132 0.00533340 -0.00777250 0.54509804 0.71372549 0.60000000
v -0.04359320 0.00167019 -0.00991238 0.54509804 0.71372549 0.60000000
v -0.04944514 -0.00222753 -0.00997797 0.54509804 0.71372549 0.60000000
v -0.05139056 -0.00222753 -0.00962543 0.54509804 0.71372549 0.60000000
v -0.04164779 0.00167019 -0.00992058 0.54509804 0.71372549 0.60000000
v -0.04359320 -0.00027991 -0.01007431 0.54509804 0.71372549 0.60000000
v -0.03383475 -0.00222753 -0.01006201 0.54509804 0.71372549 0.60000000
v -0.03579586 -0.00222753 -0.01005176 0.54509804 0.71372549 0.60000000
v -0.05278686 -0.00222753 -0.00876250 0.54509804 0.71372549 0.60000000
v -0.05324185 -0.00417763 -0.00727443 0.54509804 0.71372549 0.60000000
v -0.04748404 0.00362028 0.01042878 0.54509804 0.71372549 0.60000000
v -0.04553862 0.00362028 0.01043697 0.54509804 0.71372549 0.60000000
v -0.04359320 0.00362028 0.01044312 0.54509804 0.71372549 0.60000000
v -0.05139056 -0.00027991 0.01046567 0.54509804 0.71372549 0.60000000
v -0.04944514 -0.00027991 0.01075058 0.54509804 0.71372549 0.60000000
v -0.04748404 0.00167019 0.01068704 0.54509804 0.71372549 0.60000000
v -0.05305358 -0.00612525 -0.00727443 0.54509804 0.71372549 0.60000000
v -0.05273980 -0.00791490 -0.00727443 0.54509804 0.71372549 0.60000000
v -0.05261428 -0.00944288 -0.00662672 0.54509804 0.71372549 0.60000000
v -0.05286531 -0.01006494 -0.00534977 0.54509804 0.71372549 0.60000000
v -0.05245740 -0.01301970 -0.00073590 0.54509804 0.71372549 0.60000000
v -0.05244171 -0.01300736 0.00052466 0.54509804 0.71372549 0.60000000
v -0.05278686 -0.01207428 0.00229969 0.54509804 0.71372549 0.60000000
v -0.05280255 -0.01159786 -0.00337386 0.54509804 0.71372549 0.60000000
v -0.05272411 -0.01147691 0.00442317 0.54509804 0.71372549 0.60000000
v -0.05250447 -0.01114366 0.00557920 0.54509804 0.71372549 0.60000000
v -0.05270843 -0.00991930 0.00628635 0.54509804 0.71372549 0.60000000
v -0.05247309 -0.00919604 0.00745672 0.54509804 0.71372549 0.60000000
v -0.05267705 -0.00807535 0.00776622 0.54509804 0.71372549 0.60000000
v -0.05281824 -0.00605860 0.00839753 0.54509804 0.71372549 0.60000000
v -0.05259859 -0.00417763 0.00952486 0.54509804 0.71372549 0.60000000
v -0.05273980 -0.00222753 0.00969499 0.54509804 0.71372549 0.60000000
v -0.02409199 0.00362028 0.01045747 0.54509804 0.71372549 0.60000000
v -0.02214657 0.00362028 0.01045747 0.54509804 0.71372549 0.60000000
v -0.02018547 0.00362028 0.01045542 0.54509804 0.71372549 0.60000000
v 0.00320658 0.00362028 0.01043083 0.54509804 0.71372549 0.60000000
v 0.00515199 0.00362028 0.01042878 0.54509804 0.71372549 0.60000000
v 0.02465321 0.00362028 0.01038163 0.54509804 0.71372549 0.60000000
v 0.02854404 0.00362028 0.01037138 0.54509804 0.71372549 0.60000000
v 0.03439598 0.00362028 0.01035294 0.54509804 0.71372549 0.60000000
v 0.04024791 0.00362028 0.01033039 0.54509804 0.71372549 0.60000000
v 0.04219333 0.00362028 0.01032014 0.54509804 0.71372549 0.60000000
v 0.04413874 0.00362028 0.01030784 0.54509804 0.71372549 0.60000000
v 0.04609985 0.00362028 0.01029145 0.54509804 0.71372549 0.60000000
v 0.04804526 0.00362028 0.01025865 0.54509804 0.71372549 0.60000000
v 0.04804526 0.00557038 0.00981387 0.54509804 0.71372549 0.60000000
v 0.04999068 0.00557038 0.00975238 0.54509804 0.71372549 0.60000000
v 0.10683132 0.00597521 0.00712057 0.54509804 0.71372549 0.60000000
v 0.03439598 0.00167019 -0.00995953 0.54509804 0.71372549 0.60000000
v 0.03243487 0.00167019 -0.00996567 0.54509804 0.71372549 0.60000000
v 0.00320658 0.00167019 -0.00997592 0.54509804 0.71372549 0.60000000
v -0.03188934 0.00167019 -0.00994313 0.54509804 0.71372549 0.60000000
v -0.03579586 0.00167019 -0.00993903 0.54509804 0.71372549 0.60000000
v 0.04999068 0.00167019 -0.00989803 0.54509804 0.71372549 0.60000000
v 0.04804526 0.00167019 -0.00990828 0.54509804 0.71372549 0.60000000
v 0.10683132 0.00384738 -0.00814965 0.54509804 0.71372549 0.60000000
v 0.10683132 0.00287234 -0.00827878 0.54509804 0.71372549 0.60000000
v 0.04609985 0.00167019 -0.00991648 0.54509804 0.71372549 0.60000000
v -0.04944514 -0.00417763 -0.00969307 0.54509804 0.71372549 0.60000000
v -0.05139056 -0.00417763 -0.00936102 0.54509804 0.71372549 0.60000000
v -0.03579586 -0.00417763 -0.00977300 0.54509804 0.71372549 0.60000000
v -0.05270843 -0.00417763 -0.00864157 0.54509804 0.71372549 0.60000000
v -0.04164779 -0.00027991 -0.01008046 0.54509804 0.71372549 0.60000000
v -0.03188934 -0.00417763 -0.00978735 0.54509804 0.71372549 0.60000000
v -0.03383475 -0.00417763 -0.00978325 0.54509804 0.71372549 0.60000000
v -0.03579586 -0.00027991 -0.01009890 0.54509804 0.71372549 0.60000000
v -0.03383475 -0.00027991 -0.01010300 0.54509804 0.71372549 0.60000000
v -0.00068425 -0.00222753 -0.01010505 0.54509804 0.71372549 0.60000000
v -0.00068425 -0.00417763 -0.00985294 0.54509804 0.71372549 0.60000000
v -0.00264535 -0.00417763 -0.00984884 0.54509804 0.71372549 0.60000000
v -0.04553862 0.00167019 0.01070139 0.54509804 0.71372549 0.60000000
v -0.04359320 0.00167019 0.01070753 0.54509804 0.71372549 0.60000000
v -0.02214657 0.00167019 0.01074033 0.54509804 0.71372549 0.60000000
v -0.05139056 -0.00222753 0.01035909 0.54509804 0.71372549 0.60000000
v -0.04944514 -0.00222753 0.01063170 0.54509804 0.71372549 0.60000000
v -0.04748404 -0.00027991 0.01076083 0.54509804 0.71372549 0.60000000
v -0.05253584 -0.00612525 -0.00843045 0.54509804 0.71372549 0.60000000
v -0.05239463 -0.00715708 -0.00827468 0.54509804 0.71372549 0.60000000
v -0.05259859 -0.01127202 -0.00471846 0.54509804 0.71372549 0.60000000
v -0.05139056 -0.00845303 -0.00792623 0.54509804 0.71372549 0.60000000
v -0.05121798 -0.01006494 -0.00682964 0.54509804 0.71372549 0.60000000
v -0.05175140 -0.01074130 -0.00601797 0.54509804 0.71372549 0.60000000
v -0.05192398 -0.01282716 -0.00203541 0.54509804 0.71372549 0.60000000
v -0.05132780 -0.01313078 -0.00140001 0.54509804 0.71372549 0.60000000
v -0.05139056 -0.01324680 0.00052466 0.54509804 0.71372549 0.60000000
v -0.05237895 -0.01295799 0.00153311 0.54509804 0.71372549 0.60000000
v -0.05139056 -0.01282716 0.00296584 0.54509804 0.71372549 0.60000000
v -0.05139056 -0.01219523 0.00442317 0.54509804 0.71372549 0.60000000
v -0.05139056 -0.01134361 0.00583336 0.54509804 0.71372549 0.60000000
v -0.05139056 -0.01043768 0.00680697 0.54509804 0.71372549 0.60000000
v -0.05139056 -0.00946263 0.00766374 0.54509804 0.71372549 0.60000000
v -0.05121798 -0.00789021 0.00864964 0.54509804 0.71372549 0.60000000
v -0.05175140 -0.00666338 0.00909852 0.54509804 0.71372549 0.60000000
v -0.05245740 -0.00536250 0.00937523 0.54509804 0.71372549 0.60000000
v -0.02018547 0.00167019 0.01074033 0.54509804 0.71372549 0.60000000
v 0.00320658 0.00167019 0.01067884 0.54509804 0.71372549 0.60000000
v 0.00515199 0.00167019 0.01066859 0.54509804 0.71372549 0.60000000
v 0.04219333 0.00167019 0.01037958 0.54509804 0.71372549 0.60000000
v 0.04413874 0.00167019 0.01035704 0.54509804 0.71372549 0.60000000
v 0.04609985 0.00167019 0.01033039 0.54509804 0.71372549 0.60000000
v 0.04804526 0.00167019 0.01029555 0.54509804 0.71372549 0.60000000
v 0.04999068 0.00167019 0.01022791 0.54509804 0.71372549 0.60000000
v 0.04999068 0.00362028 0.01018076 0.54509804 0.71372549 0.60000000
v 0.10683132 0.00500016 0.00748542 0.54509804 0.71372549 0.60000000
v 0.10683132 0.00514086 0.00743417 0.54509804 0.71372549 0.60000000
v 0.02854404 -0.00027991 -0.01009686 0.54509804 0.71372549 0.60000000
v 0.02661432 -0.00027991 -0.01010095 0.54509804 0.71372549 0.60000000
v 0.00126116 -0.00027991 -0.01013375 0.54509804 0.71372549 0.60000000
v 0.04999068 -0.00027991 -0.00999642 0.54509804 0.71372549 0.60000000
v 0.10683132 0.00167019 -0.00836076 0.54509804 0.71372549 0.60000000
v 0.04804526 -0.00027991 -0.01000667 0.54509804 0.71372549 0.60000000
v 0.03048946 -0.00027991 -0.01008866 0.54509804 0.71372549 0.60000000
v -0.04944514 -0.00612525 -0.00920934 0.54509804 0.71372549 0.60000000
v -0.05139056 -0.00612525 -0.00890803 0.54509804 0.71372549 0.60000000
v 0.04413874 -0.00612525 -0.00952909 0.54509804 0.71372549 0.60000000
v -0.03383475 -0.00612525 -0.00927903 0.54509804 0.71372549 0.60000000
v -0.03579586 -0.00612525 -0.00927083 0.54509804 0.71372549 0.60000000
v -0.03774127 -0.00612525 -0.00926263 0.54509804 0.71372549 0.60000000
v -0.04553862 -0.00612525 -0.00922779 0.54509804 0.71372549 0.60000000
v 0.03439598 -0.00612525 -0.00950039 0.54509804 0.71372549 0.60000000
v 0.03243487 -0.00612525 -0.00949425 0.54509804 0.71372549 0.60000000
v 0.00126116 -0.00417763 -0.00985499 0.54509804 0.71372549 0.60000000
v 0.02465321 -0.00222753 -0.01008046 0.54509804 0.71372549 0.60000000
v 0.02661432 -0.00417763 -0.00987959 0.54509804 0.71372549 0.60000000
v 0.04609985 -0.00612525 -0.00953319 0.54509804 0.71372549 0.60000000
v -0.02214657 -0.00027991 0.01080387 0.54509804 0.71372549 0.60000000
v -0.02018547 -0.00027991 0.01080592 0.54509804 0.71372549 0.60000000
v -0.05139056 -0.00417763 0.01001679 0.54509804 0.71372549 0.60000000
v -0.04944514 -0.00417763 0.01028735 0.54509804 0.71372549 0.60000000
v -0.04748404 -0.00222753 0.01063784 0.54509804 0.71372549 0.60000000
v -0.02214657 -0.00222753 0.01068909 0.54509804 0.71372549 0.60000000
v -0.05139056 -0.00747798 -0.00843250 0.54509804 0.71372549 0.60000000
v -0.05121798 -0.01144235 -0.00534977 0.54509804 0.71372549 0.60000000
v -0.05132780 -0.01252848 -0.00325088 0.54509804 0.71372549 0.60000000
v -0.04944514 -0.00875418 -0.00809226 0.54509804 0.71372549 0.60000000
v -0.05046491 -0.01101530 -0.00631312 0.54509804 0.71372549 0.60000000
v -0.05062180 -0.01299255 -0.00251914 0.54509804 0.71372549 0.60000000
v -0.04944514 -0.01329370 -0.00142460 0.54509804 0.71372549 0.60000000
v -0.04944514 -0.01341960 0.00052466 0.54509804 0.71372549 0.60000000
v -0.05139056 -0.01305179 0.00199224 0.54509804 0.71372549 0.60000000
v -0.04944514 -0.01293577 0.00337988 0.54509804 0.71372549 0.60000000
v -0.04944514 -0.01243221 0.00442317 0.54509804 0.71372549 0.60000000
v -0.04944514 -0.01147197 0.00599939 0.54509804 0.71372549 0.60000000
v -0.04944514 -0.01064256 0.00697504 0.54509804 0.71372549 0.60000000
v -0.04944514 -0.00966752 0.00782771 0.54509804 0.71372549 0.60000000
v -0.05044923 -0.00711758 0.00930759 0.54509804 0.71372549 0.60000000
v -0.05121798 -0.00605860 0.00950027 0.54509804 0.71372549 0.60000000
v 0.00320658 -0.00027991 0.01071368 0.54509804 0.71372549 0.60000000
v 0.00515199 -0.00027991 0.01069934 0.54509804 0.71372549 0.60000000
v 0.04219333 -0.00027991 0.01036728 0.54509804 0.71372549 0.60000000
v 0.04413874 -0.00027991 0.01034884 0.54509804 0.71372549 0.60000000
v 0.04609985 -0.00027991 0.01032629 0.54509804 0.71372549 0.60000000
v 0.04804526 -0.00027991 0.01027915 0.54509804 0.71372549 0.60000000
v 0.04999068 -0.00027991 0.01021151 0.54509804 0.71372549 0.60000000
v 0.10683132 -0.00027991 0.00789740 0.54509804 0.71372549 0.60000000
v 0.10683132 0.00167019 0.00788716 0.54509804 0.71372549 0.60000000
v 0.10683132 0.00362028 0.00773958 0.54509804 0.71372549 0.60000000
v 0.10683132 0.00382270 0.00770268 0.54509804 0.71372549 0.60000000
v 0.04219333 -0.00222753 -0.01001692 0.54509804 0.71372549 0.60000000
v 0.02854404 -0.00222753 -0.01007226 0.54509804 0.71372549 0.60000000
v 0.02661432 -0.00222753 -0.01007636 0.54509804 0.71372549 0.60000000
v 0.04999068 -0.00222753 -0.00996977 0.54509804 0.71372549 0.60000000
v 0.04804526 -0.00222753 -0.00998617 0.54509804 0.71372549 0.60000000
v 0.04609985 -0.00222753 -0.00999847 0.54509804 0.71372549 0.60000000
v 0.10683132 0.00138878 -0.00837306 0.54509804 0.71372549 0.60000000
v 0.10683132 -0.00027991 -0.00844070 0.54509804 0.71372549 0.60000000
v 0.04413874 -0.00222753 -0.01000872 0.54509804 0.71372549 0.60000000
v 0.03828681 -0.00807535 -0.00888754 0.54509804 0.71372549 0.60000000
v -0.04944514 -0.00777913 -0.00858008 0.54509804 0.71372549 0.60000000
v 0.04804526 -0.00807535 -0.00892853 0.54509804 0.71372549 0.60000000
v 0.04413874 -0.00807535 -0.00891213 0.54509804 0.71372549 0.60000000
v 0.04413874 -0.00417763 -0.00985704 0.54509804 0.71372549 0.60000000
v 0.02854404 -0.00417763 -0.00987754 0.54509804 0.71372549 0.60000000
v 0.04804526 -0.00612525 -0.00953319 0.54509804 0.71372549 0.60000000
v -0.02018547 -0.00222753 0.01069114 0.54509804 0.71372549 0.60000000
v 0.00126116 -0.00222753 0.01062350 0.54509804 0.71372549 0.60000000
v 0.00320658 -0.00222753 0.01061735 0.54509804 0.71372549 0.60000000
v -0.04944514 -0.00612525 0.00969704 0.54509804 0.71372549 0.60000000
v -0.04748404 -0.00612525 0.00971138 0.54509804 0.71372549 0.60000000
v -0.04553862 -0.00612525 0.00972368 0.54509804 0.71372549 0.60000000
v -0.04359320 -0.00612525 0.00972778 0.54509804 0.71372549 0.60000000
v -0.04164779 -0.00417763 0.01030374 0.54509804 0.71372549 0.60000000
v -0.02409199 -0.00417763 0.01033654 0.54509804 0.71372549 0.60000000
v -0.02214657 -0.00417763 0.01033859 0.54509804 0.71372549 0.60000000
v -0.04944514 -0.01171882 -0.00532312 0.54509804 0.71372549 0.60000000
v -0.04944514 -0.01267165 -0.00357473 0.54509804 0.71372549 0.60000000
v -0.04944514 -0.01002544 -0.00714120 0.54509804 0.71372549 0.60000000
v 0.03828681 -0.00925775 -0.00836691 0.54509804 0.71372549 0.60000000
v 0.04609985 -0.01026982 -0.00768437 0.54509804 0.71372549 0.60000000
v -0.04944514 -0.01102271 -0.00632337 0.54509804 0.71372549 0.60000000
v -0.04944514 -0.01301477 -0.00260113 0.54509804 0.71372549 0.60000000
v -0.04748404 -0.01301477 -0.00261342 0.54509804 0.71372549 0.60000000
v 0.04804526 -0.01279260 -0.00366902 0.54509804 0.71372549 0.60000000
v 0.04804526 -0.01301477 -0.00269336 0.54509804 0.71372549 0.60000000
v 0.04609985 -0.01318509 -0.00142460 0.54509804 0.71372549 0.60000000
v 0.04609985 -0.01323693 0.00052466 0.54509804 0.71372549 0.60000000
v 0.04609985 -0.01306660 0.00228329 0.54509804 0.71372549 0.60000000
v 0.04609985 -0.01292343 0.00325895 0.54509804 0.71372549 0.60000000
v -0.04944514 -0.01313819 0.00240423 0.54509804 0.71372549 0.60000000
v 0.04804526 -0.01318262 -0.00142460 0.54509804 0.71372549 0.60000000
v 0.04609985 -0.01250873 0.00442317 0.54509804 0.71372549 0.60000000
v 0.04609985 -0.01156330 0.00625355 0.54509804 0.71372549 0.60000000
v 0.04413874 -0.01156083 0.00624945 0.54509804 0.71372549 0.60000000
v -0.04748404 -0.01065244 0.00697914 0.54509804 0.71372549 0.60000000
v 0.04804526 -0.01089435 0.00723125 0.54509804 0.71372549 0.60000000
v 0.03828681 -0.01087953 0.00721281 0.54509804 0.71372549 0.60000000
v -0.04748404 -0.00967739 0.00783386 0.54509804 0.71372549 0.60000000
v -0.04944514 -0.00811238 0.00880337 0.54509804 0.71372549 0.60000000
v -0.04748404 -0.00813953 0.00880952 0.54509804 0.71372549 0.60000000
v -0.04944514 -0.00713733 0.00931784 0.54509804 0.71372549 0.60000000
v 0.00515199 -0.00222753 0.01060505 0.54509804 0.71372549 0.60000000
v 0.04413874 -0.00222753 0.01030784 0.54509804 0.71372549 0.60000000
v 0.04609985 -0.00222753 0.01028735 0.54509804 0.71372549 0.60000000
v 0.04804526 -0.00222753 0.01023815 0.54509804 0.71372549 0.60000000
v 0.04999068 -0.00222753 0.01016437 0.54509804 0.71372549 0.60000000
v 0.10683132 -0.00194613 0.00779492 0.54509804 0.71372549 0.60000000
v 0.04609985 -0.00417763 -0.00985294 0.54509804 0.71372549 0.60000000
v 0.04999068 -0.00417763 -0.00981605 0.54509804 0.71372549 0.60000000
v 0.04804526 -0.00417763 -0.00983859 0.54509804 0.71372549 0.60000000
v 0.10683132 -0.00222753 -0.00841406 0.54509804 0.71372549 0.60000000
v 0.10683132 -0.00245463 -0.00839766 0.54509804 0.71372549 0.60000000
v 0.10683132 -0.00372096 -0.00830542 0.54509804 0.71372549 0.60000000
v 0.04413874 -0.00928737 -0.00837921 0.54509804 0.71372549 0.60000000
v 0.04999068 -0.00807535 -0.00892648 0.54509804 0.71372549 0.60000000
v 0.04999068 -0.00929971 -0.00839151 0.54509804 0.71372549 0.60000000
v 0.04804526 -0.00929971 -0.00838741 0.54509804 0.71372549 0.60000000
v 0.04609985 -0.00929477 -0.00838331 0.54509804 0.71372549 0.60000000
v 0.04999068 -0.00612525 -0.00951474 0.54509804 0.71372549 0.60000000
v -0.02018547 -0.00417763 0.01034064 0.54509804 0.71372549 0.60000000
v -0.01824005 -0.00417763 0.01033859 0.54509804 0.71372549 0.60000000
v 0.00320658 -0.00417763 0.01030784 0.54509804 0.71372549 0.60000000
v 0.00515199 -0.00417763 0.01030169 0.54509804 0.71372549 0.60000000
v 0.03634139 -0.00417763 0.01017051 0.54509804 0.71372549 0.60000000
v 0.03828681 -0.00417763 0.01016232 0.54509804 0.71372549 0.60000000
v 0.04024791 -0.00417763 0.01015002 0.54509804 0.71372549 0.60000000
v -0.04748404 -0.00716448 0.00933014 0.54509804 0.71372549 0.60000000
v -0.04553862 -0.00718176 0.00934039 0.54509804 0.71372549 0.60000000
v -0.04359320 -0.00718670 0.00934449 0.54509804 0.71372549 0.60000000
v 0.04024791 -0.00731259 0.00939573 0.54509804 0.71372549 0.60000000
v -0.04164779 -0.00612525 0.00972983 0.54509804 0.71372549 0.60000000
v -0.04748404 -0.01173856 -0.00532312 0.54509804 0.71372549 0.60000000
v -0.04748404 -0.01268893 -0.00358908 0.54509804 0.71372549 0.60000000
v 0.04804526 -0.01027476 -0.00768642 0.54509804 0.71372549 0.60000000
v 0.04609985 -0.01131152 -0.00671076 0.54509804 0.71372549 0.60000000
v 0.04804526 -0.01213352 -0.00532312 0.54509804 0.71372549 0.60000000
v 0.04999068 -0.01212118 -0.00532312 0.54509804 0.71372549 0.60000000
v 0.04999068 -0.01278767 -0.00362597 0.54509804 0.71372549 0.60000000
v 0.04999068 -0.01300489 -0.00265032 0.54509804 0.71372549 0.60000000
v 0.04804526 -0.01322952 0.00052466 0.54509804 0.71372549 0.60000000
v 0.04804526 -0.01306167 0.00226280 0.54509804 0.71372549 0.60000000
v 0.04804526 -0.01292096 0.00323845 0.54509804 0.71372549 0.60000000
v 0.04804526 -0.01250132 0.00442317 0.54509804 0.71372549 0.60000000
v 0.04999068 -0.01315794 -0.00142460 0.54509804 0.71372549 0.60000000
v 0.04804526 -0.01155837 0.00625560 0.54509804 0.71372549 0.60000000
v 0.04999068 -0.01154602 0.00624330 0.54509804 0.71372549 0.60000000
v 0.04999068 -0.01088200 0.00721691 0.54509804 0.71372549 0.60000000
v 0.04804526 -0.00991930 0.00795685 0.54509804 0.71372549 0.60000000
v 0.04609985 -0.00991436 0.00796095 0.54509804 0.71372549 0.60000000
v 0.03828681 -0.00990449 0.00795070 0.54509804 0.71372549 0.60000000
v 0.04609985 -0.01088941 0.00722920 0.54509804 0.71372549 0.60000000
v 0.04413874 -0.01088694 0.00722511 0.54509804 0.71372549 0.60000000
v 0.04024791 -0.00828764 0.00892635 0.54509804 0.71372549 0.60000000
v 0.04413874 -0.00417763 0.01012132 0.54509804 0.71372549 0.60000000
v 0.04609985 -0.00417763 0.01010287 0.54509804 0.71372549 0.60000000
v 0.04804526 -0.00417763 0.01006598 0.54509804 0.71372549 0.60000000
v 0.04999068 -0.00417763 0.01000449 0.54509804 0.71372549 0.60000000
v 0.10683132 -0.00222753 0.00777647 0.54509804 0.71372549 0.60000000
v 0.10683132 -0.00386166 -0.00829107 0.54509804 0.71372549 0.60000000
v 0.10683132 -0.00469601 -0.00819884 0.54509804 0.71372549 0.60000000
v 0.05193609 -0.00807535 -0.00887934 0.54509804 0.71372549 0.60000000
v 0.05193609 -0.00926022 -0.00836691 0.54509804 0.71372549 0.60000000
v 0.05193609 -0.01023526 -0.00764952 0.54509804 0.71372549 0.60000000
v 0.04999068 -0.01027476 -0.00767207 0.54509804 0.71372549 0.60000000
v 0.10683132 -0.00612525 -0.00796722 0.54509804 0.71372549 0.60000000
v -0.02799851 -0.00612525 0.00974008 0.54509804 0.71372549 0.60000000
v 0.04219333 -0.00731506 0.00939573 0.54509804 0.71372549 0.60000000
v 0.03828681 -0.00612525 0.00975033 0.54509804 0.71372549 0.60000000
v 0.04024791 -0.00612525 0.00974828 0.54509804 0.71372549 0.60000000
v 0.04219333 -0.00612525 0.00974008 0.54509804 0.71372549 0.60000000
v 0.04219333 -0.00829011 0.00892840 0.54509804 0.71372549 0.60000000
v 0.04804526 -0.01131646 -0.00671076 0.54509804 0.71372549 0.60000000
v 0.04999068 -0.01130905 -0.00669641 0.54509804 0.71372549 0.60000000
v 0.05193609 -0.01128683 -0.00667387 0.54509804 0.71372549 0.60000000
v 0.05193609 -0.01206934 -0.00532312 0.54509804 0.71372549 0.60000000
v 0.05193609 -0.01276051 -0.00351119 0.54509804 0.71372549 0.60000000
v 0.05193609 -0.01298021 -0.00253759 0.54509804 0.71372549 0.60000000
v 0.04999068 -0.01319496 0.00052466 0.54509804 0.71372549 0.60000000
v 0.04999068 -0.01304192 0.00214596 0.54509804 0.71372549 0.60000000
v 0.04999068 -0.01290368 0.00311957 0.54509804 0.71372549 0.60000000
v 0.04999068 -0.01247664 0.00442317 0.54509804 0.71372549 0.60000000
v 0.05193609 -0.01310857 -0.00142460 0.54509804 0.71372549 0.60000000
v 0.05193609 -0.01151640 0.00620026 0.54509804 0.71372549 0.60000000
v 0.05193609 -0.01084498 0.00717591 0.54509804 0.71372549 0.60000000
v 0.05193609 -0.00986993 0.00791175 0.54509804 0.71372549 0.60000000
v 0.04999068 -0.00990696 0.00793840 0.54509804 0.71372549 0.60000000
v 0.04804526 -0.00823827 0.00893250 0.54509804 0.71372549 0.60000000
v 0.04609985 -0.00826789 0.00893660 0.54509804 0.71372549 0.60000000
v 0.04413874 -0.00828270 0.00893250 0.54509804 0.71372549 0.60000000
v 0.04413874 -0.00612525 0.00972573 0.54509804 0.71372549 0.60000000
v 0.04609985 -0.00612525 0.00970933 0.54509804 0.71372549 0.60000000
v 0.04804526 -0.00612525 0.00968269 0.54509804 0.71372549 0.60000000
v 0.04999068 -0.00612525 0.00963554 0.54509804 0.71372549 0.60000000
v 0.05193609 -0.00417763 0.00992045 0.54509804 0.71372549 0.60000000
v 0.10683132 -0.00374811 0.00755101 0.54509804 0.71372549 0.60000000
v 0.10683132 -0.00807535 -0.00717399 0.54509804 0.71372549 0.60000000
v 0.10683132 -0.00916395 -0.00642995 0.54509804 0.71372549 0.60000000
v 0.04413874 -0.00730765 0.00939163 0.54509804 0.71372549 0.60000000
v 0.04609985 -0.00729284 0.00938138 0.54509804 0.71372549 0.60000000
v 0.10683132 -0.00925775 -0.00627008 0.54509804 0.71372549 0.60000000
v 0.10683132 -0.00979834 -0.00532312 0.54509804 0.71372549 0.60000000
v 0.10683132 -0.00990696 -0.00504231 0.54509804 0.71372549 0.60000000
v 0.10683132 -0.01055123 -0.00337386 0.54509804 0.71372549 0.60000000
v 0.05300293 -0.01296046 -0.00244125 0.54509804 0.71372549 0.60000000
v 0.05193609 -0.01313819 0.00052466 0.54509804 0.71372549 0.60000000
v 0.05193609 -0.01301230 0.00194714 0.54509804 0.71372549 0.60000000
v 0.05193609 -0.01287900 0.00292075 0.54509804 0.71372549 0.60000000
v 0.10683132 -0.01064256 0.00247392 0.54509804 0.71372549 0.60000000
v 0.05193609 -0.01241986 0.00442317 0.54509804 0.71372549 0.60000000
v 0.10683132 -0.01101530 -0.00055758 0.54509804 0.71372549 0.60000000
v 0.10683132 -0.00982797 0.00442317 0.54509804 0.71372549 0.60000000
v 0.10683132 -0.00972923 0.00457690 0.54509804 0.71372549 0.60000000
v 0.10683132 -0.00913679 0.00548696 0.54509804 0.71372549 0.60000000
v 0.04999068 -0.00818890 0.00891405 0.54509804 0.71372549 0.60000000
v 0.10683132 -0.00898622 0.00558125 0.54509804 0.71372549 0.60000000
v 0.10683132 -0.00807535 0.00613877 0.54509804 0.71372549 0.60000000
v 0.04804526 -0.00726322 0.00936703 0.54509804 0.71372549 0.60000000
v 0.04999068 -0.00721385 0.00934654 0.54509804 0.71372549 0.60000000
v 0.05137129 -0.00715708 0.00932194 0.54509804 0.71372549 0.60000000
v 0.05199885 -0.00628817 0.00950846 0.54509804 0.71372549 0.60000000
v 0.10683132 -0.00497988 0.00731324 0.54509804 0.71372549 0.60000000
v 0.10683132 -0.00483918 0.00734194 0.54509804 0.71372549 0.60000000
v 0.10683132 -0.00400483 0.00751206 0.54509804 0.71372549 0.60000000
v 0.10683132 -0.01059813 -0.00312790 0.54509804 0.71372549 0.60000000
v 0.10683132 -0.01089435 -0.00153324 0.54509804 0.71372549 0.60000000
v 0.10683132 -0.01101530 -0.00030137 0.54509804 0.71372549 0.60000000
v 0.05325396 -0.01298268 0.00172373 0.54509804 0.71372549 0.60000000
v 0.10683132 -0.01092644 0.00067019 0.54509804 0.71372549 0.60000000
v 0.05199885 -0.00791490 0.00895915 0.54509804 0.71372549 0.60000000
v 0.10683132 -0.00779641 0.00626175 0.54509804 0.71372549 0.60000000
v 0.10683132 -0.00612525 0.00698939 0.54509804 0.71372549 0.60000000
v 0.10683132 -0.00596233 0.00703653 0.54509804 0.71372549 0.60000000
v 0.10683132 -0.01100296 -0.00016199 0.54509804 0.71372549 0.60000000
f 1 2 3
f 1 3 4
f 1 4 5
f 1 5 6
f 1 6 7
f 1 7 2
f 2 8 3
f 2 7 9
f 2 9 10
f 2 10 11
f 2 11 12
f 2 12 8
f 3 8 13
f 3 13 14
f 3 14 15
f 3 15 4
f 4 15 16
f 4 16 5
f 5 16 17
f 5 17 18
f 5 18 19
f 5 19 20
f 5 20 6
f 6 20 21
f 6 21 22
f 6 22 7
f 7 22 9
f 8 23 24
f 8 24 25
f 8 25 13
f 8 12 26
f 8 26 23
f 9 22 27
f 9 27 28
f 9 28 10
f 10 28 26
f 10 26 11
f 11 26 12
f 13 25 29
f 13 29 14
f 14 29 30
f 14 30 31
f 14 31 15
f 15 32 16
f 15 31 33
f 15 33 34
f 15 34 32
f 16 32 35
f 16 35 17
f 17 35 36
f 17 36 18
f 18 36 37
f 18 37 19
f 19 37 38
f 19 38 39
f 19 39 40
f 19 40 20
f 20 40 41
f 20 41 21
f 21 41 42
f 21 42 22
f 22 42 27
f 23 26 43
f 23 43 24
f 24 44 25
f 24 43 45
f 24 45 44
f 25 46 29
f 25 44 46
f 26 28 43
f 27 47 28
f 27 42 48
f 27 48 82
f 27 82 49
f 27 49 50
f 27 50 51
f 27 51 52
f 27 52 53
f 27 53 54
f 27 54 47
f 28 47 55
f 28 55 43
f 29 46 56
f 29 56 57
f 29 57 58
f 29 58 59
f 29 59 30
f 30 59 31
f 31 59 60
f 31 60 33
f 32 34 61
f 32 61 35
f 33 60 62
f 33 62 63
f 33 63 34
f 34 63 64
f 34 64 61
f 35 65 36
f 35 61 65
f 36 65 66
f 36 66 67
f 36 67 68
f 36 68 37
f 37 68 69
f 37 69 38
f 38 70 71
f 38 71 72
f 38 72 73
f 38 73 39
f 38 69 70
f 39 74 40
f 39 73 75
f 39 75 74
f 40 76 41
f 40 74 77
f 40 77 76
f 41 76 48
f 41 48 42
f 43 78 45
f 43 55 79
f 43 79 78
f 44 80 81
f 44 81 46
f 44 45 78
f 44 78 80
f 46 81 56
f 47 54 55
f 48 76 82
f 49 82 83
f 49 83 50
f 50 84 85
f 50 85 51
f 50 83 86
f 50 86 87
f 50 87 88
f 50 88 89
f 50 89 84
f 51 85 90
f 51 90 52
f 52 90 53
f 53 90 55
f 53 55 54
f 55 90 79
f 56 81 91
f 56 91 92
f 56 92 93
f 56 93 57
f 57 93 94
f 57 94 95
f 57 95 96
f 57 96 97
f 57 97 58
f 58 97 59
f 59 97 60
f 60 97 98
f 60 98 62
f 61 64 99
f 61 99 100
f 61 100 65
f 62 98 101
f 62 101 102
f 62 102 103
f 62 103 63
f 63 103 64
f 64 103 104
f 64 104 99
f 65 105 66
f 65 100 106
f 65 106 105
f 66 105 107
f 66 107 108
f 66 108 67
f 67 108 109
f 67 109 68
f 68 109 110
f 68 110 69
f 69 110 111
f 69 111 70
f 70 111 112
f 70 112 71
f 71 112 113
f 71 113 72
f 72 113 114
f 72 114 115
f 72 115 73
f 73 115 116
f 73 116 117
f 73 117 118
f 73 118 75
f 74 75 118
f 74 118 117
f 74 117 119
f 74 119 120
f 74 120 121
f 74 121 77
f 76 77 82
f 77 121 122
f 77 122 82
f 78 79 123
f 78 123 124
f 78 124 80
f 79 90 125
f 79 125 126
f 79 126 123
f 80 127 128
f 80 128 81
f 80 124 127
f 81 128 91
f 82 122 83
f 83 122 86
f 84 129 130
f 84 130 85
f 84 89 129
f 85 130 131
f 85 131 125
f 85 125 90
f 86 122 132
f 86 132 87
f 87 132 133
f 87 133 183
f 87 183 134
f 87 134 88
f 88 134 135
f 88 135 136
f 88 136 89
f 89 136 135
f 89 135 184
f 89 184 236
f 89 236 235
f 89 235 234
f 89 234 289
f 89 289 288
f 89 288 276
f 89 276 275
f 89 275 218
f 89 218 217
f 89 217 216
f 89 216 274
f 89 274 337
f 89 337 394
f 89 394 393
f 89 393 447
f 89 447 446
f 89 446 445
f 89 445 444
f 89 444 505
f 89 505 556
f 89 556 593
f 89 593 621
f 89 621 620
f 89 620 619
f 89 619 630
f 89 630 629
f 89 629 628
f 89 628 614
f 89 614 613
f 89 613 611
f 89 611 610
f 89 610 609
f 89 609 606
f 89 606 626
f 89 626 631
f 89 631 624
f 89 624 608
f 89 608 623
f 89 623 622
f 89 622 601
f 89 601 600
f 89 600 599
f 89 599 598
f 89 598 595
f 89 595 594
f 89 594 563
f 89 563 558
f 89 558 557
f 89 557 511
f 89 511 510
f 89 510 509
f 89 509 455
f 89 455 454
f 89 454 399
f 89 399 346
f 89 346 345
f 89 345 290
f 89 290 237
f 89 237 185
f 89 185 137
f 89 137 129
f 91 138 92
f 91 128 138
f 92 139 94
f 92 94 93
f 92 138 140
f 92 140 139
f 94 139 95
f 95 139 141
f 95 141 142
f 95 142 143
f 95 143 96
f 96 143 97
f 97 143 144
f 97 144 145
f 97 145 98
f 98 145 146
f 98 146 101
f 99 104 147
f 99 147 100
f 100 148 149
f 100 149 105
f 100 105 106
f 100 147 150
f 100 150 148
f 101 151 152
f 101 152 153
f 101 153 154
f 101 154 155
f 101 155 156
f 101 156 102
f 101 146 151
f 102 156 103
f 103 156 157
f 103 157 104
f 104 157 158
f 104 158 147
f 105 149 159
f 105 159 107
f 107 159 160
f 107 160 108
f 108 160 161
f 108 161 109
f 109 161 110
f 110 161 162
f 110 162 111
f 111 162 112
f 112 162 113
f 113 162 114
f 114 163 115
f 114 162 164
f 114 164 163
f 115 163 165
f 115 165 166
f 115 166 116
f 116 166 117
f 117 166 167
f 117 167 119
f 119 167 168
f 119 168 169
f 119 169 120
f 120 122 121
f 120 169 132
f 120 132 122
f 123 170 171
f 123 171 124
f 123 126 172
f 123 172 173
f 123 173 170
f 124 171 127
f 125 131 126
f 126 131 174
f 126 174 175
f 126 175 172
f 127 171 128
f 128 176 138
f 128 171 177
f 128 177 178
f 128 178 176
f 129 179 180
f 129 180 181
f 129 181 130
f 129 137 179
f 130 181 174
f 130 174 131
f 132 169 133
f 133 169 182
f 133 182 183
f 134 183 135
f 135 183 184
f 137 185 186
f 137 186 179
f 138 176 140
f 139 140 187
f 139 187 141
f 140 176 188
f 140 188 187
f 141 189 142
f 141 187 190
f 141 190 189
f 142 191 144
f 142 144 143
f 142 189 191
f 144 191 192
f 144 192 145
f 145 192 193
f 145 193 146
f 146 193 151
f 147 158 150
f 148 150 194
f 148 194 195
f 148 195 159
f 148 159 149
f 150 158 196
f 150 196 197
f 150 197 194
f 151 193 198
f 151 198 199
f 151 199 152
f 152 199 153
f 153 199 154
f 154 199 200
f 154 200 155
f 155 200 201
f 155 201 202
f 155 202 156
f 156 202 203
f 156 203 157
f 157 203 204
f 157 204 158
f 158 204 196
f 159 195 205
f 159 205 160
f 160 205 206
f 160 206 207
f 160 207 208
f 160 208 209
f 160 209 210
f 160 210 211
f 160 211 161
f 161 211 212
f 161 212 162
f 162 212 213
f 162 213 164
f 163 164 214
f 163 214 215
f 163 215 216
f 163 216 217
f 163 217 218
f 163 218 165
f 164 213 270
f 164 270 214
f 165 219 166
f 165 218 219
f 166 219 167
f 167 220 221
f 167 221 168
f 167 219 222
f 167 222 220
f 168 221 169
f 169 221 220
f 169 220 182
f 170 223 224
f 170 224 225
f 170 225 171
f 170 173 223
f 171 225 177
f 172 175 226
f 172 226 227
f 172 227 173
f 173 227 223
f 174 181 175
f 175 181 180
f 175 180 179
f 175 179 186
f 175 186 228
f 175 228 229
f 175 229 226
f 176 178 188
f 177 230 231
f 177 231 178
f 177 225 230
f 178 231 188
f 182 220 232
f 182 232 233
f 182 233 183
f 183 233 234
f 183 234 235
f 183 235 236
f 183 236 184
f 185 237 186
f 186 237 228
f 187 188 238
f 187 238 241
f 187 241 190
f 188 231 287
f 188 287 238
f 189 190 239
f 189 239 240
f 189 240 191
f 190 241 239
f 191 242 192
f 191 240 242
f 192 242 193
f 193 242 243
f 193 243 198
f 194 197 244
f 194 244 245
f 194 245 195
f 195 245 246
f 195 246 205
f 196 204 247
f 196 247 248
f 196 248 197
f 197 248 249
f 197 249 244
f 198 243 299
f 198 299 250
f 198 250 199
f 199 251 252
f 199 252 200
f 199 250 253
f 199 253 254
f 199 254 251
f 200 252 255
f 200 255 201
f 201 255 256
f 201 256 257
f 201 257 258
f 201 258 202
f 202 258 259
f 202 259 203
f 203 259 247
f 203 247 204
f 205 246 206
f 206 246 207
f 207 246 260
f 207 260 208
f 208 260 209
f 209 260 261
f 209 261 210
f 210 261 211
f 211 262 263
f 211 263 264
f 211 264 265
f 211 265 212
f 211 261 266
f 211 266 267
f 211 267 262
f 212 265 268
f 212 268 269
f 212 269 213
f 213 269 270
f 214 270 271
f 214 271 215
f 215 271 272
f 215 272 273
f 215 273 274
f 215 274 216
f 218 275 222
f 218 222 219
f 220 222 232
f 222 275 276
f 222 276 232
f 223 277 224
f 223 227 286
f 223 286 277
f 224 277 278
f 224 278 225
f 225 278 279
f 225 279 280
f 225 280 281
f 225 281 230
f 226 282 283
f 226 283 227
f 226 229 284
f 226 284 285
f 226 285 282
f 227 283 286
f 228 284 229
f 228 237 284
f 230 281 231
f 231 281 287
f 232 276 288
f 232 288 233
f 233 288 289
f 233 289 234
f 237 290 284
f 238 287 294
f 238 294 291
f 238 291 241
f 239 292 293
f 239 293 240
f 239 241 291
f 239 291 294
f 239 294 295
f 239 295 296
f 239 296 297
f 239 297 292
f 240 293 298
f 240 298 242
f 242 298 243
f 243 298 299
f 244 249 300
f 244 300 245
f 245 300 246
f 246 300 301
f 246 301 302
f 246 302 261
f 246 261 260
f 247 259 303
f 247 303 248
f 248 303 249
f 249 303 304
f 249 304 305
f 249 305 300
f 250 299 306
f 250 306 307
f 250 307 308
f 250 308 309
f 250 309 253
f 251 254 310
f 251 310 311
f 251 311 312
f 251 312 252
f 252 312 255
f 253 309 313
f 253 313 254
f 254 313 310
f 255 312 314
f 255 314 315
f 255 315 316
f 255 316 256
f 256 316 317
f 256 317 318
f 256 318 319
f 256 319 257
f 257 319 320
f 257 320 321
f 257 321 258
f 258 321 259
f 259 321 303
f 261 302 266
f 262 267 302
f 262 302 263
f 263 302 322
f 263 322 323
f 263 323 264
f 264 323 324
f 264 324 325
f 264 325 326
f 264 326 265
f 265 326 327
f 265 327 328
f 265 328 329
f 265 329 330
f 265 330 331
f 265 331 332
f 265 332 268
f 266 302 267
f 268 332 333
f 268 333 269
f 269 333 334
f 269 334 335
f 269 335 272
f 269 272 271
f 269 271 270
f 272 335 273
f 273 335 336
f 273 336 337
f 273 337 274
f 277 286 338
f 277 338 339
f 277 339 278
f 278 339 279
f 279 339 340
f 279 340 341
f 279 341 342
f 279 342 280
f 280 342 281
f 281 342 294
f 281 294 287
f 282 285 343
f 282 343 283
f 283 343 344
f 283 344 347
f 283 347 286
f 284 343 285
f 284 290 345
f 284 345 346
f 284 346 343
f 286 347 338
f 292 348 349
f 292 349 293
f 292 297 350
f 292 350 348
f 293 349 351
f 293 351 298
f 294 352 295
f 294 342 355
f 294 355 352
f 295 352 296
f 296 353 354
f 296 354 350
f 296 350 297
f 296 352 355
f 296 355 356
f 296 356 357
f 296 357 358
f 296 358 359
f 296 359 353
f 298 351 299
f 299 351 306
f 300 305 360
f 300 360 301
f 301 360 361
f 301 361 302
f 302 361 362
f 302 362 322
f 303 363 304
f 303 321 363
f 304 363 364
f 304 364 365
f 304 365 360
f 304 360 305
f 306 351 366
f 306 366 307
f 307 366 367
f 307 367 308
f 308 368 309
f 308 367 369
f 308 369 370
f 308 370 371
f 308 371 368
f 309 368 313
f 310 372 373
f 310 373 374
f 310 374 311
f 310 313 368
f 310 368 372
f 311 374 375
f 311 375 312
f 312 375 314
f 314 375 315
f 315 375 376
f 315 376 377
f 315 377 378
f 315 378 379
f 315 379 317
f 315 317 316
f 317 379 380
f 317 380 381
f 317 381 382
f 317 382 383
f 317 383 318
f 318 383 319
f 319 383 320
f 320 383 363
f 320 363 321
f 322 362 384
f 322 384 323
f 323 384 324
f 324 384 325
f 325 384 326
f 326 384 327
f 327 384 385
f 327 385 328
f 328 385 329
f 329 385 330
f 330 385 386
f 330 386 331
f 331 386 332
f 332 387 333
f 332 386 387
f 333 387 388
f 333 388 389
f 333 389 334
f 334 389 390
f 334 390 391
f 334 391 392
f 334 392 336
f 334 336 335
f 336 392 393
f 336 393 394
f 336 394 337
f 338 395 339
f 338 347 395
f 339 395 396
f 339 396 397
f 339 397 340
f 340 397 356
f 340 356 341
f 341 356 342
f 342 356 355
f 343 398 400
f 343 400 344
f 343 346 399
f 343 399 398
f 344 400 401
f 344 401 395
f 344 395 347
f 348 402 403
f 348 403 349
f 348 350 402
f 349 403 367
f 349 367 366
f 349 366 351
f 350 354 402
f 353 359 404
f 353 404 354
f 354 405 406
f 354 406 407
f 354 407 408
f 354 408 402
f 354 404 409
f 354 409 410
f 354 410 405
f 356 397 357
f 357 411 358
f 357 397 412
f 357 412 413
f 357 413 411
f 358 411 414
f 358 414 404
f 358 404 359
f 360 365 361
f 361 365 415
f 361 415 362
f 362 415 416
f 362 416 384
f 363 383 417
f 363 417 364
f 364 417 418
f 364 418 419
f 364 419 365
f 365 419 420
f 365 420 415
f 367 403 421
f 367 421 369
f 368 371 422
f 368 422 423
f 368 423 372
f 369 421 424
f 369 424 425
f 369 425 370
f 370 425 371
f 371 425 422
f 372 423 426
f 372 426 373
f 373 426 427
f 373 427 428
f 373 428 374
f 374 428 429
f 374 429 375
f 375 429 376
f 376 429 430
f 376 430 377
f 377 430 431
f 377 431 378
f 378 431 432
f 378 432 433
f 378 433 379
f 379 433 380
f 380 433 434
f 380 434 435
f 380 435 381
f 381 435 382
f 382 435 436
f 382 436 383
f 383 436 417
f 384 416 385
f 385 416 437
f 385 437 386
f 386 437 438
f 386 438 387
f 387 439 440
f 387 440 441
f 387 441 388
f 387 438 439
f 388 441 389
f 389 441 390
f 390 441 442
f 390 442 443
f 390 443 391
f 391 443 444
f 391 444 445
f 391 445 392
f 392 445 446
f 392 446 447
f 392 447 393
f 395 401 456
f 395 456 448
f 395 448 449
f 395 449 450
f 395 450 396
f 396 450 412
f 396 412 397
f 398 451 452
f 398 452 453
f 398 453 400
f 398 399 454
f 398 454 455
f 398 455 509
f 398 509 451
f 400 453 456
f 400 456 401
f 402 408 457
f 402 457 458
f 402 458 421
f 402 421 403
f 404 414 459
f 404 459 409
f 405 410 459
f 405 459 406
f 406 459 460
f 406 460 457
f 406 457 407
f 407 457 408
f 409 459 410
f 411 413 414
f 412 450 506
f 412 506 461
f 412 461 462
f 412 462 413
f 413 462 463
f 413 463 414
f 414 463 459
f 415 420 464
f 415 464 416
f 416 464 465
f 416 465 466
f 416 466 437
f 417 436 435
f 417 435 418
f 418 435 467
f 418 467 468
f 418 468 469
f 418 469 470
f 418 470 471
f 418 471 419
f 419 471 420
f 420 472 473
f 420 473 518
f 420 518 464
f 420 471 472
f 421 458 424
f 422 425 474
f 422 474 475
f 422 475 423
f 423 475 426
f 424 476 425
f 424 458 477
f 424 477 478
f 424 478 476
f 425 476 479
f 425 479 474
f 426 475 480
f 426 480 427
f 427 480 481
f 427 481 482
f 427 482 483
f 427 483 484
f 427 484 428
f 428 485 486
f 428 486 487
f 428 487 488
f 428 488 429
f 428 484 489
f 428 489 485
f 429 488 430
f 430 488 487
f 430 487 490
f 430 490 431
f 431 490 491
f 431 491 492
f 431 492 432
f 432 493 433
f 432 492 494
f 432 494 495
f 432 495 493
f 433 493 496
f 433 496 434
f 434 497 435
f 434 496 498
f 434 498 497
f 435 497 499
f 435 499 467
f 437 466 500
f 437 500 438
f 438 500 501
f 438 501 439
f 439 501 440
f 440 501 502
f 440 502 441
f 441 502 442
f 442 502 503
f 442 503 443
f 443 503 504
f 443 504 444
f 444 504 505
f 448 456 506
f 448 506 449
f 449 506 450
f 451 507 508
f 451 508 452
f 451 509 510
f 451 510 511
f 451 511 507
f 452 508 506
f 452 506 453
f 453 506 456
f 457 460 512
f 457 512 477
f 457 477 458
f 459 463 513
f 459 513 514
f 459 514 515
f 459 515 516
f 459 516 512
f 459 512 460
f 461 506 463
f 461 463 462
f 463 506 508
f 463 508 517
f 463 517 513
f 464 518 519
f 464 519 520
f 464 520 465
f 465 520 521
f 465 521 466
f 466 521 522
f 466 522 523
f 466 523 524
f 466 524 500
f 467 499 525
f 467 525 526
f 467 526 468
f 468 526 469
f 469 526 527
f 469 527 470
f 470 527 528
f 470 528 529
f 470 529 473
f 470 473 472
f 470 472 471
f 473 529 518
f 474 479 530
f 474 530 531
f 474 531 475
f 475 531 480
f 476 478 479
f 477 512 478
f 478 512 516
f 478 516 515
f 478 515 532
f 478 532 533
f 478 533 479
f 479 533 530
f 480 531 481
f 481 531 482
f 482 534 535
f 482 535 536
f 482 536 483
f 482 531 534
f 483 536 537
f 483 537 489
f 483 489 484
f 485 489 538
f 485 538 539
f 485 539 486
f 486 539 540
f 486 540 487
f 487 540 541
f 487 541 490
f 489 537 542
f 489 542 538
f 490 541 543
f 490 543 491
f 491 543 494
f 491 494 492
f 493 495 496
f 494 543 544
f 494 544 545
f 494 545 546
f 494 546 547
f 494 547 548
f 494 548 549
f 494 549 550
f 494 550 495
f 495 550 548
f 495 548 496
f 496 548 498
f 497 498 525
f 497 525 499
f 498 527 526
f 498 526 525
f 498 548 551
f 498 551 527
f 500 524 552
f 500 552 501
f 501 552 553
f 501 553 502
f 502 553 554
f 502 554 503
f 503 554 555
f 503 555 504
f 504 555 556
f 504 556 505
f 507 517 508
f 507 511 557
f 507 557 558
f 507 558 517
f 513 517 559
f 513 559 560
f 513 560 514
f 514 560 561
f 514 561 562
f 514 562 532
f 514 532 515
f 517 558 563
f 517 563 559
f 518 529 564
f 518 564 565
f 518 565 566
f 518 566 567
f 518 567 519
f 519 567 520
f 520 567 521
f 521 567 522
f 522 567 568
f 522 568 523
f 523 568 524
f 524 568 588
f 524 588 552
f 527 551 569
f 527 569 528
f 528 569 565
f 528 565 564
f 528 564 529
f 530 533 534
f 530 534 531
f 532 562 570
f 532 570 533
f 533 570 534
f 534 570 535
f 535 571 572
f 535 572 573
f 535 573 536
f 535 570 571
f 536 573 574
f 536 574 575
f 536 575 537
f 537 575 542
f 538 542 576
f 538 576 577
f 538 577 539
f 539 577 578
f 539 578 540
f 540 578 579
f 540 579 541
f 541 579 544
f 541 544 543
f 542 575 580
f 542 580 576
f 544 579 581
f 544 581 545
f 545 581 582
f 545 582 583
f 545 583 584
f 545 584 546
f 546 584 585
f 546 585 586
f 546 586 587
f 546 587 547
f 547 587 569
f 547 569 551
f 547 551 548
f 548 550 549
f 552 588 589
f 552 589 553
f 553 590 554
f 553 589 590
f 554 590 591
f 554 591 555
f 555 591 592
f 555 592 556
f 556 592 593
f 559 563 594
f 559 594 560
f 560 594 595
f 560 595 561
f 561 572 562
f 561 595 572
f 562 572 571
f 562 571 570
f 565 567 566
f 565 569 587
f 565 587 586
f 565 586 596
f 565 596 567
f 567 596 568
f 568 596 597
f 568 597 588
f 572 595 598
f 572 598 573
f 573 598 599
f 573 599 600
f 573 600 601
f 573 601 574
f 574 602 575
f 574 601 602
f 575 602 580
f 576 580 603
f 576 603 604
f 576 604 577
f 577 604 605
f 577 605 578
f 578 605 606
f 578 606 607
f 578 607 579
f 579 607 581
f 580 602 608
f 580 608 603
f 581 607 609
f 581 609 610
f 581 610 611
f 581 611 582
f 582 611 583
f 583 612 584
f 583 611 613
f 583 613 614
f 583 614 612
f 584 612 585
f 585 612 615
f 585 615 597
f 585 597 586
f 586 597 596
f 588 597 589
f 589 597 615
f 589 615 590
f 590 615 616
f 590 616 591
f 591 616 617
f 591 617 618
f 591 618 619
f 591 619 620
f 591 620 621
f 591 621 592
f 592 621 593
f 601 622 602
f 602 622 623
f 602 623 608
f 603 624 625
f 603 625 604
f 603 608 624
f 604 625 626
f 604 626 605
f 605 626 606
f 606 609 607
f 612 614 627
f 612 627 617
f 612 617 616
f 612 616 615
f 614 628 627
f 617 627 628
f 617 628 629
f 617 629 630
f 617 630 619
f 617 619 618
f 624 631 625
f 625 631 626

