# https://github.com/mikedh/trimesh
v 0.12604914 -0.03147736 -0.01543527 0.56470588 0.92549020 0.07058824
v 0.12604914 -0.02952811 -0.01531182 0.56470588 0.92549020 0.07058824
v 0.12799875 -0.03147736 -0.01528536 0.56470588 0.92549020 0.07058824
v 0.12799875 -0.03342661 -0.01520894 0.56470588 0.92549020 0.07058824
v 0.12604914 -0.03342661 -0.01533533 0.56470588 0.92549020 0.07058824
v 0.12410280 -0.03147736 -0.01535885 0.56470588 0.92549020 0.07058824
v 0.12410280 -0.02952811 -0.01525009 0.56470588 0.92549020 0.07058824
v 0.12604914 -0.02757886 -0.01467985 0.56470588 0.92549020 0.07058824
v 0.12792995 -0.02742953 -0.01447997 0.56470588 0.92549020 0.07058824
v 0.12799875 -0.02952811 -0.01515015 0.56470588 0.92549020 0.07058824
v 0.12994837 -0.03147736 -0.01492970 0.56470588 0.92549020 0.07058824
v 0.12994837 -0.03342661 -0.01486797 0.56470588 0.92549020 0.07058824
v 0.12994837 -0.03537745 -0.01461519 0.56470588 0.92549020 0.07058824
v 0.12799875 -0.03537745 -0.01493852 0.56470588 0.92549020 0.07058824
v 0.12604914 -0.03537745 -0.01505609 0.56470588 0.92549020 0.07058824
v 0.12410280 -0.03342661 -0.01524421 0.56470588 0.92549020 0.07058824
v 0.12215318 -0.03147736 -0.01507079 0.56470588 0.92549020 0.07058824
v 0.12215318 -0.02952811 -0.01498261 0.56470588 0.92549020 0.07058824
v 0.12402743 -0.02739935 -0.01452407 0.56470588 0.92549020 0.07058824
v 0.12215318 -0.02778221 -0.01447997 0.56470588 0.92549020 0.07058824
v 0.12604914 -0.02655896 -0.01413901 0.56470588 0.92549020 0.07058824
v 0.12723529 -0.02658120 -0.01411843 0.56470588 0.92549020 0.07058824
v 0.12462707 -0.02656690 -0.01413313 0.56470588 0.92549020 0.07058824
v 0.12853612 -0.02668129 -0.01404495 0.56470588 0.92549020 0.07058824
v 0.12994837 -0.02795060 -0.01437122 0.56470588 0.92549020 0.07058824
v 0.12994837 -0.02952811 -0.01477685 0.56470588 0.92549020 0.07058824
v 0.13148840 -0.02952811 -0.01431243 0.56470588 0.92549020 0.07058824
v 0.13170466 -0.03147736 -0.01438885 0.56470588 0.92549020 0.07058824
v 0.13164241 -0.03342661 -0.01435946 0.56470588 0.92549020 0.07058824
v 0.13133440 -0.03537745 -0.01424189 0.56470588 0.92549020 0.07058824
v 0.12994837 -0.03668966 -0.01426834 0.56470588 0.92549020 0.07058824
v 0.13104277 -0.03643866 -0.01413901 0.56470588 0.92549020 0.07058824
v 0.12799875 -0.03696291 -0.01442413 0.56470588 0.92549020 0.07058824
v 0.12604914 -0.03705505 -0.01447703 0.56470588 0.92549020 0.07058824
v 0.12410280 -0.03702486 -0.01442119 0.56470588 0.92549020 0.07058824
v 0.12410280 -0.03537745 -0.01495028 0.56470588 0.92549020 0.07058824
v 0.12215318 -0.03537745 -0.01465340 0.56470588 0.92549020 0.07058824
v 0.12215318 -0.03342661 -0.01494146 0.56470588 0.92549020 0.07058824
v 0.12020029 -0.03147736 -0.01457404 0.56470588 0.92549020 0.07058824
v 0.12020029 -0.02952811 -0.01450349 0.56470588 0.92549020 0.07058824
v 0.11918125 -0.02851139 -0.01411843 0.56470588 0.92549020 0.07058824
v 0.12020029 -0.02821908 -0.01426246 0.56470588 0.92549020 0.07058824
v 0.12332950 -0.02662886 -0.01408022 0.56470588 0.92549020 0.07058824
v 0.12215318 -0.02680838 -0.01395970 0.56470588 0.92549020 0.07058824
v 0.12799875 -0.02303697 -0.01111145 0.56470588 0.92549020 0.07058824
v 0.12600327 -0.02303697 -0.01103208 0.56470588 0.92549020 0.07058824
v 0.13003684 -0.02303697 -0.01073815 0.56470588 0.92549020 0.07058824
v 0.12994837 -0.02697518 -0.01388328 0.56470588 0.92549020 0.07058824
v 0.13116729 -0.02832234 -0.01419485 0.56470588 0.92549020 0.07058824
v 0.13246485 -0.02952811 -0.01392737 0.56470588 0.92549020 0.07058824
v 0.13267783 -0.03147736 -0.01402143 0.56470588 0.92549020 0.07058824
v 0.13261885 -0.03342661 -0.01400086 0.56470588 0.92549020 0.07058824
v 0.13230757 -0.03537745 -0.01389210 0.56470588 0.92549020 0.07058824
v 0.12994837 -0.03766349 -0.01357171 0.56470588 0.92549020 0.07058824
v 0.12799875 -0.03793674 -0.01375983 0.56470588 0.92549020 0.07058824
v 0.13496167 -0.03652603 -0.01224017 0.56470588 0.92549020 0.07058824
v 0.13384760 -0.03696926 -0.01256056 0.56470588 0.92549020 0.07058824
v 0.13287115 -0.03830212 -0.01214905 0.56470588 0.92549020 0.07058824
v 0.12604914 -0.03803047 -0.01383919 0.56470588 0.92549020 0.07058824
v 0.12410280 -0.03800028 -0.01384507 0.56470588 0.92549020 0.07058824
v 0.12215318 -0.03675956 -0.01427716 0.56470588 0.92549020 0.07058824
v 0.12100963 -0.03648473 -0.01416252 0.56470588 0.92549020 0.07058824
v 0.12065575 -0.03537745 -0.01428891 0.56470588 0.92549020 0.07058824
v 0.12007906 -0.03345521 -0.01439767 0.56470588 0.92549020 0.07058824
v 0.11909605 -0.03282452 -0.01415664 0.56470588 0.92549020 0.07058824
v 0.11904691 -0.03147736 -0.01417428 0.56470588 0.92549020 0.07058824
v 0.11910917 -0.02952811 -0.01414488 0.56470588 0.92549020 0.07058824
v 0.12020029 -0.02724525 -0.01368634 0.56470588 0.92549020 0.07058824
v 0.11813600 -0.02952811 -0.01372749 0.56470588 0.92549020 0.07058824
v 0.11611429 -0.02938037 -0.01266344 0.56470588 0.92549020 0.07058824
v 0.11533772 -0.02863212 -0.01214023 0.56470588 0.92549020 0.07058824
v 0.11679256 -0.02757886 -0.01243123 0.56470588 0.92549020 0.07058824
v 0.11726768 -0.02660027 -0.01215199 0.56470588 0.92549020 0.07058824
v 0.12409297 -0.02303697 -0.01060587 0.56470588 0.92549020 0.07058824
v 0.11825068 -0.02641916 -0.01235186 0.56470588 0.92549020 0.07058824
v 0.12020029 -0.02612526 -0.01271047 0.56470588 0.92549020 0.07058824
v 0.13115091 -0.02303697 -0.01026785 0.56470588 0.92549020 0.07058824
v 0.13310052 -0.02649065 -0.01226956 0.56470588 0.92549020 0.07058824
v 0.13189798 -0.02624124 -0.01254880 0.56470588 0.92549020 0.07058824
v 0.13184884 -0.02763446 -0.01353643 0.56470588 0.92549020 0.07058824
v 0.13379190 -0.02761699 -0.01258114 0.56470588 0.92549020 0.07058824
v 0.13499771 -0.02829374 -0.01227250 0.56470588 0.92549020 0.07058824
v 0.13384760 -0.02952811 -0.01323368 0.56470588 0.92549020 0.07058824
v 0.13384760 -0.03147736 -0.01343356 0.56470588 0.92549020 0.07058824
v 0.13384760 -0.03342661 -0.01338947 0.56470588 0.92549020 0.07058824
v 0.13384760 -0.03537745 -0.01315137 0.56470588 0.92549020 0.07058824
v 0.13157360 -0.03843080 -0.01235774 0.56470588 0.92549020 0.07058824
v 0.12994837 -0.03855948 -0.01259583 0.56470588 0.92549020 0.07058824
v 0.12799875 -0.03865639 -0.01278395 0.56470588 0.92549020 0.07058824
v 0.13384760 -0.03794468 -0.01181690 0.56470588 0.92549020 0.07058824
v 0.13516154 -0.03537745 -0.01238420 0.56470588 0.92549020 0.07058824
v 0.13613471 -0.03537745 -0.01167287 0.56470588 0.92549020 0.07058824
v 0.13707184 -0.03676115 -0.01047066 0.56470588 0.92549020 0.07058824
v 0.13568908 -0.03729334 -0.01108793 0.56470588 0.92549020 0.07058824
v 0.13209131 -0.03872629 -0.01136717 0.56470588 0.92549020 0.07058824
v 0.13641978 -0.03806224 -0.00991218 0.56470588 0.92549020 0.07058824
v 0.13511895 -0.03841174 -0.01040894 0.56470588 0.92549020 0.07058824
v 0.13384760 -0.03859126 -0.01084396 0.56470588 0.92549020 0.07058824
v 0.12410280 -0.03868816 -0.01286920 0.56470588 0.92549020 0.07058824
v 0.12604914 -0.03869134 -0.01286332 0.56470588 0.92549020 0.07058824
v 0.12215318 -0.03865003 -0.01272223 0.56470588 0.92549020 0.07058824
v 0.12215318 -0.03773498 -0.01369810 0.56470588 0.92549020 0.07058824
v 0.11900103 -0.03837361 -0.01224017 0.56470588 0.92549020 0.07058824
v 0.11830966 -0.03735530 -0.01258114 0.56470588 0.92549020 0.07058824
v 0.11696622 -0.03672302 -0.01232835 0.56470588 0.92549020 0.07058824
v 0.11825068 -0.03537745 -0.01331304 0.56470588 0.92549020 0.07058824
v 0.11968258 -0.03537745 -0.01391562 0.56470588 0.92549020 0.07058824
v 0.11934836 -0.03412402 -0.01405083 0.56470588 0.92549020 0.07058824
v 0.11836864 -0.03345521 -0.01372456 0.56470588 0.92549020 0.07058824
v 0.11615361 -0.03336466 -0.01259583 0.56470588 0.92549020 0.07058824
v 0.11807046 -0.03147736 -0.01375101 0.56470588 0.92549020 0.07058824
v 0.11630106 -0.03147736 -0.01283392 0.56470588 0.92549020 0.07058824
v 0.11525253 -0.02993163 -0.01220196 0.56470588 0.92549020 0.07058824
v 0.11581611 -0.02757886 -0.01187569 0.56470588 0.92549020 0.07058824
v 0.11450217 -0.02938037 -0.01154060 0.56470588 0.92549020 0.07058824
v 0.11315874 -0.02952811 -0.01042069 0.56470588 0.92549020 0.07058824
v 0.11326031 -0.02832711 -0.01031782 0.56470588 0.92549020 0.07058824
v 0.11433834 -0.02763764 -0.01083221 0.56470588 0.92549020 0.07058824
v 0.12214008 -0.02303697 -0.00964764 0.56470588 0.92549020 0.07058824
v 0.11498056 -0.02636991 -0.01049124 0.56470588 0.92549020 0.07058824
v 0.11649111 -0.02618563 -0.01115260 0.56470588 0.92549020 0.07058824
v 0.13180624 -0.02303697 -0.00996215 0.56470588 0.92549020 0.07058824
v 0.13360840 -0.02303697 -0.00897452 0.56470588 0.92549020 0.07058824
v 0.13440135 -0.02699266 -0.01189332 0.56470588 0.92549020 0.07058824
v 0.13189798 -0.02303697 -0.00991806 0.56470588 0.92549020 0.07058824
v 0.13304482 -0.02303697 -0.00932137 0.56470588 0.92549020 0.07058824
v 0.13521724 -0.02952811 -0.01242829 0.56470588 0.92549020 0.07058824
v 0.13580705 -0.02753756 -0.01118199 0.56470588 0.92549020 0.07058824
v 0.13706529 -0.02808087 -0.01047360 0.56470588 0.92549020 0.07058824
v 0.13619369 -0.02952811 -0.01169050 0.56470588 0.92549020 0.07058824
v 0.13536142 -0.03147736 -0.01253411 0.56470588 0.92549020 0.07058824
v 0.13533193 -0.03342661 -0.01251353 0.56470588 0.92549020 0.07058824
v 0.12994837 -0.03901701 -0.01117317 0.56470588 0.92549020 0.07058824
v 0.12799875 -0.03912186 -0.01117317 0.56470588 0.92549020 0.07058824
v 0.13630837 -0.03342661 -0.01178750 0.56470588 0.92549020 0.07058824
v 0.13732414 -0.03537745 -0.01069700 0.56470588 0.92549020 0.07058824
v 0.13829731 -0.03537745 -0.00974170 0.56470588 0.92549020 0.07058824
v 0.13894609 -0.03673573 -0.00852480 0.56470588 0.92549020 0.07058824
v 0.13775339 -0.03739978 -0.00921849 0.56470588 0.92549020 0.07058824
v 0.13384760 -0.03902654 -0.00922437 0.56470588 0.92549020 0.07058824
v 0.13843493 -0.03803682 -0.00783698 0.56470588 0.92549020 0.07058824
v 0.13713410 -0.03846417 -0.00861298 0.56470588 0.92549020 0.07058824
v 0.13578084 -0.03863097 -0.00924788 0.56470588 0.92549020 0.07058824
v 0.12410280 -0.03916952 -0.01117317 0.56470588 0.92549020 0.07058824
v 0.12215318 -0.03913775 -0.01117317 0.56470588 0.92549020 0.07058824
v 0.12604914 -0.03916634 -0.01117317 0.56470588 0.92549020 0.07058824
v 0.12020029 -0.03899159 -0.01117317 0.56470588 0.92549020 0.07058824
v 0.12020029 -0.03851341 -0.01243711 0.56470588 0.92549020 0.07058824
v 0.11830966 -0.03864368 -0.01120845 0.56470588 0.92549020 0.07058824
v 0.11672703 -0.03848799 -0.01058530 0.56470588 0.92549020 0.07058824
v 0.11542947 -0.03824334 -0.01009736 0.56470588 0.92549020 0.07058824
v 0.11770020 -0.03802411 -0.01188450 0.56470588 0.92549020 0.07058824
v 0.11661562 -0.03537745 -0.01252235 0.56470588 0.92549020 0.07058824
v 0.11619621 -0.03748398 -0.01125254 0.56470588 0.92549020 0.07058824
v 0.11482328 -0.03694384 -0.01062351 0.56470588 0.92549020 0.07058824
v 0.11563917 -0.03537745 -0.01194329 0.56470588 0.92549020 0.07058824
v 0.11540325 -0.03397310 -0.01209908 0.56470588 0.92549020 0.07058824
v 0.11529513 -0.03267360 -0.01217256 0.56470588 0.92549020 0.07058824
v 0.11524597 -0.03147736 -0.01220490 0.56470588 0.92549020 0.07058824
v 0.11427280 -0.03147736 -0.01140539 0.56470588 0.92549020 0.07058824
v 0.11315219 -0.03147736 -0.01043245 0.56470588 0.92549020 0.07058824
v 0.11140245 -0.03005077 -0.00828377 0.56470588 0.92549020 0.07058824
v 0.11204139 -0.02945186 -0.00905094 0.56470588 0.92549020 0.07058824
v 0.11143849 -0.02874968 -0.00823086 0.56470588 0.92549020 0.07058824
v 0.11367973 -0.02702602 -0.00990336 0.56470588 0.92549020 0.07058824
v 0.11274916 -0.02763764 -0.00924200 0.56470588 0.92549020 0.07058824
v 0.12059677 -0.02303697 -0.00881579 0.56470588 0.92549020 0.07058824
v 0.11308993 -0.02636833 -0.00860416 0.56470588 0.92549020 0.07058824
v 0.11433834 -0.02600771 -0.00924200 0.56470588 0.92549020 0.07058824
v 0.12019046 -0.02303697 -0.00857182 0.56470588 0.92549020 0.07058824
v 0.13524674 -0.02303697 -0.00743135 0.56470588 0.92549020 0.07058824
v 0.13661311 -0.02678137 -0.01004445 0.56470588 0.92549020 0.07058824
v 0.13531555 -0.02629525 -0.01059118 0.56470588 0.92549020 0.07058824
v 0.13633787 -0.03147736 -0.01180220 0.56470588 0.92549020 0.07058824
v 0.13782547 -0.02742635 -0.00928609 0.56470588 0.92549020 0.07058824
v 0.13895920 -0.02807293 -0.00852480 0.56470588 0.92549020 0.07058824
v 0.13829731 -0.02952811 -0.00975052 0.56470588 0.92549020 0.07058824
v 0.13732414 -0.02952811 -0.01071757 0.56470588 0.92549020 0.07058824
v 0.13189798 -0.03919652 -0.00922437 0.56470588 0.92549020 0.07058824
v 0.13745521 -0.03342661 -0.01081163 0.56470588 0.92549020 0.07058824
v 0.13843165 -0.03342661 -0.00988279 0.56470588 0.92549020 0.07058824
v 0.13913942 -0.03537745 -0.00876582 0.56470588 0.92549020 0.07058824
v 0.14021744 -0.03552996 -0.00719326 0.56470588 0.92549020 0.07058824
v 0.14065651 -0.03628297 -0.00626147 0.56470588 0.92549020 0.07058824
v 0.13931636 -0.03736324 -0.00721971 0.56470588 0.92549020 0.07058824
v 0.13579722 -0.03905990 -0.00727262 0.56470588 0.92549020 0.07058824
v 0.13885434 -0.03837997 -0.00653484 0.56470588 0.92549020 0.07058824
v 0.13776977 -0.03860873 -0.00721971 0.56470588 0.92549020 0.07058824
v 0.12215318 -0.03926484 -0.00922437 0.56470588 0.92549020 0.07058824
v 0.12020029 -0.03925689 -0.00922437 0.56470588 0.92549020 0.07058824
v 0.11825068 -0.03914887 -0.00922437 0.56470588 0.92549020 0.07058824
v 0.12604914 -0.03925213 -0.00922437 0.56470588 0.92549020 0.07058824
v 0.12410280 -0.03926007 -0.00922437 0.56470588 0.92549020 0.07058824
v 0.12994837 -0.03922989 -0.00922437 0.56470588 0.92549020 0.07058824
v 0.12799875 -0.03924259 -0.00922437 0.56470588 0.92549020 0.07058824
v 0.11616672 -0.03871676 -0.00935958 0.56470588 0.92549020 0.07058824
v 0.11486916 -0.03849117 -0.00879816 0.56470588 0.92549020 0.07058824
v 0.11356832 -0.03816709 -0.00797219 0.56470588 0.92549020 0.07058824
v 0.11419416 -0.03755547 -0.00941837 0.56470588 0.92549020 0.07058824
v 0.11300474 -0.03686600 -0.00873643 0.56470588 0.92549020 0.07058824
v 0.11352245 -0.03583657 -0.01003564 0.56470588 0.92549020 0.07058824
v 0.11424332 -0.03526307 -0.01083515 0.56470588 0.92549020 0.07058824
v 0.11334223 -0.03453548 -0.01023257 0.56470588 0.92549020 0.07058824
v 0.11452838 -0.03336466 -0.01143772 0.56470588 0.92549020 0.07058824
v 0.11325376 -0.03342661 -0.01032369 0.56470588 0.92549020 0.07058824
v 0.11203812 -0.03151072 -0.00905094 0.56470588 0.92549020 0.07058824
v 0.11140245 -0.03088480 -0.00828377 0.56470588 0.92549020 0.07058824
v 0.11096010 -0.03151072 -0.00745192 0.56470588 0.92549020 0.07058824
v 0.11096992 -0.02945186 -0.00745780 0.56470588 0.92549020 0.07058824
v 0.10997382 -0.02952811 -0.00532381 0.56470588 0.92549020 0.07058824
v 0.11113704 -0.02757886 -0.00682877 0.56470588 0.92549020 0.07058824
v 0.11170717 -0.02757886 -0.00780465 0.56470588 0.92549020 0.07058824
v 0.11449562 -0.02508947 -0.00714917 0.56470588 0.92549020 0.07058824
v 0.11138606 -0.02656055 -0.00637611 0.56470588 0.92549020 0.07058824
v 0.11242477 -0.02615863 -0.00712271 0.56470588 0.92549020 0.07058824
v 0.11840796 -0.02303697 -0.00674941 0.56470588 0.92549020 0.07058824
v 0.13558751 -0.02303697 -0.00707568 0.56470588 0.92549020 0.07058824
v 0.13858566 -0.02677343 -0.00807507 0.56470588 0.92549020 0.07058824
v 0.13746176 -0.03147736 -0.01082927 0.56470588 0.92549020 0.07058824
v 0.13964402 -0.02762811 -0.00721089 0.56470588 0.92549020 0.07058824
v 0.14070238 -0.02848279 -0.00634378 0.56470588 0.92549020 0.07058824
v 0.14014535 -0.02952811 -0.00748426 0.56470588 0.92549020 0.07058824
v 0.13916890 -0.02952811 -0.00877464 0.56470588 0.92549020 0.07058824
v 0.13843821 -0.03147736 -0.00989161 0.56470588 0.92549020 0.07058824
v 0.13384760 -0.03919494 -0.00727262 0.56470588 0.92549020 0.07058824
v 0.13927048 -0.03147736 -0.00891573 0.56470588 0.92549020 0.07058824
v 0.13925082 -0.03342661 -0.00890691 0.56470588 0.92549020 0.07058824
v 0.14022727 -0.03342661 -0.00761065 0.56470588 0.92549020 0.07058824
v 0.14079086 -0.03498188 -0.00649075 0.56470588 0.92549020 0.07058824
v 0.14020105 -0.03737754 -0.00549724 0.56470588 0.92549020 0.07058824
v 0.14111524 -0.03552996 -0.00549724 0.56470588 0.92549020 0.07058824
v 0.14184921 -0.03537745 -0.00337207 0.56470588 0.92549020 0.07058824
v 0.14092520 -0.03676115 -0.00496227 0.56470588 0.92549020 0.07058824
v 0.13774683 -0.03894870 -0.00532381 0.56470588 0.92549020 0.07058824
v 0.13774683 -0.03911074 -0.00337207 0.56470588 0.92549020 0.07058824
v 0.13579722 -0.03918064 -0.00532381 0.56470588 0.92549020 0.07058824
v 0.14039110 -0.03805589 -0.00337207 0.56470588 0.92549020 0.07058824
v 0.13911976 -0.03852453 -0.00532381 0.56470588 0.92549020 0.07058824
v 0.12215318 -0.03925530 0.00832372 0.56470588 0.92549020 0.07058824
v 0.12994837 -0.03924736 0.00832372 0.56470588 0.92549020 0.07058824
v 0.11825068 -0.03923783 -0.00727262 0.56470588 0.92549020 0.07058824
v 0.11630106 -0.03913457 -0.00727262 0.56470588 0.92549020 0.07058824
v 0.11630106 -0.03922353 0.00442316 0.56470588 0.92549020 0.07058824
v 0.12994837 -0.03923942 -0.00727262 0.56470588 0.92549020 0.07058824
v 0.13189798 -0.03923465 -0.00532381 0.56470588 0.92549020 0.07058824
v 0.13189798 -0.03922830 -0.00727262 0.56470588 0.92549020 0.07058824
v 0.11427280 -0.03866116 -0.00730201 0.56470588 0.92549020 0.07058824
v 0.11319151 -0.03841333 -0.00667299 0.56470588 0.92549020 0.07058824
v 0.11195293 -0.03779853 -0.00532381 0.56470588 0.92549020 0.07058824
v 0.11132381 -0.03651491 -0.00648487 0.56470588 0.92549020 0.07058824
v 0.11171045 -0.03537745 -0.00778113 0.56470588 0.92549020 0.07058824
v 0.11280158 -0.03526307 -0.00932137 0.56470588 0.92549020 0.07058824
v 0.11151385 -0.03342661 -0.00810740 0.56470588 0.92549020 0.07058824
v 0.11236579 -0.03342661 -0.00922437 0.56470588 0.92549020 0.07058824
v 0.11144504 -0.03218272 -0.00821910 0.56470588 0.92549020 0.07058824
v 0.11095027 -0.03342661 -0.00713153 0.56470588 0.92549020 0.07058824
v 0.10995089 -0.03147736 -0.00532381 0.56470588 0.92549020 0.07058824
v 0.11054068 -0.02757886 -0.00532381 0.56470588 0.92549020 0.07058824
v 0.10954458 -0.03147736 -0.00402461 0.56470588 0.92549020 0.07058824
v 0.10955113 -0.02952811 -0.00395406 0.56470588 0.92549020 0.07058824
v 0.10942990 -0.02845102 -0.00267543 0.56470588 0.92549020 0.07058824
v 0.11240183 -0.02564709 -0.00532381 0.56470588 0.92549020 0.07058824
v 0.10997710 -0.02771231 -0.00334561 0.56470588 0.92549020 0.07058824
v 0.11123534 -0.02641757 -0.00532381 0.56470588 0.92549020 0.07058824
v 0.11770675 -0.02303697 -0.00527384 0.56470588 0.92549020 0.07058824
v 0.13685558 -0.02303697 -0.00531793 0.56470588 0.92549020 0.07058824
v 0.13902801 -0.02636991 -0.00677587 0.56470588 0.92549020 0.07058824
v 0.14066306 -0.02661774 -0.00431561 0.56470588 0.92549020 0.07058824
v 0.14040749 -0.02704826 -0.00532381 0.56470588 0.92549020 0.07058824
v 0.14091209 -0.02802368 -0.00532381 0.56470588 0.92549020 0.07058824
v 0.14131839 -0.02952811 -0.00532381 0.56470588 0.92549020 0.07058824
v 0.14080396 -0.02952811 -0.00650838 0.56470588 0.92549020 0.07058824
v 0.14024365 -0.03147736 -0.00764298 0.56470588 0.92549020 0.07058824
v 0.13384760 -0.03922035 -0.00532381 0.56470588 0.92549020 0.07058824
v 0.14090226 -0.03147736 -0.00666711 0.56470588 0.92549020 0.07058824
v 0.14087932 -0.03342661 -0.00663771 0.56470588 0.92549020 0.07058824
v 0.14146912 -0.03342661 -0.00532381 0.56470588 0.92549020 0.07058824
v 0.14209169 -0.03342661 -0.00337207 0.56470588 0.92549020 0.07058824
v 0.14249144 -0.03336466 -0.00129099 0.56470588 0.92549020 0.07058824
v 0.14221292 -0.03537745 -0.00142326 0.56470588 0.92549020 0.07058824
v 0.14117422 -0.03708047 -0.00337207 0.56470588 0.92549020 0.07058824
v 0.13941793 -0.03866274 -0.00337207 0.56470588 0.92549020 0.07058824
v 0.13774683 -0.03915363 -0.00142326 0.56470588 0.92549020 0.07058824
v 0.13958176 -0.03870723 -0.00142326 0.56470588 0.92549020 0.07058824
v 0.13579722 -0.03920606 -0.00337207 0.56470588 0.92549020 0.07058824
v 0.14055493 -0.03821952 -0.00142326 0.56470588 0.92549020 0.07058824
v 0.14134789 -0.03724409 -0.00142326 0.56470588 0.92549020 0.07058824
v 0.12410280 -0.03919017 0.01027253 0.56470588 0.92549020 0.07058824
v 0.12020029 -0.03924259 0.00832372 0.56470588 0.92549020 0.07058824
v 0.11825068 -0.03923306 0.00637491 0.56470588 0.92549020 0.07058824
v 0.12604914 -0.03919335 0.01027253 0.56470588 0.92549020 0.07058824
v 0.13384760 -0.03922830 -0.00142326 0.56470588 0.92549020 0.07058824
v 0.13384760 -0.03922830 0.00247436 0.56470588 0.92549020 0.07058824
v 0.13189798 -0.03923624 0.00637491 0.56470588 0.92549020 0.07058824
v 0.13384760 -0.03921559 0.00637491 0.56470588 0.92549020 0.07058824
v 0.13189798 -0.03921559 0.00832372 0.56470588 0.92549020 0.07058824
v 0.12799875 -0.03917587 0.01027253 0.56470588 0.92549020 0.07058824
v 0.11630106 -0.03921718 -0.00142326 0.56470588 0.92549020 0.07058824
v 0.11630106 -0.03921241 -0.00532381 0.56470588 0.92549020 0.07058824
v 0.11435144 -0.03909803 -0.00337207 0.56470588 0.92549020 0.07058824
v 0.11435144 -0.03899636 -0.00532381 0.56470588 0.92549020 0.07058824
v 0.11630106 -0.03915522 0.00637491 0.56470588 0.92549020 0.07058824
v 0.11435144 -0.03912345 0.00247436 0.56470588 0.92549020 0.07058824
v 0.11435144 -0.03913298 0.00052261 0.56470588 0.92549020 0.07058824
v 0.13384760 -0.03922512 -0.00337207 0.56470588 0.92549020 0.07058824
v 0.11292938 -0.03854677 -0.00532381 0.56470588 0.92549020 0.07058824
v 0.11167769 -0.03811784 -0.00337207 0.56470588 0.92549020 0.07058824
v 0.11109772 -0.03682311 -0.00532381 0.56470588 0.92549020 0.07058824
v 0.11051119 -0.03537745 -0.00532381 0.56470588 0.92549020 0.07058824
v 0.11114359 -0.03537745 -0.00680820 0.56470588 0.92549020 0.07058824
v 0.11012455 -0.03342661 -0.00532381 0.56470588 0.92549020 0.07058824
v 0.10960356 -0.03358071 -0.00340146 0.56470588 0.92549020 0.07058824
v 0.10940368 -0.03303422 -0.00276655 0.56470588 0.92549020 0.07058824
v 0.10934798 -0.03147736 -0.00304873 0.56470588 0.92549020 0.07058824
v 0.10936764 -0.02952811 -0.00298113 0.56470588 0.92549020 0.07058824
v 0.10923002 -0.02952811 -0.00142326 0.56470588 0.92549020 0.07058824
v 0.10940040 -0.02838747 -0.00142326 0.56470588 0.92549020 0.07058824
v 0.10996727 -0.02741206 -0.00142326 0.56470588 0.92549020 0.07058824
v 0.11102563 -0.02623488 -0.00337207 0.56470588 0.92549020 0.07058824
v 0.11240183 -0.02535795 -0.00337207 0.56470588 0.92549020 0.07058824
v 0.11660579 -0.02303697 -0.00281064 0.56470588 0.92549020 0.07058824
v 0.11669426 -0.02303697 -0.00312810 0.56470588 0.92549020 0.07058824
v 0.13707512 -0.02303697 -0.00496521 0.56470588 0.92549020 0.07058824
v 0.14081706 -0.02646047 -0.00301640 0.56470588 0.92549020 0.07058824
v 0.14120699 -0.02739140 -0.00354843 0.56470588 0.92549020 0.07058824
v 0.13763215 -0.02303697 -0.00376300 0.56470588 0.92549020 0.07058824
v 0.13779598 -0.02303697 -0.00333385 0.56470588 0.92549020 0.07058824
v 0.14194752 -0.02952811 -0.00337207 0.56470588 0.92549020 0.07058824
v 0.14151172 -0.03147736 -0.00532381 0.56470588 0.92549020 0.07058824
v 0.14213428 -0.03147736 -0.00337207 0.56470588 0.92549020 0.07058824
v 0.14251766 -0.03145353 -0.00129099 0.56470588 0.92549020 0.07058824
v 0.14263561 -0.03267360 -0.00055320 0.56470588 0.92549020 0.07058824
v 0.14225224 -0.03537745 0.00052261 0.56470588 0.92549020 0.07058824
v 0.13774683 -0.03915681 0.00052261 0.56470588 0.92549020 0.07058824
v 0.14063685 -0.03827988 0.00018164 0.56470588 0.92549020 0.07058824
v 0.14067289 -0.03830212 0.00148379 0.56470588 0.92549020 0.07058824
v 0.13987339 -0.03862938 0.00070779 0.56470588 0.92549020 0.07058824
v 0.13579722 -0.03920764 -0.00142326 0.56470588 0.92549020 0.07058824
v 0.14122993 -0.03750940 0.00070779 0.56470588 0.92549020 0.07058824
v 0.12410280 -0.03871040 0.01207142 0.56470588 0.92549020 0.07058824
v 0.12215318 -0.03913933 0.01027253 0.56470588 0.92549020 0.07058824
v 0.12604914 -0.03871358 0.01215373 0.56470588 0.92549020 0.07058824
v 0.11825068 -0.03913616 0.00832372 0.56470588 0.92549020 0.07058824
v 0.13384760 -0.03922512 0.00442316 0.56470588 0.92549020 0.07058824
v 0.13579722 -0.03920764 0.00247436 0.56470588 0.92549020 0.07058824
v 0.13579722 -0.03920129 0.00442316 0.56470588 0.92549020 0.07058824
v 0.13579722 -0.03912345 0.00637491 0.56470588 0.92549020 0.07058824
v 0.13384760 -0.03908532 0.00832372 0.56470588 0.92549020 0.07058824
v 0.12994837 -0.03910280 0.01027253 0.56470588 0.92549020 0.07058824
v 0.12799875 -0.03869928 0.01208612 0.56470588 0.92549020 0.07058824
v 0.11435144 -0.03912345 -0.00142326 0.56470588 0.92549020 0.07058824
v 0.11249685 -0.03867069 -0.00142326 0.56470588 0.92549020 0.07058824
v 0.11265413 -0.03864527 -0.00337207 0.56470588 0.92549020 0.07058824
v 0.11620276 -0.03872470 0.00843541 0.56470588 0.92549020 0.07058824
v 0.11428591 -0.03867387 0.00636609 0.56470588 0.92549020 0.07058824
v 0.11435144 -0.03901065 0.00442316 0.56470588 0.92549020 0.07058824
v 0.11267379 -0.03866433 0.00247436 0.56470588 0.92549020 0.07058824
v 0.11252634 -0.03867704 0.00052261 0.56470588 0.92549020 0.07058824
v 0.11152368 -0.03824334 -0.00142326 0.56470588 0.92549020 0.07058824
v 0.11083559 -0.03714242 -0.00337207 0.56470588 0.92549020 0.07058824
v 0.10997382 -0.03537745 -0.00337207 0.56470588 0.92549020 0.07058824
v 0.10948560 -0.03433372 -0.00229919 0.56470588 0.92549020 0.07058824
v 0.10933487 -0.03358071 -0.00155847 0.56470588 0.92549020 0.07058824
v 0.10916449 -0.03147736 -0.00142326 0.56470588 0.92549020 0.07058824
v 0.10927589 -0.03147736 0.00052261 0.56470588 0.92549020 0.07058824
v 0.10935126 -0.02958848 0.00054906 0.56470588 0.92549020 0.07058824
v 0.10942006 -0.02843354 -0.00008584 0.56470588 0.92549020 0.07058824
v 0.10993450 -0.02770119 0.00054906 0.56470588 0.92549020 0.07058824
v 0.11099286 -0.02619516 0.00052261 0.56470588 0.92549020 0.07058824
v 0.11094044 -0.02615863 -0.00142326 0.56470588 0.92549020 0.07058824
v 0.11240183 -0.02524040 -0.00142326 0.56470588 0.92549020 0.07058824
v 0.11635021 -0.02303697 -0.00142326 0.56470588 0.92549020 0.07058824
v 0.14094158 -0.02633020 -0.00142326 0.56470588 0.92549020 0.07058824
v 0.14167227 -0.02757886 -0.00142326 0.56470588 0.92549020 0.07058824
v 0.13819246 -0.02303697 -0.00142326 0.56470588 0.92549020 0.07058824
v 0.14230140 -0.02952811 -0.00142326 0.56470588 0.92549020 0.07058824
v 0.14263561 -0.03208740 -0.00055320 0.56470588 0.92549020 0.07058824
v 0.14263561 -0.03267360 -0.00030336 0.56470588 0.92549020 0.07058824
v 0.14225880 -0.03342661 0.00247436 0.56470588 0.92549020 0.07058824
v 0.14198684 -0.03537745 0.00247436 0.56470588 0.92549020 0.07058824
v 0.14111852 -0.03741408 0.00228036 0.56470588 0.92549020 0.07058824
v 0.14252421 -0.03336466 0.00041679 0.56470588 0.92549020 0.07058824
v 0.13774683 -0.03912504 0.00247436 0.56470588 0.92549020 0.07058824
v 0.14067289 -0.03830212 0.00150142 0.56470588 0.92549020 0.07058824
v 0.13977181 -0.03860555 0.00228036 0.56470588 0.92549020 0.07058824
v 0.12410280 -0.03816868 0.01304730 0.56470588 0.92549020 0.07058824
v 0.12215318 -0.03865798 0.01189212 0.56470588 0.92549020 0.07058824
v 0.12604914 -0.03825129 0.01312960 0.56470588 0.92549020 0.07058824
v 0.12020029 -0.03898682 0.01027253 0.56470588 0.92549020 0.07058824
v 0.11831294 -0.03864368 0.01029604 0.56470588 0.92549020 0.07058824
v 0.13774683 -0.03901383 0.00442316 0.56470588 0.92549020 0.07058824
v 0.13784513 -0.03867545 0.00642488 0.56470588 0.92549020 0.07058824
v 0.13587586 -0.03869928 0.00842366 0.56470588 0.92549020 0.07058824
v 0.13375586 -0.03859920 0.01028722 0.56470588 0.92549020 0.07058824
v 0.13189798 -0.03892487 0.01027253 0.56470588 0.92549020 0.07058824
v 0.12994837 -0.03862779 0.01186861 0.56470588 0.92549020 0.07058824
v 0.12799875 -0.03819092 0.01306200 0.56470588 0.92549020 0.07058824
v 0.11489210 -0.03851182 0.00785636 0.56470588 0.92549020 0.07058824
v 0.11678601 -0.03848323 0.00965820 0.56470588 0.92549020 0.07058824
v 0.11320789 -0.03840380 0.00570767 0.56470588 0.92549020 0.07058824
v 0.11293592 -0.03855154 0.00442316 0.56470588 0.92549020 0.07058824
v 0.11170062 -0.03808130 0.00247436 0.56470588 0.92549020 0.07058824
v 0.11154990 -0.03822110 0.00052261 0.56470588 0.92549020 0.07058824
v 0.11071107 -0.03724568 0.00052261 0.56470588 0.92549020 0.07058824
v 0.11069796 -0.03726792 -0.00142326 0.56470588 0.92549020 0.07058824
v 0.10967892 -0.03529802 -0.00155847 0.56470588 0.92549020 0.07058824
v 0.10942662 -0.03459426 -0.00099999 0.56470588 0.92549020 0.07058824
v 0.10942662 -0.03459426 -0.00016520 0.56470588 0.92549020 0.07058824
v 0.10937747 -0.03323757 0.00049909 0.56470588 0.92549020 0.07058824
v 0.10947577 -0.03246232 0.00150436 0.56470588 0.92549020 0.07058824
v 0.10945938 -0.03147736 0.00156903 0.56470588 0.92549020 0.07058824
v 0.10945283 -0.03027954 0.00158960 0.56470588 0.92549020 0.07058824
v 0.10952164 -0.02897845 0.00121630 0.56470588 0.92549020 0.07058824
v 0.11036375 -0.02757886 0.00247436 0.56470588 0.92549020 0.07058824
v 0.11115342 -0.02633973 0.00247436 0.56470588 0.92549020 0.07058824
v 0.11240183 -0.02550570 0.00247436 0.56470588 0.92549020 0.07058824
v 0.11240183 -0.02529600 0.00052261 0.56470588 0.92549020 0.07058824
v 0.11637970 -0.02303697 0.00052261 0.56470588 0.92549020 0.07058824
v 0.11635676 -0.02303697 -0.00086184 0.56470588 0.92549020 0.07058824
v 0.14096124 -0.02630955 0.00052261 0.56470588 0.92549020 0.07058824
v 0.14172143 -0.02757886 0.00052261 0.56470588 0.92549020 0.07058824
v 0.13825144 -0.02303697 0.00052261 0.56470588 0.92549020 0.07058824
v 0.14235055 -0.02952811 0.00052261 0.56470588 0.92549020 0.07058824
v 0.14263561 -0.03208740 -0.00030336 0.56470588 0.92549020 0.07058824
v 0.14255042 -0.03145353 0.00041679 0.56470588 0.92549020 0.07058824
v 0.14230467 -0.03147736 0.00247436 0.56470588 0.92549020 0.07058824
v 0.14172798 -0.03342661 0.00442316 0.56470588 0.92549020 0.07058824
v 0.14146585 -0.03537745 0.00442316 0.56470588 0.92549020 0.07058824
v 0.14076792 -0.03652445 0.00558422 0.56470588 0.92549020 0.07058824
v 0.14097107 -0.03683582 0.00442316 0.56470588 0.92549020 0.07058824
v 0.14047302 -0.03812420 0.00280063 0.56470588 0.92549020 0.07058824
v 0.13921806 -0.03857219 0.00442316 0.56470588 0.92549020 0.07058824
v 0.12410280 -0.03719485 0.01369690 0.56470588 0.92549020 0.07058824
v 0.12215318 -0.03793038 0.01286800 0.56470588 0.92549020 0.07058824
v 0.12020029 -0.03851659 0.01160112 0.56470588 0.92549020 0.07058824
v 0.12604914 -0.03727587 0.01377626 0.56470588 0.92549020 0.07058824
v 0.12799875 -0.03721550 0.01372924 0.56470588 0.92549020 0.07058824
v 0.11900103 -0.03838473 0.01136304 0.56470588 0.92549020 0.07058824
v 0.13725861 -0.03850706 0.00783872 0.56470588 0.92549020 0.07058824
v 0.13893298 -0.03842604 0.00580761 0.56470588 0.92549020 0.07058824
v 0.13527950 -0.03846417 0.00964350 0.56470588 0.92549020 0.07058824
v 0.13304482 -0.03835773 0.01133070 0.56470588 0.92549020 0.07058824
v 0.13189798 -0.03847687 0.01155116 0.56470588 0.92549020 0.07058824
v 0.12994837 -0.03796216 0.01284154 0.56470588 0.92549020 0.07058824
v 0.12994837 -0.03698674 0.01356757 0.56470588 0.92549020 0.07058824
v 0.11359454 -0.03812579 0.00700982 0.56470588 0.92549020 0.07058824
v 0.11548845 -0.03820045 0.00915850 0.56470588 0.92549020 0.07058824
v 0.11195948 -0.03773339 0.00442316 0.56470588 0.92549020 0.07058824
v 0.11087491 -0.03710588 0.00247436 0.56470588 0.92549020 0.07058824
v 0.10972479 -0.03529802 0.00049909 0.56470588 0.92549020 0.07058824
v 0.11010817 -0.03537745 0.00247436 0.56470588 0.92549020 0.07058824
v 0.10954130 -0.03376181 0.00113400 0.56470588 0.92549020 0.07058824
v 0.10972479 -0.03323757 0.00228036 0.56470588 0.92549020 0.07058824
v 0.10968547 -0.03147736 0.00254490 0.56470588 0.92549020 0.07058824
v 0.10970842 -0.02958848 0.00233327 0.56470588 0.92549020 0.07058824
v 0.11040634 -0.02952811 0.00442316 0.56470588 0.92549020 0.07058824
v 0.11098631 -0.02754232 0.00440553 0.56470588 0.92549020 0.07058824
v 0.11131398 -0.02649065 0.00374123 0.56470588 0.92549020 0.07058824
v 0.11231336 -0.02601247 0.00440553 0.56470588 0.92549020 0.07058824
v 0.11668115 -0.02303697 0.00249787 0.56470588 0.92549020 0.07058824
v 0.14084656 -0.02643028 0.00247436 0.56470588 0.92549020 0.07058824
v 0.13814986 -0.02303697 0.00187472 0.56470588 0.92549020 0.07058824
v 0.14149534 -0.02757886 0.00247436 0.56470588 0.92549020 0.07058824
v 0.14212773 -0.02952811 0.00247436 0.56470588 0.92549020 0.07058824
v 0.14177385 -0.03147736 0.00442316 0.56470588 0.92549020 0.07058824
v 0.14101039 -0.03342661 0.00605452 0.56470588 0.92549020 0.07058824
v 0.14089898 -0.03537745 0.00584582 0.56470588 0.92549020 0.07058824
v 0.14036161 -0.03537745 0.00682170 0.56470588 0.92549020 0.07058824
v 0.13909682 -0.03688189 0.00782990 0.56470588 0.92549020 0.07058824
v 0.13966368 -0.03735371 0.00634552 0.56470588 0.92549020 0.07058824
v 0.14019122 -0.03780965 0.00442316 0.56470588 0.92549020 0.07058824
v 0.12410280 -0.03537745 0.01430241 0.56470588 0.92549020 0.07058824
v 0.12215318 -0.03695496 0.01351760 0.56470588 0.92549020 0.07058824
v 0.12604914 -0.03537745 0.01444938 0.56470588 0.92549020 0.07058824
v 0.12077699 -0.03664200 0.01333536 0.56470588 0.92549020 0.07058824
v 0.12015770 -0.03730605 0.01264754 0.56470588 0.92549020 0.07058824
v 0.12799875 -0.03537745 0.01435826 0.56470588 0.92549020 0.07058824
v 0.11831294 -0.03734894 0.01177749 0.56470588 0.92549020 0.07058824
v 0.11770020 -0.03801458 0.01096034 0.56470588 0.92549020 0.07058824
v 0.13855944 -0.03818139 0.00710682 0.56470588 0.92549020 0.07058824
v 0.13657707 -0.03819569 0.00913793 0.56470588 0.92549020 0.07058824
v 0.13434565 -0.03805271 0.01094270 0.56470588 0.92549020 0.07058824
v 0.13375586 -0.03737277 0.01181570 0.56470588 0.92549020 0.07058824
v 0.13200612 -0.03732194 0.01262991 0.56470588 0.92549020 0.07058824
v 0.13142615 -0.03666901 0.01337357 0.56470588 0.92549020 0.07058824
v 0.12994837 -0.03537745 0.01404669 0.56470588 0.92549020 0.07058824
v 0.11423348 -0.03751257 0.00847069 0.56470588 0.92549020 0.07058824
v 0.11304078 -0.03682470 0.00778581 0.56470588 0.92549020 0.07058824
v 0.11247392 -0.03728699 0.00625440 0.56470588 0.92549020 0.07058824
v 0.11621586 -0.03745856 0.01034013 0.56470588 0.92549020 0.07058824
v 0.11487244 -0.03690095 0.00971992 0.56470588 0.92549020 0.07058824
v 0.11137296 -0.03644819 0.00549604 0.56470588 0.92549020 0.07058824
v 0.11115998 -0.03675956 0.00442316 0.56470588 0.92549020 0.07058824
v 0.11070779 -0.03537745 0.00442316 0.56470588 0.92549020 0.07058824
v 0.11041945 -0.03342661 0.00442316 0.56470588 0.92549020 0.07058824
v 0.11032443 -0.03147736 0.00442316 0.56470588 0.92549020 0.07058824
v 0.11112721 -0.02952811 0.00596340 0.56470588 0.92549020 0.07058824
v 0.11125172 -0.02816824 0.00572825 0.56470588 0.92549020 0.07058824
v 0.11160232 -0.02686874 0.00504337 0.56470588 0.92549020 0.07058824
v 0.11299818 -0.02632543 0.00637491 0.56470588 0.92549020 0.07058824
v 0.11864715 -0.02303697 0.00645133 0.56470588 0.92549020 0.07058824
v 0.11849315 -0.02303697 0.00617503 0.56470588 0.92549020 0.07058824
v 0.11711695 -0.02303697 0.00342084 0.56470588 0.92549020 0.07058824
v 0.14073188 -0.02654308 0.00361190 0.56470588 0.92549020 0.07058824
v 0.13804501 -0.02303697 0.00257724 0.56470588 0.92549020 0.07058824
v 0.14100711 -0.02760110 0.00432616 0.56470588 0.92549020 0.07058824
v 0.14159036 -0.02952811 0.00442316 0.56470588 0.92549020 0.07058824
v 0.14094486 -0.02952811 0.00591637 0.56470588 0.92549020 0.07058824
v 0.14103333 -0.03147736 0.00608685 0.56470588 0.92549020 0.07058824
v 0.14048613 -0.03342661 0.00703039 0.56470588 0.92549020 0.07058824
v 0.13938844 -0.03537745 0.00819145 0.56470588 0.92549020 0.07058824
v 0.13860204 -0.03537745 0.00916438 0.56470588 0.92549020 0.07058824
v 0.13726844 -0.03689460 0.00973756 0.56470588 0.92549020 0.07058824
v 0.13791394 -0.03753799 0.00848538 0.56470588 0.92549020 0.07058824
v 0.12410280 -0.03342661 0.01442293 0.56470588 0.92549020 0.07058824
v 0.12215318 -0.03342661 0.01405844 0.56470588 0.92549020 0.07058824
v 0.12215318 -0.03537745 0.01393499 0.56470588 0.92549020 0.07058824
v 0.12604914 -0.03342661 0.01456402 0.56470588 0.92549020 0.07058824
v 0.12799875 -0.03342661 0.01448465 0.56470588 0.92549020 0.07058824
v 0.12041655 -0.03537745 0.01345587 0.56470588 0.92549020 0.07058824
v 0.11944010 -0.03537745 0.01312078 0.56470588 0.92549020 0.07058824
v 0.11694656 -0.03671508 0.01145710 0.56470588 0.92549020 0.07058824
v 0.12994837 -0.03342661 0.01418778 0.56470588 0.92549020 0.07058824
v 0.13588896 -0.03747445 0.01034013 0.56470588 0.92549020 0.07058824
v 0.13519759 -0.03675321 0.01151294 0.56470588 0.92549020 0.07058824
v 0.13272698 -0.03595413 0.01314430 0.56470588 0.92549020 0.07058824
v 0.13200612 -0.03533297 0.01347351 0.56470588 0.92549020 0.07058824
v 0.13189798 -0.03342661 0.01365575 0.56470588 0.92549020 0.07058824
v 0.11358471 -0.03537745 0.00907620 0.56470588 0.92549020 0.07058824
v 0.11279175 -0.03537745 0.00810033 0.56470588 0.92549020 0.07058824
v 0.11181858 -0.03537745 0.00667473 0.56470588 0.92549020 0.07058824
v 0.11455788 -0.03537745 0.00999622 0.56470588 0.92549020 0.07058824
v 0.11570799 -0.03537745 0.01097210 0.56470588 0.92549020 0.07058824
v 0.11126155 -0.03537745 0.00570179 0.56470588 0.92549020 0.07058824
v 0.11113376 -0.03342661 0.00593400 0.56470588 0.92549020 0.07058824
v 0.11109116 -0.03147736 0.00602219 0.56470588 0.92549020 0.07058824
v 0.11164164 -0.03147736 0.00699512 0.56470588 0.92549020 0.07058824
v 0.11168096 -0.02952811 0.00693633 0.56470588 0.92549020 0.07058824
v 0.11202173 -0.02754232 0.00637785 0.56470588 0.92549020 0.07058824
v 0.11301456 -0.02757886 0.00777699 0.56470588 0.92549020 0.07058824
v 0.11334551 -0.02657644 0.00738606 0.56470588 0.92549020 0.07058824
v 0.12043293 -0.02303697 0.00809739 0.56470588 0.92549020 0.07058824
v 0.11451856 -0.02631749 0.00815030 0.56470588 0.92549020 0.07058824
v 0.11528202 -0.02657167 0.00933486 0.56470588 0.92549020 0.07058824
v 0.14045008 -0.02696565 0.00491110 0.56470588 0.92549020 0.07058824
v 0.13736674 -0.02303697 0.00439377 0.56470588 0.92549020 0.07058824
v 0.14079740 -0.02826515 0.00563713 0.56470588 0.92549020 0.07058824
v 0.14039765 -0.02952811 0.00689224 0.56470588 0.92549020 0.07058824
v 0.14049923 -0.03147736 0.00706273 0.56470588 0.92549020 0.07058824
v 0.13957193 -0.03147736 0.00832372 0.56470588 0.92549020 0.07058824
v 0.13937206 -0.03354258 0.00851184 0.56470588 0.92549020 0.07058824
v 0.13871344 -0.03426859 0.00928783 0.56470588 0.92549020 0.07058824
v 0.13762560 -0.03537745 0.01006089 0.56470588 0.92549020 0.07058824
v 0.13649515 -0.03537745 0.01103676 0.56470588 0.92549020 0.07058824
v 0.12410280 -0.03147736 0.01444938 0.56470588 0.92549020 0.07058824
v 0.12604914 -0.03147736 0.01459341 0.56470588 0.92549020 0.07058824
v 0.12215318 -0.03147736 0.01408490 0.56470588 0.92549020 0.07058824
v 0.12002990 -0.03330111 0.01345587 0.56470588 0.92549020 0.07058824
v 0.12799875 -0.03147736 0.01451111 0.56470588 0.92549020 0.07058824
v 0.11926317 -0.03386666 0.01318545 0.56470588 0.92549020 0.07058824
v 0.11825068 -0.03537745 0.01252115 0.56470588 0.92549020 0.07058824
v 0.11668443 -0.03537745 0.01162464 0.56470588 0.92549020 0.07058824
v 0.12994837 -0.03147736 0.01421423 0.56470588 0.92549020 0.07058824
v 0.13189798 -0.03147736 0.01368514 0.56470588 0.92549020 0.07058824
v 0.13551870 -0.03537745 0.01172458 0.56470588 0.92549020 0.07058824
v 0.13294324 -0.03465463 0.01323248 0.56470588 0.92549020 0.07058824
v 0.13369688 -0.03533297 0.01276512 0.56470588 0.92549020 0.07058824
v 0.13302188 -0.03342661 0.01327069 0.56470588 0.92549020 0.07058824
v 0.11346347 -0.03342661 0.00920847 0.56470588 0.92549020 0.07058824
v 0.11266724 -0.03342661 0.00823554 0.56470588 0.92549020 0.07058824
v 0.11169080 -0.03342661 0.00690694 0.56470588 0.92549020 0.07058824
v 0.11557037 -0.03342661 0.01107204 0.56470588 0.92549020 0.07058824
v 0.11443992 -0.03342661 0.01009616 0.56470588 0.92549020 0.07058824
v 0.11261481 -0.03147736 0.00827375 0.56470588 0.92549020 0.07058824
v 0.11265413 -0.02952811 0.00821496 0.56470588 0.92549020 0.07058824
v 0.11348313 -0.02952811 0.00919083 0.56470588 0.92549020 0.07058824
v 0.11391893 -0.02757886 0.00875287 0.56470588 0.92549020 0.07058824
v 0.12102601 -0.02303697 0.00847951 0.56470588 0.92549020 0.07058824
v 0.11630106 -0.02630955 0.00969935 0.56470588 0.92549020 0.07058824
v 0.11489210 -0.02757886 0.00966114 0.56470588 0.92549020 0.07058824
v 0.11626830 -0.02750420 0.01066640 0.56470588 0.92549020 0.07058824
v 0.11755603 -0.02680361 0.01109555 0.56470588 0.92549020 0.07058824
v 0.14000445 -0.02760110 0.00632200 0.56470588 0.92549020 0.07058824
v 0.13872983 -0.02659868 0.00735372 0.56470588 0.92549020 0.07058824
v 0.13634442 -0.02303697 0.00602513 0.56470588 0.92549020 0.07058824
v 0.13902801 -0.02757886 0.00773584 0.56470588 0.92549020 0.07058824
v 0.13859549 -0.02906423 0.00915850 0.56470588 0.92549020 0.07058824
v 0.13929997 -0.02963932 0.00843541 0.56470588 0.92549020 0.07058824
v 0.13875276 -0.03036373 0.00932899 0.56470588 0.92549020 0.07058824
v 0.13876915 -0.03147736 0.00934956 0.56470588 0.92549020 0.07058824
v 0.13875604 -0.03296909 0.00933486 0.56470588 0.92549020 0.07058824
v 0.13793688 -0.03354258 0.01003150 0.56470588 0.92549020 0.07058824
v 0.13665898 -0.03342661 0.01116316 0.56470588 0.92549020 0.07058824
v 0.12410280 -0.02952811 0.01434356 0.56470588 0.92549020 0.07058824
v 0.12215318 -0.02952811 0.01398790 0.56470588 0.92549020 0.07058824
v 0.12604914 -0.02952811 0.01448759 0.56470588 0.92549020 0.07058824
v 0.12799875 -0.02952811 0.01441411 0.56470588 0.92549020 0.07058824
v 0.12001024 -0.03144559 0.01346469 0.56470588 0.92549020 0.07058824
v 0.12036085 -0.02952811 0.01347645 0.56470588 0.92549020 0.07058824
v 0.11922057 -0.03256558 0.01320015 0.56470588 0.92549020 0.07058824
v 0.11844400 -0.03330111 0.01277688 0.56470588 0.92549020 0.07058824
v 0.11654354 -0.03342661 0.01170694 0.56470588 0.92549020 0.07058824
v 0.12994837 -0.02952811 0.01410548 0.56470588 0.92549020 0.07058824
v 0.13305137 -0.03147736 0.01328539 0.56470588 0.92549020 0.07058824
v 0.13298584 -0.03010955 0.01325012 0.56470588 0.92549020 0.07058824
v 0.13203560 -0.02948681 0.01351172 0.56470588 0.92549020 0.07058824
v 0.13568581 -0.03342661 0.01181276 0.56470588 0.92549020 0.07058824
v 0.13399833 -0.03342661 0.01278863 0.56470588 0.92549020 0.07058824
v 0.11342415 -0.03147736 0.00924962 0.56470588 0.92549020 0.07058824
v 0.11553105 -0.03147736 0.01110437 0.56470588 0.92549020 0.07058824
v 0.11439732 -0.03147736 0.01012850 0.56470588 0.92549020 0.07058824
v 0.11445958 -0.02952811 0.01004619 0.56470588 0.92549020 0.07058824
v 0.12300839 -0.02303697 0.00961998 0.56470588 0.92549020 0.07058824
v 0.11885686 -0.02644458 0.01142476 0.56470588 0.92549020 0.07058824
v 0.11563262 -0.02952811 0.01101913 0.56470588 0.92549020 0.07058824
v 0.11689741 -0.02810311 0.01150119 0.56470588 0.92549020 0.07058824
v 0.11822446 -0.02750420 0.01184803 0.56470588 0.92549020 0.07058824
v 0.12013148 -0.02758204 0.01274160 0.56470588 0.92549020 0.07058824
v 0.13683592 -0.02655896 0.00935250 0.56470588 0.92549020 0.07058824
v 0.13818918 -0.02757886 0.00871172 0.56470588 0.92549020 0.07058824
v 0.13607245 -0.02303697 0.00640724 0.56470588 0.92549020 0.07058824
v 0.13509273 -0.02303697 0.00759769 0.56470588 0.92549020 0.07058824
v 0.13721274 -0.02757886 0.00968759 0.56470588 0.92549020 0.07058824
v 0.13653775 -0.02952811 0.01106616 0.56470588 0.92549020 0.07058824
v 0.13786807 -0.02963932 0.00995213 0.56470588 0.92549020 0.07058824
v 0.13667537 -0.03147736 0.01117785 0.56470588 0.92549020 0.07058824
v 0.13774683 -0.03147736 0.01025195 0.56470588 0.92549020 0.07058824
v 0.12398156 -0.02740093 0.01365575 0.56470588 0.92549020 0.07058824
v 0.12215318 -0.02784893 0.01354405 0.56470588 0.92549020 0.07058824
v 0.12604914 -0.02757886 0.01391735 0.56470588 0.92549020 0.07058824
v 0.12073439 -0.02823338 0.01334712 0.56470588 0.92549020 0.07058824
v 0.12799875 -0.02757886 0.01387620 0.56470588 0.92549020 0.07058824
v 0.12991888 -0.02749149 0.01355581 0.56470588 0.92549020 0.07058824
v 0.11923368 -0.03077678 0.01319721 0.56470588 0.92549020 0.07058824
v 0.11922057 -0.03207469 0.01320015 0.56470588 0.92549020 0.07058824
v 0.11938440 -0.02952811 0.01314136 0.56470588 0.92549020 0.07058824
v 0.11844400 -0.03144559 0.01279745 0.56470588 0.92549020 0.07058824
v 0.11650422 -0.03147736 0.01172458 0.56470588 0.92549020 0.07058824
v 0.13147857 -0.02808404 0.01340002 0.56470588 0.92549020 0.07058824
v 0.13402782 -0.03147736 0.01280039 0.56470588 0.92549020 0.07058824
v 0.13277941 -0.02881005 0.01316194 0.56470588 0.92549020 0.07058824
v 0.13371981 -0.02948681 0.01279451 0.56470588 0.92549020 0.07058824
v 0.13570220 -0.03147736 0.01182452 0.56470588 0.92549020 0.07058824
v 0.11660579 -0.02952811 0.01167755 0.56470588 0.92549020 0.07058824
v 0.12325414 -0.02663363 0.01317369 0.56470588 0.92549020 0.07058824
v 0.12407331 -0.02303697 0.00999035 0.56470588 0.92549020 0.07058824
v 0.12020029 -0.02623170 0.01170988 0.56470588 0.92549020 0.07058824
v 0.12215318 -0.02687351 0.01302085 0.56470588 0.92549020 0.07058824
v 0.11825068 -0.02952811 0.01259464 0.56470588 0.92549020 0.07058824
v 0.13584964 -0.02747719 0.01070462 0.56470588 0.92549020 0.07058824
v 0.13384760 -0.02303697 0.00857357 0.56470588 0.92549020 0.07058824
v 0.13461107 -0.02675913 0.01112789 0.56470588 0.92549020 0.07058824
v 0.13523035 -0.02805863 0.01152764 0.56470588 0.92549020 0.07058824
v 0.13556130 -0.02952811 0.01174515 0.56470588 0.92549020 0.07058824
v 0.12455170 -0.02652401 0.01327363 0.56470588 0.92549020 0.07058824
v 0.12604914 -0.02646841 0.01332654 0.56470588 0.92549020 0.07058824
v 0.12799875 -0.02647635 0.01331478 0.56470588 0.92549020 0.07058824
v 0.12925044 -0.02653672 0.01325893 0.56470588 0.92549020 0.07058824
v 0.13055128 -0.02678455 0.01308551 0.56470588 0.92549020 0.07058824
v 0.13203560 -0.02749149 0.01285918 0.56470588 0.92549020 0.07058824
v 0.13391641 -0.02747719 0.01192446 0.56470588 0.92549020 0.07058824
v 0.12611795 -0.02303697 0.01057528 0.56470588 0.92549020 0.07058824
v 0.12474175 -0.02303697 0.01021668 0.56470588 0.92549020 0.07058824
v 0.13215684 -0.02303697 0.00963468 0.56470588 0.92549020 0.07058824
v 0.13186194 -0.02303697 0.00978459 0.56470588 0.92549020 0.07058824
v 0.12686503 -0.02303697 0.01064583 0.56470588 0.92549020 0.07058824
v 0.12799220 -0.02303697 0.01070755 0.56470588 0.92549020 0.07058824
v 0.12873600 -0.02303697 0.01061643 0.56470588 0.92549020 0.07058824
v 0.12994837 -0.02303697 0.01043713 0.56470588 0.92549020 0.07058824
v 0.13048574 -0.02303697 0.01026077 0.56470588 0.92549020 0.07058824
f 1 2 3
f 1 3 4
f 1 4 5
f 1 5 6
f 1 6 7
f 1 7 2
f 2 8 9
f 2 9 10
f 2 10 3
f 2 7 8
f 3 10 11
f 3 11 12
f 3 12 4
f 4 12 13
f 4 13 14
f 4 14 5
f 5 14 15
f 5 15 16
f 5 16 6
f 6 16 17
f 6 17 18
f 6 18 7
f 7 19 8
f 7 18 20
f 7 20 19
f 8 21 22
f 8 22 9
f 8 19 23
f 8 23 21
f 9 22 24
f 9 24 25
f 9 25 10
f 10 25 26
f 10 26 11
f 11 26 27
f 11 27 28
f 11 28 29
f 11 29 12
f 12 29 30
f 12 30 13
f 13 31 14
f 13 30 32
f 13 32 31
f 14 31 33
f 14 33 15
f 15 33 34
f 15 34 35
f 15 35 36
f 15 36 16
f 16 36 37
f 16 37 38
f 16 38 17
f 17 38 39
f 17 39 40
f 17 40 18
f 18 40 41
f 18 41 42
f 18 42 20
f 19 20 43
f 19 43 23
f 20 44 43
f 20 42 44
f 21 23 45
f 21 45 22
f 22 45 24
f 23 46 45
f 23 43 46
f 24 47 48
f 24 48 25
f 24 45 47
f 25 48 49
f 25 49 26
f 26 49 27
f 27 49 50
f 27 50 51
f 27 51 28
f 28 51 52
f 28 52 29
f 29 52 53
f 29 53 30
f 30 53 32
f 31 54 55
f 31 55 33
f 31 32 54
f 32 53 56
f 32 56 57
f 32 57 58
f 32 58 54
f 33 55 59
f 33 59 34
f 34 59 60
f 34 60 35
f 35 60 61
f 35 61 36
f 36 61 37
f 37 61 62
f 37 62 63
f 37 63 38
f 38 63 64
f 38 64 39
f 39 64 65
f 39 65 66
f 39 66 67
f 39 67 40
f 40 67 41
f 41 68 42
f 41 67 69
f 41 69 70
f 41 70 71
f 41 71 72
f 41 72 73
f 41 73 68
f 42 68 44
f 43 74 46
f 43 44 74
f 44 68 75
f 44 75 76
f 44 76 74
f 45 46 74
f 45 74 119
f 45 119 167
f 45 167 170
f 45 170 216
f 45 216 265
f 45 265 322
f 45 322 321
f 45 321 372
f 45 372 419
f 45 419 418
f 45 418 460
f 45 460 503
f 45 503 502
f 45 502 501
f 45 501 542
f 45 542 578
f 45 578 613
f 45 613 646
f 45 646 663
f 45 663 662
f 45 662 666
f 45 666 667
f 45 667 668
f 45 668 669
f 45 669 670
f 45 670 665
f 45 665 664
f 45 664 651
f 45 651 622
f 45 622 621
f 45 621 585
f 45 585 546
f 45 546 505
f 45 505 462
f 45 462 422
f 45 422 375
f 45 375 327
f 45 327 326
f 45 326 323
f 45 323 266
f 45 266 217
f 45 217 171
f 45 171 123
f 45 123 126
f 45 126 125
f 45 125 122
f 45 122 77
f 45 77 47
f 47 77 78
f 47 78 79
f 47 79 48
f 48 79 78
f 48 78 80
f 48 80 49
f 49 80 81
f 49 81 82
f 49 82 50
f 50 82 83
f 50 83 51
f 51 83 84
f 51 84 85
f 51 85 52
f 52 85 86
f 52 86 53
f 53 86 56
f 54 58 87
f 54 87 55
f 55 87 88
f 55 88 89
f 55 89 59
f 56 90 58
f 56 58 57
f 56 86 91
f 56 91 92
f 56 92 93
f 56 93 94
f 56 94 90
f 58 95 87
f 58 90 96
f 58 96 97
f 58 97 98
f 58 98 95
f 59 99 60
f 59 89 100
f 59 100 99
f 60 99 101
f 60 101 102
f 60 102 61
f 61 102 62
f 62 102 103
f 62 103 104
f 62 104 105
f 62 105 106
f 62 106 107
f 62 107 63
f 63 107 108
f 63 108 64
f 64 108 65
f 65 108 109
f 65 109 110
f 65 110 111
f 65 111 66
f 66 111 69
f 66 69 67
f 68 73 75
f 69 111 112
f 69 112 70
f 70 112 113
f 70 113 71
f 71 114 72
f 71 113 115
f 71 115 116
f 71 116 117
f 71 117 118
f 71 118 114
f 72 114 73
f 73 119 74
f 73 74 75
f 73 114 120
f 73 120 121
f 73 121 119
f 74 76 75
f 77 122 78
f 78 123 124
f 78 124 81
f 78 81 80
f 78 122 125
f 78 125 126
f 78 126 123
f 81 124 82
f 82 127 83
f 82 124 128
f 82 128 129
f 82 129 130
f 82 130 127
f 83 127 84
f 84 127 131
f 84 131 132
f 84 132 85
f 85 132 91
f 85 91 86
f 87 95 88
f 88 133 89
f 88 95 133
f 89 133 134
f 89 134 100
f 90 94 96
f 91 132 92
f 92 132 135
f 92 135 136
f 92 136 93
f 93 96 94
f 93 136 137
f 93 137 138
f 93 138 139
f 93 139 96
f 95 98 140
f 95 140 133
f 96 139 141
f 96 141 142
f 96 142 97
f 97 142 143
f 97 143 98
f 98 143 140
f 99 100 144
f 99 144 145
f 99 145 101
f 100 134 146
f 100 146 144
f 101 145 147
f 101 147 148
f 101 148 102
f 102 148 103
f 103 148 149
f 103 149 150
f 103 150 151
f 103 151 152
f 103 152 104
f 104 152 105
f 105 153 106
f 105 152 154
f 105 154 155
f 105 155 156
f 105 156 153
f 106 153 109
f 106 109 108
f 106 108 107
f 109 153 110
f 110 157 158
f 110 158 112
f 110 112 111
f 110 153 157
f 112 158 159
f 112 159 113
f 113 159 160
f 113 160 116
f 113 116 115
f 114 118 120
f 116 160 161
f 116 161 162
f 116 162 163
f 116 163 164
f 116 164 117
f 117 165 118
f 117 164 166
f 117 166 165
f 118 165 120
f 119 121 167
f 120 165 168
f 120 168 169
f 120 169 170
f 120 170 121
f 121 170 167
f 123 171 172
f 123 172 173
f 123 173 124
f 124 173 172
f 124 172 128
f 127 130 174
f 127 174 131
f 128 172 129
f 129 172 175
f 129 175 176
f 129 176 177
f 129 177 178
f 129 178 130
f 130 178 174
f 131 174 135
f 131 135 132
f 133 140 179
f 133 179 134
f 134 179 146
f 135 174 180
f 135 180 136
f 136 180 181
f 136 181 137
f 137 181 182
f 137 182 138
f 138 182 183
f 138 183 184
f 138 184 185
f 138 185 141
f 138 141 139
f 140 143 186
f 140 186 179
f 141 185 187
f 141 187 142
f 142 186 143
f 142 187 188
f 142 188 186
f 144 189 190
f 144 190 145
f 144 146 189
f 145 190 191
f 145 191 147
f 146 192 193
f 146 193 189
f 146 179 194
f 146 194 195
f 146 195 192
f 147 191 149
f 147 149 148
f 149 191 196
f 149 196 150
f 150 196 151
f 151 154 152
f 151 196 197
f 151 197 198
f 151 198 199
f 151 199 155
f 151 155 154
f 153 156 157
f 155 199 200
f 155 200 201
f 155 201 156
f 156 201 202
f 156 202 157
f 157 202 203
f 157 203 204
f 157 204 158
f 158 204 160
f 158 160 159
f 160 204 161
f 161 204 205
f 161 205 206
f 161 206 207
f 161 207 162
f 162 207 208
f 162 208 209
f 162 209 164
f 162 164 163
f 164 209 210
f 164 210 211
f 164 211 212
f 164 212 166
f 165 166 168
f 166 212 168
f 168 213 169
f 168 212 214
f 168 214 215
f 168 215 213
f 169 213 216
f 169 216 170
f 171 217 218
f 171 218 172
f 172 218 175
f 174 178 219
f 174 219 180
f 175 218 176
f 176 220 221
f 176 221 222
f 176 222 223
f 176 223 177
f 176 218 220
f 177 224 178
f 177 223 224
f 178 224 219
f 179 186 225
f 179 225 246
f 179 246 194
f 180 219 181
f 181 219 224
f 181 224 226
f 181 226 227
f 181 227 182
f 182 227 228
f 182 228 229
f 182 229 183
f 183 229 184
f 184 230 185
f 184 229 231
f 184 231 232
f 184 232 233
f 184 233 230
f 185 230 187
f 186 188 234
f 186 234 235
f 186 235 236
f 186 236 225
f 187 230 237
f 187 237 238
f 187 238 188
f 188 238 234
f 189 239 190
f 189 193 240
f 189 240 239
f 190 241 242
f 190 242 191
f 190 239 243
f 190 243 241
f 191 242 196
f 192 195 244
f 192 244 193
f 193 244 245
f 193 245 240
f 194 246 195
f 195 246 244
f 196 242 247
f 196 247 197
f 197 247 248
f 197 248 198
f 198 248 249
f 198 249 250
f 198 250 200
f 198 200 199
f 200 250 251
f 200 251 201
f 201 203 202
f 201 251 252
f 201 252 203
f 203 205 204
f 203 252 253
f 203 253 254
f 203 254 205
f 205 254 206
f 206 254 255
f 206 255 207
f 207 255 208
f 208 256 257
f 208 257 209
f 208 255 256
f 209 257 210
f 210 258 211
f 210 257 259
f 210 259 260
f 210 260 261
f 210 261 258
f 211 214 212
f 211 258 214
f 213 215 262
f 213 262 216
f 214 258 263
f 214 263 264
f 214 264 262
f 214 262 215
f 216 262 265
f 217 266 218
f 218 266 267
f 218 267 268
f 218 268 269
f 218 269 220
f 220 269 221
f 221 270 271
f 221 271 272
f 221 272 222
f 221 269 268
f 221 268 270
f 222 273 223
f 222 272 275
f 222 275 273
f 223 226 224
f 223 273 226
f 225 274 246
f 225 236 274
f 226 273 227
f 227 273 228
f 228 273 275
f 228 275 276
f 228 276 229
f 229 276 277
f 229 277 231
f 230 233 237
f 231 277 232
f 232 277 278
f 232 278 279
f 232 279 280
f 232 280 281
f 232 281 233
f 233 281 237
f 234 238 282
f 234 282 235
f 235 283 236
f 235 282 284
f 235 284 283
f 236 283 285
f 236 285 274
f 237 286 282
f 237 282 238
f 237 281 287
f 237 287 286
f 239 288 289
f 239 289 290
f 239 290 243
f 239 240 291
f 239 291 288
f 240 245 292
f 240 292 293
f 240 293 294
f 240 294 295
f 240 295 296
f 240 296 297
f 240 297 291
f 241 243 298
f 241 298 299
f 241 299 242
f 242 299 300
f 242 300 301
f 242 301 247
f 243 302 303
f 243 303 304
f 243 304 298
f 243 290 302
f 244 246 245
f 245 246 274
f 245 274 305
f 245 305 292
f 247 301 306
f 247 306 248
f 248 306 307
f 248 307 249
f 249 307 308
f 249 308 250
f 250 308 309
f 250 309 310
f 250 310 251
f 251 310 253
f 251 253 252
f 253 310 256
f 253 256 255
f 253 255 254
f 256 311 257
f 256 310 311
f 257 311 259
f 258 261 263
f 259 311 312
f 259 312 313
f 259 313 314
f 259 314 260
f 260 314 315
f 260 315 261
f 261 315 316
f 261 316 317
f 261 317 318
f 261 318 263
f 262 264 319
f 262 319 320
f 262 320 321
f 262 321 322
f 262 322 265
f 263 318 319
f 263 319 264
f 266 323 267
f 267 323 268
f 268 324 325
f 268 325 270
f 268 323 326
f 268 326 327
f 268 327 324
f 270 325 328
f 270 328 271
f 271 328 329
f 271 329 272
f 272 329 275
f 274 285 305
f 275 329 276
f 276 329 277
f 277 329 330
f 277 330 278
f 278 330 279
f 279 331 332
f 279 332 280
f 279 330 331
f 280 332 333
f 280 333 287
f 280 287 281
f 282 286 284
f 283 334 285
f 283 284 334
f 284 286 335
f 284 335 336
f 284 336 337
f 284 337 334
f 285 334 338
f 285 338 292
f 285 292 305
f 286 287 335
f 287 339 336
f 287 336 335
f 287 333 339
f 288 340 341
f 288 341 289
f 288 291 342
f 288 342 340
f 289 343 302
f 289 302 290
f 289 341 343
f 291 297 342
f 292 338 345
f 292 345 293
f 293 344 294
f 293 345 344
f 294 344 295
f 295 344 346
f 295 346 347
f 295 347 296
f 296 347 348
f 296 348 349
f 296 349 297
f 297 349 350
f 297 350 342
f 298 304 299
f 299 304 351
f 299 351 300
f 300 351 352
f 300 352 353
f 300 353 301
f 301 353 306
f 302 354 355
f 302 355 356
f 302 356 303
f 302 343 354
f 303 356 357
f 303 357 358
f 303 358 304
f 304 358 352
f 304 352 351
f 306 353 307
f 307 353 359
f 307 359 360
f 307 360 308
f 308 360 361
f 308 361 309
f 309 361 312
f 309 312 311
f 309 311 310
f 312 362 313
f 312 361 362
f 313 363 364
f 313 364 314
f 313 362 363
f 314 364 315
f 315 364 316
f 316 365 366
f 316 366 367
f 316 367 317
f 316 364 365
f 317 367 318
f 318 367 368
f 318 368 369
f 318 369 370
f 318 370 319
f 319 370 320
f 320 370 371
f 320 371 372
f 320 372 321
f 324 373 374
f 324 374 325
f 324 327 375
f 324 375 373
f 325 374 328
f 328 374 376
f 328 376 331
f 328 331 330
f 328 330 329
f 331 377 332
f 331 376 377
f 332 377 424
f 332 424 378
f 332 378 333
f 333 379 380
f 333 380 381
f 333 381 339
f 333 378 382
f 333 382 379
f 334 383 346
f 334 346 345
f 334 345 338
f 334 337 383
f 336 339 384
f 336 384 337
f 337 385 383
f 337 384 385
f 339 381 384
f 340 386 387
f 340 387 341
f 340 342 388
f 340 388 386
f 341 387 389
f 341 389 343
f 342 350 388
f 343 389 390
f 343 390 354
f 344 345 346
f 346 383 347
f 347 383 391
f 347 391 392
f 347 392 393
f 347 393 348
f 348 394 395
f 348 395 349
f 348 393 394
f 349 396 350
f 349 395 396
f 350 397 388
f 350 396 397
f 352 358 359
f 352 359 353
f 354 398 355
f 354 390 399
f 354 399 398
f 355 398 400
f 355 400 401
f 355 401 356
f 356 401 357
f 357 401 402
f 357 402 403
f 357 403 358
f 358 403 359
f 359 403 404
f 359 404 405
f 359 405 360
f 360 405 406
f 360 406 361
f 361 406 362
f 362 406 407
f 362 407 363
f 363 407 408
f 363 408 364
f 364 408 409
f 364 409 365
f 365 409 410
f 365 410 411
f 365 411 412
f 365 412 366
f 366 412 413
f 366 413 367
f 367 413 414
f 367 414 368
f 368 414 415
f 368 415 369
f 369 415 416
f 369 416 417
f 369 417 370
f 370 417 371
f 371 417 418
f 371 418 419
f 371 419 372
f 373 420 421
f 373 421 374
f 373 375 422
f 373 422 420
f 374 421 423
f 374 423 376
f 376 423 377
f 377 423 424
f 378 424 425
f 378 425 426
f 378 426 379
f 378 379 382
f 379 426 465
f 379 465 427
f 379 427 428
f 379 428 380
f 380 428 429
f 380 429 430
f 380 430 381
f 381 430 431
f 381 431 384
f 383 385 391
f 384 431 432
f 384 432 385
f 385 432 391
f 386 433 434
f 386 434 435
f 386 435 387
f 386 388 433
f 387 435 389
f 388 436 433
f 388 397 437
f 388 437 436
f 389 435 390
f 390 435 438
f 390 438 399
f 391 432 392
f 392 439 393
f 392 432 440
f 392 440 439
f 393 439 441
f 393 441 394
f 394 442 395
f 394 441 442
f 395 442 443
f 395 443 396
f 396 443 397
f 397 443 444
f 397 444 445
f 397 445 437
f 398 446 400
f 398 399 447
f 398 447 446
f 399 438 447
f 400 446 448
f 400 448 401
f 401 448 402
f 402 448 449
f 402 449 404
f 402 404 403
f 404 449 450
f 404 450 406
f 404 406 405
f 406 450 408
f 406 408 407
f 408 450 451
f 408 451 452
f 408 452 409
f 409 452 410
f 410 452 453
f 410 453 454
f 410 454 411
f 411 454 412
f 412 454 455
f 412 455 413
f 413 455 456
f 413 456 457
f 413 457 414
f 414 457 458
f 414 458 415
f 415 458 416
f 416 458 459
f 416 459 460
f 416 460 417
f 417 460 418
f 420 461 421
f 420 422 462
f 420 462 461
f 421 461 463
f 421 463 464
f 421 464 423
f 423 425 424
f 423 464 425
f 425 464 426
f 426 464 465
f 427 465 466
f 427 466 467
f 427 467 428
f 428 467 429
f 429 467 468
f 429 468 469
f 429 469 470
f 429 470 471
f 429 471 430
f 430 471 431
f 431 471 440
f 431 440 432
f 433 472 473
f 433 473 434
f 433 436 474
f 433 474 472
f 434 473 475
f 434 475 476
f 434 476 438
f 434 438 435
f 436 437 474
f 437 477 474
f 437 445 477
f 438 476 478
f 438 478 479
f 438 479 447
f 439 440 480
f 439 480 481
f 439 481 441
f 440 471 480
f 441 482 442
f 441 481 482
f 442 482 483
f 442 483 484
f 442 484 444
f 442 444 443
f 444 484 485
f 444 485 445
f 445 486 477
f 445 485 486
f 446 487 488
f 446 488 489
f 446 489 448
f 446 447 487
f 447 490 491
f 447 491 487
f 447 479 490
f 448 489 492
f 448 492 493
f 448 493 449
f 449 451 450
f 449 493 451
f 451 493 492
f 451 492 494
f 451 494 453
f 451 453 452
f 453 494 495
f 453 495 454
f 454 495 496
f 454 496 456
f 454 456 455
f 456 496 497
f 456 497 498
f 456 498 457
f 457 498 499
f 457 499 458
f 458 499 500
f 458 500 459
f 459 500 501
f 459 501 502
f 459 502 503
f 459 503 460
f 461 504 463
f 461 462 505
f 461 505 504
f 463 504 506
f 463 506 464
f 464 506 507
f 464 507 465
f 465 507 508
f 465 508 509
f 465 509 466
f 466 509 510
f 466 510 467
f 467 510 468
f 468 510 511
f 468 511 469
f 469 511 512
f 469 512 513
f 469 513 514
f 469 514 480
f 469 480 470
f 470 480 471
f 472 515 516
f 472 516 517
f 472 517 473
f 472 474 515
f 473 517 475
f 474 518 515
f 474 477 519
f 474 519 518
f 475 517 520
f 475 520 521
f 475 521 522
f 475 522 478
f 475 478 476
f 477 486 523
f 477 523 519
f 478 522 479
f 479 522 490
f 480 514 481
f 481 514 513
f 481 513 524
f 481 524 482
f 482 524 525
f 482 525 483
f 483 525 485
f 483 485 484
f 485 525 526
f 485 526 527
f 485 527 486
f 486 527 528
f 486 528 523
f 487 491 488
f 488 491 529
f 488 529 530
f 488 530 531
f 488 531 492
f 488 492 489
f 490 522 491
f 491 532 529
f 491 522 533
f 491 533 532
f 492 531 534
f 492 534 494
f 494 534 495
f 495 534 535
f 495 535 496
f 496 535 536
f 496 536 497
f 497 536 537
f 497 537 538
f 497 538 498
f 498 539 499
f 498 538 540
f 498 540 539
f 499 539 541
f 499 541 500
f 500 541 501
f 501 541 543
f 501 543 544
f 501 544 542
f 504 545 506
f 504 505 546
f 504 546 545
f 506 545 547
f 506 547 507
f 507 547 508
f 508 547 548
f 508 548 549
f 508 549 509
f 509 549 510
f 510 549 550
f 510 550 551
f 510 551 552
f 510 552 511
f 511 552 512
f 512 552 553
f 512 553 513
f 513 553 554
f 513 554 525
f 513 525 524
f 515 555 557
f 515 557 516
f 515 518 556
f 515 556 555
f 516 557 558
f 516 558 520
f 516 520 517
f 518 519 556
f 519 559 556
f 519 523 563
f 519 563 559
f 520 558 560
f 520 560 521
f 521 560 561
f 521 561 522
f 522 561 562
f 522 562 533
f 523 528 564
f 523 564 563
f 525 554 565
f 525 565 526
f 526 566 527
f 526 565 567
f 526 567 566
f 527 566 528
f 528 566 568
f 528 568 564
f 529 569 570
f 529 570 530
f 529 532 569
f 530 570 571
f 530 571 531
f 531 571 535
f 531 535 534
f 532 533 572
f 532 572 573
f 532 573 569
f 533 562 572
f 535 571 537
f 535 537 536
f 537 571 570
f 537 570 574
f 537 574 575
f 537 575 538
f 538 575 540
f 539 540 541
f 540 576 577
f 540 577 541
f 540 575 576
f 541 577 544
f 541 544 543
f 542 544 579
f 542 579 578
f 544 577 580
f 544 580 581
f 544 581 582
f 544 582 579
f 545 583 547
f 545 546 584
f 545 584 583
f 546 585 584
f 547 583 586
f 547 586 548
f 548 586 587
f 548 587 588
f 548 588 589
f 548 589 549
f 549 589 550
f 550 589 590
f 550 590 591
f 550 591 551
f 551 591 552
f 552 592 593
f 552 593 554
f 552 554 553
f 552 591 592
f 554 593 565
f 555 594 595
f 555 595 557
f 555 556 596
f 555 596 594
f 556 559 597
f 556 597 596
f 557 598 558
f 557 595 599
f 557 599 598
f 558 598 600
f 558 600 560
f 559 563 597
f 560 600 601
f 560 601 561
f 561 601 602
f 561 602 562
f 562 602 572
f 563 603 597
f 563 564 603
f 564 568 604
f 564 604 605
f 564 605 606
f 564 606 603
f 565 593 607
f 565 607 608
f 565 608 567
f 566 567 608
f 566 608 568
f 568 608 604
f 569 573 609
f 569 609 574
f 569 574 570
f 572 602 610
f 572 610 611
f 572 611 573
f 573 611 609
f 574 609 575
f 575 609 576
f 576 609 611
f 576 611 612
f 576 612 580
f 576 580 577
f 578 579 582
f 578 582 614
f 578 614 613
f 580 615 616
f 580 616 581
f 580 612 615
f 581 616 582
f 582 616 617
f 582 617 618
f 582 618 614
f 583 584 586
f 584 619 620
f 584 620 586
f 584 585 621
f 584 621 622
f 584 622 619
f 586 620 587
f 587 620 623
f 587 623 624
f 587 624 625
f 587 625 589
f 587 589 588
f 589 625 624
f 589 624 626
f 589 626 627
f 589 627 590
f 590 627 591
f 591 627 593
f 591 593 592
f 593 626 607
f 593 627 626
f 594 628 629
f 594 629 595
f 594 596 630
f 594 630 628
f 595 629 631
f 595 631 599
f 596 597 632
f 596 632 630
f 597 603 633
f 597 633 632
f 598 634 635
f 598 635 600
f 598 599 634
f 599 631 636
f 599 636 634
f 600 635 637
f 600 637 601
f 601 637 638
f 601 638 602
f 602 638 610
f 603 606 639
f 603 639 633
f 604 608 640
f 604 640 605
f 605 641 606
f 605 640 642
f 605 642 641
f 606 641 639
f 607 643 640
f 607 640 608
f 607 626 643
f 610 638 644
f 610 644 615
f 610 615 612
f 610 612 611
f 613 645 646
f 613 614 647
f 613 647 648
f 613 648 645
f 614 618 648
f 614 648 647
f 615 644 616
f 616 649 636
f 616 636 631
f 616 631 617
f 616 644 649
f 617 631 618
f 618 631 648
f 619 650 623
f 619 623 620
f 619 622 651
f 619 651 652
f 619 652 650
f 623 650 653
f 623 653 624
f 624 654 626
f 624 653 654
f 626 654 643
f 628 645 629
f 628 630 655
f 628 655 645
f 629 648 631
f 629 645 648
f 630 656 655
f 630 632 657
f 630 657 656
f 632 633 658
f 632 658 657
f 633 639 659
f 633 659 658
f 634 636 649
f 634 649 637
f 634 637 635
f 637 649 638
f 638 649 644
f 639 641 660
f 639 660 659
f 640 643 654
f 640 654 642
f 641 642 654
f 641 654 653
f 641 653 661
f 641 661 660
f 645 655 662
f 645 662 663
f 645 663 646
f 650 652 653
f 651 664 652
f 652 664 665
f 652 665 659
f 652 659 660
f 652 660 661
f 652 661 653
f 655 656 666
f 655 666 662
f 656 657 667
f 656 667 666
f 657 658 667
f 658 668 667
f 658 659 669
f 658 669 668
f 659 670 669
f 659 665 670

